<?xml version="1.0" encoding="utf-8"?>
<!-- Generator: Adobe Illustrator 23.0.1, SVG Export Plug-In . SVG Version: 6.00 Build 0)  -->
<svg version="1.1" id="Layer_1" xmlns="http://www.w3.org/2000/svg" xmlns:xlink="http://www.w3.org/1999/xlink" x="0px" y="0px"
	 viewBox="0 0 219.8 43.5" style="enable-background:new 0 0 219.8 43.5;" xml:space="preserve">
<style type="text/css">
	.st0{fill:url(#SVGID_1_);}
	.st1{fill:#FFFFFF;}
</style>
<g id="SvgjsG7751" transform="matrix(0.7038909965675969,0,0,0.7038909965675969,119.39507588583145,65.48054501716202)">
	<linearGradient id="SVGID_1_" gradientUnits="userSpaceOnUse" x1="-169.6215" y1="-37.9132" x2="41.3814" y2="-37.9132">
		<stop  offset="0" style="stop-color:#C079FB"/>
		<stop  offset="1" style="stop-color:#F8A8FF"/>
	</linearGradient>
	<path class="st0" d="M-163.3-31.3c-3.6,0-6.3-2.5-6.3-6.4s2.7-6.4,6.3-6.4c2.8,0,5,1.4,5.9,3.8l-2.4,0.9c-0.5-1.4-1.9-2.3-3.5-2.3
		c-2.1,0-3.8,1.5-3.8,4s1.6,4,3.8,4c1.6,0,2.9-0.8,3.5-2.3l2.4,0.9C-158.3-32.7-160.5-31.3-163.3-31.3L-163.3-31.3z M-146.9-31.3
		c-2.8,0-4.8-1.7-4.8-4.6c0-2.9,2-4.6,4.8-4.6c2.8,0,4.8,1.7,4.8,4.6C-142-33-144-31.3-146.9-31.3z M-146.9-33.2
		c1.4,0,2.4-1,2.4-2.6s-1-2.6-2.4-2.6c-1.4,0-2.4,1-2.4,2.6S-148.3-33.2-146.9-33.2z M-135.5-31.4v-13.2h2.5v13.2H-135.5z
		 M-125.8-31.4v-13.2h2.5v13.2H-125.8z M-108.9-33.8c0,1.1,0.1,1.8,0.2,2.2v0.2h-2.3l-0.2-1c-0.7,0.8-1.8,1.1-2.8,1.1
		c-1.4,0-2.7-0.6-2.7-2.5c0-1.8,1.4-2.4,3.2-2.9l1.5-0.3c0.6-0.1,0.8-0.4,0.8-0.7c0-0.9-0.8-1.1-1.5-1.1c-0.9,0-1.6,0.4-1.7,1.3
		l-2.2-0.4c0.4-1.8,1.7-2.7,4.1-2.7c1.8,0,3.7,0.5,3.7,3.2L-108.9-33.8L-108.9-33.8z M-113.2-32.9c1.2,0,2.1-0.8,2.1-2.5l-2.1,0.6
		c-0.7,0.2-1.2,0.4-1.2,1C-114.4-33.2-113.9-32.9-113.2-32.9L-113.2-32.9z M-96.6-40.4c2.3,0,4.2,1.7,4.2,4.6s-1.9,4.6-4.2,4.6
		c-1.2,0-2.3-0.5-2.8-1.4l-0.1,1.2h-2.3v-13.2h2.5v5.4C-98.8-40-97.8-40.4-96.6-40.4L-96.6-40.4z M-97.2-33.3c1.3,0,2.3-1,2.3-2.5
		c0-1.6-1-2.6-2.3-2.6c-1.3,0-2.3,1-2.3,2.6S-98.5-33.3-97.2-33.3z M-81.8-31.3c-2.8,0-4.8-1.7-4.8-4.6c0-2.9,2-4.6,4.8-4.6
		c2.8,0,4.8,1.7,4.8,4.6C-76.9-33-78.9-31.3-81.8-31.3z M-81.8-33.2c1.4,0,2.4-1,2.4-2.6s-1-2.6-2.4-2.6c-1.4,0-2.4,1-2.4,2.6
		S-83.2-33.2-81.8-33.2z M-68.1-38.8c0.4-0.8,1.6-1.5,2.9-1.5v2.2c-1.9,0-2.8,0.5-2.8,2.4v4.3h-2.5v-8.8h2.4L-68.1-38.8L-68.1-38.8z
		 M-51.8-33.8c0,1.1,0.1,1.8,0.2,2.2v0.2h-2.3l-0.2-1c-0.7,0.8-1.8,1.1-2.8,1.1c-1.4,0-2.7-0.6-2.7-2.5c0-1.8,1.4-2.4,3.2-2.9
		l1.5-0.3c0.6-0.1,0.8-0.4,0.8-0.7c0-0.9-0.8-1.1-1.5-1.1c-0.9,0-1.6,0.4-1.7,1.3l-2.2-0.4c0.4-1.8,1.7-2.7,4.1-2.7
		c1.8,0,3.7,0.5,3.7,3.2L-51.8-33.8L-51.8-33.8z M-56.2-32.9c1.2,0,2.1-0.8,2.1-2.5l-2.1,0.6c-0.7,0.2-1.2,0.4-1.2,1
		C-57.4-33.2-56.8-32.9-56.2-32.9L-56.2-32.9z M-41.5-31.4c-1.7,0-2.7-1-2.7-2.8v-4.2h-1.7v-1.9h0.6c0.9,0,1.5-0.4,1.5-1.7v-1.2h2.2
		v2.9h1.8v1.9h-1.8v3.9c0,0.8,0.4,1.1,1,1.1h0.8v1.9H-41.5L-41.5-31.4z M-32-41.6c-0.8,0-1.4-0.6-1.4-1.4c0-0.8,0.7-1.4,1.4-1.4
		c0.8,0,1.4,0.6,1.4,1.4C-30.6-42.2-31.3-41.6-32-41.6z M-33.3-31.4v-8.8h2.5v8.8H-33.3z M-17.9-40.2h2.6l-3.8,8.8h-2.1l-3.7-8.8
		h2.6l2.2,6L-17.9-40.2z M-1-36l0,0.6h-6.5c0.1,1.5,1.1,2.2,2.3,2.2c0.9,0,1.6-0.4,1.9-1.2l2.3,0.3c-0.6,1.8-2.2,2.8-4.2,2.8
		c-2.9,0-4.7-1.7-4.7-4.6s1.9-4.6,4.6-4.6C-2.9-40.4-1-39.1-1-36L-1-36z M-5.3-38.7c-1.1,0-1.9,0.5-2.1,1.7h4.1
		C-3.6-38.1-4.3-38.7-5.3-38.7z M19.2-31.3c-2.7,0-4.7-1.3-5.1-3.6l2.7-0.6c0.2,1.4,1.2,2.1,2.6,2.1c1,0,1.9-0.5,1.9-1.5
		c0-1.2-1.4-1.5-2.9-2c-1.8-0.6-3.8-1.2-3.8-3.5c0-2.3,1.9-3.6,4.4-3.6c2.2,0,4.4,0.9,4.9,3.3l-2.5,0.6c-0.2-1.2-1.1-1.8-2.2-1.8
		c-1,0-1.9,0.4-1.9,1.5c0,1,1.2,1.3,2.6,1.7c1.9,0.6,4.1,1.3,4.1,3.8C23.8-32.4,21.6-31.3,19.2-31.3L19.2-31.3z M34.7-31.3
		c-2.8,0-4.8-1.7-4.8-4.6c0-2.9,2-4.6,4.8-4.6c2.8,0,4.8,1.7,4.8,4.6C39.5-33,37.5-31.3,34.7-31.3z M34.6-33.2c1.4,0,2.4-1,2.4-2.6
		s-1-2.6-2.4-2.6c-1.4,0-2.4,1-2.4,2.6S33.3-33.2,34.6-33.2z M46-31.4v-13.2h2.5v13.2H46z M61.5-40.2H64v8.8h-2.3l-0.1-1.1
		c-0.6,0.8-1.6,1.2-2.8,1.2c-2.1,0-3.3-1.1-3.3-3.1v-5.9H58v5.4c0,1.2,0.7,1.6,1.6,1.6c1,0,1.9-0.5,2-2.1L61.5-40.2L61.5-40.2z
		 M74.5-31.4c-1.7,0-2.7-1-2.7-2.8v-4.2h-1.7v-1.9h0.6c0.9,0,1.5-0.4,1.5-1.7v-1.2h2.2v2.9h1.8v1.9h-1.8v3.9c0,0.8,0.4,1.1,1,1.1
		h0.8v1.9H74.5L74.5-31.4z M84-41.6c-0.8,0-1.4-0.6-1.4-1.4c0-0.8,0.7-1.4,1.4-1.4c0.8,0,1.4,0.6,1.4,1.4
		C85.4-42.2,84.7-41.6,84-41.6z M82.7-31.4v-8.8h2.5v8.8H82.7z M96.5-31.3c-2.8,0-4.8-1.7-4.8-4.6c0-2.9,2-4.6,4.8-4.6
		c2.8,0,4.8,1.7,4.8,4.6C101.4-33,99.4-31.3,96.5-31.3z M96.5-33.2c1.4,0,2.4-1,2.4-2.6s-1-2.6-2.4-2.6c-1.4,0-2.4,1-2.4,2.6
		S95.1-33.2,96.5-33.2z M113.1-40.4c2.1,0,3.3,1.1,3.3,3.1v5.9h-2.5v-5.4c0-1.2-0.7-1.6-1.6-1.6c-1,0-1.9,0.5-2,2.1v4.9h-2.5v-8.8
		h2.5v1C110.9-40,111.9-40.4,113.1-40.4L113.1-40.4z M126.5-31.3c-2,0-3.5-0.8-3.8-2.5l2.1-0.6c0.3,0.9,0.9,1.3,1.8,1.3
		c0.6,0,1.3-0.2,1.3-0.9c0-0.9-1.4-1-2.8-1.5c-1.1-0.4-2.1-0.9-2.1-2.4c0-1.8,1.5-2.6,3.5-2.6c1.7,0,3.2,0.7,3.5,2.3l-1.9,0.4
		c-0.3-0.8-0.8-1.1-1.6-1.1c-0.7,0-1.2,0.2-1.2,0.8c0,0.7,1,0.8,2.1,1.1c1.4,0.4,2.9,1,2.9,2.9C130.1-32,128.4-31.3,126.5-31.3
		L126.5-31.3z"/>
</g>
<g>
	<path class="st1" d="M20.8,24.1c-0.2,0-0.4-0.1-0.6-0.2c-0.2-0.2-0.2-0.4-0.2-0.6V5.6h-5.9c-0.2,0-0.4-0.1-0.6-0.3
		c-0.2-0.2-0.2-0.4-0.2-0.6V1.1c0-0.3,0.1-0.5,0.2-0.6s0.4-0.2,0.6-0.2h17.8c0.2,0,0.4,0.1,0.6,0.2c0.2,0.2,0.2,0.4,0.2,0.6v3.7
		c0,0.2-0.1,0.4-0.2,0.6c-0.2,0.2-0.4,0.3-0.6,0.3H26v17.7c0,0.3-0.1,0.5-0.2,0.6c-0.2,0.2-0.4,0.2-0.6,0.2H20.8z"/>
	<path class="st1" d="M38.2,24.1c-0.2,0-0.4-0.1-0.6-0.2c-0.2-0.2-0.2-0.4-0.2-0.6V1.1c0-0.3,0.1-0.5,0.2-0.6
		c0.2-0.2,0.4-0.2,0.6-0.2h15.4c0.2,0,0.4,0.1,0.6,0.2c0.2,0.2,0.2,0.4,0.2,0.6v3.2c0,0.3-0.1,0.5-0.2,0.6c-0.2,0.2-0.4,0.2-0.6,0.2
		H43v4.6h9.8c0.2,0,0.4,0.1,0.6,0.3c0.2,0.2,0.2,0.4,0.2,0.6v3c0,0.2-0.1,0.4-0.2,0.6c-0.2,0.2-0.4,0.3-0.6,0.3H43v4.7h10.8
		c0.2,0,0.4,0.1,0.6,0.2c0.2,0.2,0.2,0.4,0.2,0.6v3.2c0,0.3-0.1,0.5-0.2,0.6c-0.2,0.2-0.4,0.2-0.6,0.2H38.2z"/>
	<path class="st1" d="M58.7,24.1c-0.2,0-0.3-0.1-0.5-0.2c-0.1-0.1-0.2-0.3-0.2-0.5c0-0.1,0-0.2,0-0.3l7.8-21.9
		C65.9,1,66,0.7,66.3,0.5c0.2-0.2,0.5-0.3,0.9-0.3H72c0.4,0,0.7,0.1,0.9,0.3s0.3,0.4,0.4,0.7L81,23.1c0,0.1,0.1,0.2,0.1,0.3
		c0,0.2-0.1,0.3-0.2,0.5c-0.1,0.1-0.3,0.2-0.5,0.2h-4.1c-0.3,0-0.6-0.1-0.7-0.3c-0.2-0.2-0.3-0.3-0.3-0.5L74,19.9h-8.8l-1.3,3.5
		c0,0.1-0.1,0.3-0.3,0.5s-0.4,0.3-0.8,0.3H58.7z M66.5,15h6.1l-3.1-9L66.5,15z"/>
	<path class="st1" d="M86.2,24.1c-0.2,0-0.4-0.1-0.6-0.2c-0.2-0.2-0.2-0.4-0.2-0.6V1.1c0-0.3,0.1-0.5,0.2-0.6s0.4-0.2,0.6-0.2h3.6
		c0.4,0,0.6,0.1,0.8,0.3s0.3,0.3,0.3,0.5l5.8,10.8L102.5,1c0.1-0.1,0.2-0.3,0.3-0.5s0.4-0.3,0.8-0.3h3.5c0.2,0,0.4,0.1,0.6,0.2
		s0.2,0.4,0.2,0.6v22.2c0,0.3-0.1,0.5-0.2,0.6c-0.2,0.2-0.4,0.2-0.6,0.2h-3.9c-0.2,0-0.4-0.1-0.6-0.2c-0.2-0.2-0.2-0.4-0.2-0.6V10.5
		l-3.7,7.1c-0.1,0.2-0.2,0.4-0.4,0.5c-0.2,0.2-0.4,0.2-0.7,0.2h-1.7c-0.3,0-0.6-0.1-0.7-0.2c-0.2-0.2-0.3-0.3-0.4-0.5L91,10.5v12.8
		c0,0.3-0.1,0.5-0.2,0.6c-0.2,0.2-0.4,0.2-0.6,0.2H86.2z"/>
	<path class="st1" d="M115.1,24.1c-0.2,0-0.4-0.1-0.6-0.2c-0.2-0.2-0.2-0.4-0.2-0.6V1.1c0-0.3,0.1-0.5,0.2-0.6
		c0.2-0.2,0.4-0.2,0.6-0.2h15.1c0.2,0,0.4,0.1,0.6,0.2s0.2,0.4,0.2,0.6v3.4c0,0.3-0.1,0.5-0.2,0.6s-0.4,0.2-0.6,0.2h-10.2v5h9.5
		c0.2,0,0.4,0.1,0.6,0.3s0.2,0.4,0.2,0.6v3.4c0,0.2-0.1,0.4-0.2,0.6c-0.2,0.2-0.4,0.3-0.6,0.3h-9.5v7.7c0,0.3-0.1,0.5-0.2,0.6
		c-0.2,0.2-0.4,0.2-0.6,0.2H115.1z"/>
	<path class="st1" d="M137.1,24.1c-0.2,0-0.4-0.1-0.6-0.2c-0.2-0.2-0.2-0.4-0.2-0.6V1.1c0-0.3,0.1-0.5,0.2-0.6
		c0.2-0.2,0.4-0.2,0.6-0.2h4.4c0.2,0,0.4,0.1,0.6,0.2s0.2,0.4,0.2,0.6V19h10c0.2,0,0.4,0.1,0.6,0.3s0.2,0.4,0.2,0.6v3.4
		c0,0.3-0.1,0.5-0.2,0.6c-0.2,0.2-0.4,0.2-0.6,0.2H137.1z"/>
	<path class="st1" d="M166.7,24.5c-2,0-3.8-0.3-5.3-1s-2.7-1.7-3.5-3.1c-0.8-1.4-1.3-3.1-1.4-5.2c0-1,0-2,0-2.9c0-1,0-2,0-3
		c0.1-2,0.6-3.8,1.4-5.2c0.8-1.4,2-2.5,3.5-3.2s3.2-1.1,5.2-1.1c2,0,3.7,0.4,5.2,1.1c1.5,0.7,2.7,1.8,3.5,3.2s1.3,3.1,1.4,5.2
		c0,1,0.1,2,0.1,3c0,1,0,2-0.1,2.9c-0.1,2.1-0.6,3.8-1.4,5.2c-0.8,1.4-2,2.4-3.5,3.1S168.7,24.5,166.7,24.5z M166.7,19.6
		c1.2,0,2.1-0.4,2.9-1.1c0.7-0.7,1.1-1.9,1.2-3.5c0-1,0.1-1.9,0.1-2.8c0-0.9,0-1.8-0.1-2.8c0-1.1-0.2-1.9-0.6-2.6
		c-0.3-0.7-0.8-1.2-1.4-1.5c-0.6-0.3-1.3-0.5-2-0.5c-0.7,0-1.4,0.2-2,0.5c-0.6,0.3-1.1,0.8-1.4,1.5c-0.4,0.7-0.6,1.5-0.6,2.6
		c0,1,0,1.9,0,2.8c0,0.9,0,1.8,0,2.8c0.1,1.6,0.5,2.8,1.2,3.5S165.6,19.6,166.7,19.6z"/>
	<path class="st1" d="M185.8,24.1c-0.4,0-0.7-0.1-0.9-0.3c-0.2-0.2-0.4-0.5-0.4-0.8l-3.6-21.8c0,0,0-0.1,0-0.1s0-0.1,0-0.1
		c0-0.2,0.1-0.3,0.2-0.5c0.1-0.1,0.3-0.2,0.5-0.2h4.1c0.6,0,1,0.3,1,0.8l2.1,13.3l2.4-7.9c0.1-0.2,0.2-0.4,0.3-0.6
		c0.2-0.2,0.4-0.3,0.8-0.3h2.4c0.4,0,0.6,0.1,0.8,0.3c0.2,0.2,0.3,0.4,0.3,0.6l2.4,7.9L200.3,1c0.1-0.5,0.4-0.8,1-0.8h4.1
		c0.2,0,0.4,0.1,0.5,0.2c0.1,0.1,0.2,0.3,0.2,0.5c0,0,0,0.1,0,0.1s0,0.1,0,0.1L202.5,23c0,0.3-0.2,0.6-0.4,0.8
		c-0.2,0.2-0.5,0.3-0.9,0.3h-3.1c-0.4,0-0.7-0.1-0.9-0.3c-0.2-0.2-0.3-0.4-0.4-0.6l-3.3-9.8l-3.3,9.8c-0.1,0.2-0.2,0.4-0.4,0.6
		c-0.2,0.2-0.5,0.3-0.8,0.3H185.8z"/>
</g>
</svg>
