<?xml version="1.0" encoding="utf-8"?>
<!-- Generator: Adobe Illustrator 23.0.1, SVG Export Plug-In . SVG Version: 6.00 Build 0)  -->
<svg version="1.1" id="Layer_1" xmlns="http://www.w3.org/2000/svg" xmlns:xlink="http://www.w3.org/1999/xlink" x="0px" y="0px"
	 viewBox="0 0 219.8 43.5" style="enable-background:new 0 0 219.8 43.5;" xml:space="preserve">
<style type="text/css">
	.st0{fill:#111111;}
	.st1{fill:#F8B500;}
</style>
<g>
	<g id="SvgjsG7750" transform="matrix(0.9932507568353737,0,0,0.9932507568353737,119.22357480277297,8.690222971275931)">
		<path class="st0" d="M-103.1-8.4v4.5h-5.9v20.3h-5.1V-3.9h-5.9v-4.5L-103.1-8.4L-103.1-8.4z M-81.4-3.9h-9.2v5.6h8.2v4.5h-8.2v5.6
			h9.2v4.6h-14.4V-8.4h14.4V-3.9L-81.4-3.9z M-56.2,16.4l-1.8-5.1h-10.4l-1.8,5.1h-5.3l9.1-24.8h6.3l9.1,24.8H-56.2L-56.2,16.4z
			 M-66.9,7h7.4l-3.7-10.5L-66.9,7z M-15.3,16.4h-5.1l-1.6-18.7l-6.3,18.7h-3.3L-38-2.3l-1.6,18.7h-5.2l2.1-24.8h7.3l5.3,15.6
			l5.4-15.6h7.3L-15.3,16.4z M8.1-3.9h-9.4v5.6h8.2v4.5h-8.2v10.2h-5.2V-8.4H8.1L8.1-3.9L8.1-3.9z M21,11.9h7.8v4.6H15.8V-8.4H21
			L21,11.9L21,11.9z M47.1,16.8c-7.3,0-12.7-5-12.7-12.8c0-7.8,5.4-12.7,12.7-12.7c7.3,0,12.7,4.9,12.7,12.7
			C59.8,11.8,54.4,16.8,47.1,16.8z M47.1,12c4.3,0,7.6-3,7.6-8c0-5-3.3-8-7.6-8s-7.6,3-7.6,8C39.5,9,42.8,12,47.1,12z M71.9,16.4
			L65.4-8.4h5.4l4.8,18.8l5.5-18.8h4.3L91,10.4l4.9-18.8h5.3l-6.5,24.8h-6.6L83.3,1.1l-4.8,15.3H71.9L71.9,16.4z"/>
	</g>
	<g id="SvgjsG7751" transform="matrix(0.7038909965675969,0,0,0.7038909965675969,119.39507588583145,65.48054501716202)">
		<path class="st1" d="M-163.3-31.3c-3.6,0-6.3-2.5-6.3-6.4s2.7-6.4,6.3-6.4c2.8,0,5,1.4,5.9,3.8l-2.4,0.9c-0.5-1.4-1.9-2.3-3.5-2.3
			c-2.1,0-3.8,1.5-3.8,4s1.6,4,3.8,4c1.6,0,2.9-0.8,3.5-2.3l2.4,0.9C-158.3-32.7-160.5-31.3-163.3-31.3L-163.3-31.3z M-146.9-31.3
			c-2.8,0-4.8-1.7-4.8-4.6c0-2.9,2-4.6,4.8-4.6c2.8,0,4.8,1.7,4.8,4.6C-142-33-144-31.3-146.9-31.3z M-146.9-33.2
			c1.4,0,2.4-1,2.4-2.6s-1-2.6-2.4-2.6c-1.4,0-2.4,1-2.4,2.6S-148.3-33.2-146.9-33.2z M-135.5-31.4v-13.2h2.5v13.2H-135.5z
			 M-125.8-31.4v-13.2h2.5v13.2H-125.8z M-108.9-33.8c0,1.1,0.1,1.8,0.2,2.2v0.2h-2.3l-0.2-1c-0.7,0.8-1.8,1.1-2.8,1.1
			c-1.4,0-2.7-0.6-2.7-2.5c0-1.8,1.4-2.4,3.2-2.9l1.5-0.3c0.6-0.1,0.8-0.4,0.8-0.7c0-0.9-0.8-1.1-1.5-1.1c-0.9,0-1.6,0.4-1.7,1.3
			l-2.2-0.4c0.4-1.8,1.7-2.7,4.1-2.7c1.8,0,3.7,0.5,3.7,3.2L-108.9-33.8L-108.9-33.8z M-113.2-32.9c1.2,0,2.1-0.8,2.1-2.5l-2.1,0.6
			c-0.7,0.2-1.2,0.4-1.2,1C-114.4-33.2-113.9-32.9-113.2-32.9L-113.2-32.9z M-96.6-40.4c2.3,0,4.2,1.7,4.2,4.6s-1.9,4.6-4.2,4.6
			c-1.2,0-2.3-0.5-2.8-1.4l-0.1,1.2h-2.3v-13.2h2.5v5.4C-98.8-40-97.8-40.4-96.6-40.4L-96.6-40.4z M-97.2-33.3c1.3,0,2.3-1,2.3-2.5
			c0-1.6-1-2.6-2.3-2.6c-1.3,0-2.3,1-2.3,2.6S-98.5-33.3-97.2-33.3z M-81.8-31.3c-2.8,0-4.8-1.7-4.8-4.6c0-2.9,2-4.6,4.8-4.6
			c2.8,0,4.8,1.7,4.8,4.6C-76.9-33-78.9-31.3-81.8-31.3z M-81.8-33.2c1.4,0,2.4-1,2.4-2.6s-1-2.6-2.4-2.6c-1.4,0-2.4,1-2.4,2.6
			S-83.2-33.2-81.8-33.2z M-68.1-38.8c0.4-0.8,1.6-1.5,2.9-1.5v2.2c-1.9,0-2.8,0.5-2.8,2.4v4.3h-2.5v-8.8h2.4L-68.1-38.8L-68.1-38.8
			z M-51.8-33.8c0,1.1,0.1,1.8,0.2,2.2v0.2h-2.3l-0.2-1c-0.7,0.8-1.8,1.1-2.8,1.1c-1.4,0-2.7-0.6-2.7-2.5c0-1.8,1.4-2.4,3.2-2.9
			l1.5-0.3c0.6-0.1,0.8-0.4,0.8-0.7c0-0.9-0.8-1.1-1.5-1.1c-0.9,0-1.6,0.4-1.7,1.3l-2.2-0.4c0.4-1.8,1.7-2.7,4.1-2.7
			c1.8,0,3.7,0.5,3.7,3.2L-51.8-33.8L-51.8-33.8z M-56.2-32.9c1.2,0,2.1-0.8,2.1-2.5l-2.1,0.6c-0.7,0.2-1.2,0.4-1.2,1
			C-57.4-33.2-56.8-32.9-56.2-32.9L-56.2-32.9z M-41.5-31.4c-1.7,0-2.7-1-2.7-2.8v-4.2h-1.7v-1.9h0.6c0.9,0,1.5-0.4,1.5-1.7v-1.2
			h2.2v2.9h1.8v1.9h-1.8v3.9c0,0.8,0.4,1.1,1,1.1h0.8v1.9H-41.5L-41.5-31.4z M-32-41.6c-0.8,0-1.4-0.6-1.4-1.4
			c0-0.8,0.7-1.4,1.4-1.4c0.8,0,1.4,0.6,1.4,1.4C-30.6-42.2-31.3-41.6-32-41.6z M-33.3-31.4v-8.8h2.5v8.8H-33.3z M-17.9-40.2h2.6
			l-3.8,8.8h-2.1l-3.7-8.8h2.6l2.2,6L-17.9-40.2z M-1-36l0,0.6h-6.5c0.1,1.5,1.1,2.2,2.3,2.2c0.9,0,1.6-0.4,1.9-1.2l2.3,0.3
			c-0.6,1.8-2.2,2.8-4.2,2.8c-2.9,0-4.7-1.7-4.7-4.6s1.9-4.6,4.6-4.6C-2.9-40.4-1-39.1-1-36L-1-36z M-5.3-38.7
			c-1.1,0-1.9,0.5-2.1,1.7h4.1C-3.6-38.1-4.3-38.7-5.3-38.7z M19.2-31.3c-2.7,0-4.7-1.3-5.1-3.6l2.7-0.6c0.2,1.4,1.2,2.1,2.6,2.1
			c1,0,1.9-0.5,1.9-1.5c0-1.2-1.4-1.5-2.9-2c-1.8-0.6-3.8-1.2-3.8-3.5c0-2.3,1.9-3.6,4.4-3.6c2.2,0,4.4,0.9,4.9,3.3l-2.5,0.6
			c-0.2-1.2-1.1-1.8-2.2-1.8c-1,0-1.9,0.4-1.9,1.5c0,1,1.2,1.3,2.6,1.7c1.9,0.6,4.1,1.3,4.1,3.8C23.8-32.4,21.6-31.3,19.2-31.3
			L19.2-31.3z M34.7-31.3c-2.8,0-4.8-1.7-4.8-4.6c0-2.9,2-4.6,4.8-4.6c2.8,0,4.8,1.7,4.8,4.6C39.5-33,37.5-31.3,34.7-31.3z
			 M34.6-33.2c1.4,0,2.4-1,2.4-2.6s-1-2.6-2.4-2.6c-1.4,0-2.4,1-2.4,2.6S33.3-33.2,34.6-33.2z M46-31.4v-13.2h2.5v13.2H46z
			 M61.5-40.2H64v8.8h-2.3l-0.1-1.1c-0.6,0.8-1.6,1.2-2.8,1.2c-2.1,0-3.3-1.1-3.3-3.1v-5.9H58v5.4c0,1.2,0.7,1.6,1.6,1.6
			c1,0,1.9-0.5,2-2.1L61.5-40.2L61.5-40.2z M74.5-31.4c-1.7,0-2.7-1-2.7-2.8v-4.2h-1.7v-1.9h0.6c0.9,0,1.5-0.4,1.5-1.7v-1.2h2.2v2.9
			h1.8v1.9h-1.8v3.9c0,0.8,0.4,1.1,1,1.1h0.8v1.9H74.5L74.5-31.4z M84-41.6c-0.8,0-1.4-0.6-1.4-1.4c0-0.8,0.7-1.4,1.4-1.4
			c0.8,0,1.4,0.6,1.4,1.4C85.4-42.2,84.7-41.6,84-41.6z M82.7-31.4v-8.8h2.5v8.8H82.7z M96.5-31.3c-2.8,0-4.8-1.7-4.8-4.6
			c0-2.9,2-4.6,4.8-4.6c2.8,0,4.8,1.7,4.8,4.6C101.4-33,99.4-31.3,96.5-31.3z M96.5-33.2c1.4,0,2.4-1,2.4-2.6s-1-2.6-2.4-2.6
			c-1.4,0-2.4,1-2.4,2.6S95.1-33.2,96.5-33.2z M113.1-40.4c2.1,0,3.3,1.1,3.3,3.1v5.9h-2.5v-5.4c0-1.2-0.7-1.6-1.6-1.6
			c-1,0-1.9,0.5-2,2.1v4.9h-2.5v-8.8h2.5v1C110.9-40,111.9-40.4,113.1-40.4L113.1-40.4z M126.5-31.3c-2,0-3.5-0.8-3.8-2.5l2.1-0.6
			c0.3,0.9,0.9,1.3,1.8,1.3c0.6,0,1.3-0.2,1.3-0.9c0-0.9-1.4-1-2.8-1.5c-1.1-0.4-2.1-0.9-2.1-2.4c0-1.8,1.5-2.6,3.5-2.6
			c1.7,0,3.2,0.7,3.5,2.3l-1.9,0.4c-0.3-0.8-0.8-1.1-1.6-1.1c-0.7,0-1.2,0.2-1.2,0.8c0,0.7,1,0.8,2.1,1.1c1.4,0.4,2.9,1,2.9,2.9
			C130.1-32,128.4-31.3,126.5-31.3L126.5-31.3z"/>
	</g>
</g>
</svg>
