<?xml version="1.0" encoding="utf-8"?>
<!-- Generator: Adobe Illustrator 23.0.1, SVG Export Plug-In . SVG Version: 6.00 Build 0)  -->
<svg version="1.1" xmlns="http://www.w3.org/2000/svg" xmlns:xlink="http://www.w3.org/1999/xlink" x="0px" y="0px"
	 viewBox="0 0 384.1 384.1" style="enable-background:new 0 0 384.1 384.1;" xml:space="preserve">
<style type="text/css">
	.st0{fill:#FFFFFF;}
	.st1{fill:#D8B288;}
	.st2{fill:#C079FB;}
	.st3{fill:#FDFFFC;}
	.st4{fill:#22252C;}
	.st5{fill:#29477C;}
	.st6{fill:#385D93;}
	.st7{fill:#1A3263;}
	.st8{fill:#0D1B35;}
	.st9{fill:#AD2727;}
	.st10{fill:#B78B5F;}
	.st11{opacity:0.95;fill:#22252C;}
	.st12{clip-path:url(#SVGID_2_);}
	.st13{fill:#F7D4AA;}
	.st14{fill:#D1A371;}
	.st15{fill:#8E4136;}
	.st16{fill:#C16B5B;}
	.st17{opacity:0.95;fill:#FDFFFC;}
	.st18{fill:#F8A8FF;}
	.st19{fill:#821919;}
</style>
<g id="BACKGROUND">
</g>
<g id="OBJECTS">
	<circle class="st0" cx="192" cy="192" r="192"/>
	<g>
		<g>
			<g>
				<g>
					<g>
						<path class="st1" d="M257.9,208.8c-2.7,0.6-4.4,3-5.6,6.3c0,0-3.2,14.5-1.9,15.5c1.8,1.4,4.5-9.4,4.5-9.4s1.7,11.1,3.5,10.9
							c1.8-0.2-0.1-10.7-0.1-10.7s2.7,8.3,4,7.8c1.3-0.6-0.7-9.4-0.7-9.4s3,7.5,4.2,7c1.5-0.7-1.6-15.5-1.6-15.5L257.9,208.8z"/>
						<g>
							
								<rect x="237.8" y="208.5" transform="matrix(-0.1196 -0.9928 0.9928 -0.1196 54.6567 512.395)" class="st2" width="33.5" height="46.9"/>
							
								<rect x="240.8" y="212.8" transform="matrix(-0.1196 -0.9928 0.9928 -0.1196 54.6568 512.3951)" class="st3" width="27.4" height="38.3"/>
							
								<rect x="224" y="233.3" transform="matrix(-0.1196 -0.9928 0.9928 -0.1196 31.0852 496.0736)" class="st4" width="23.1" height="2"/>
						</g>
						<path class="st1" d="M255.8,209.8c0,0-8.2,6.6-7.5,9c0.7,2.4,9.5-6.2,9.5-6.2L255.8,209.8z"/>
					</g>
					<path class="st1" d="M278.9,103.3c0,0-23.3,27.4-24.4,107.9h9.5c0,0,1.8-49.3,17.8-79.3L278.9,103.3z"/>
				</g>
				<g>
					<path class="st5" d="M285.7,95.3c0,0-19.1,14.9-26.8,60.7l13.4,4.1c0,0,4.6-20.2,11.7-28.6L285.7,95.3z"/>
					<polygon class="st6" points="271.9,162.3 273.1,157.9 258.5,152 257.9,158.4 					"/>
				</g>
			</g>
			<g>
				<g>
					<g>
						<path class="st7" d="M333.4,193.3c3.4,112,11.1,174.1,11.1,174.1c-4.3,2.7-8.6,2.9-12.8,0.3c-12.9-59.9-27.1-147.1-28.2-147.1
							l1.4-26.9L333.4,193.3z"/>
						<path class="st8" d="M331.7,367.7c-8.6,6.3-23.2,4.3-23,12.1c19,2,28.6-2.6,28.6-2.6l0,2.5l6.6-0.8c0,0,2.6-6.4,0.8-11.6
							L331.7,367.7z"/>
					</g>
					<g>
						<path class="st8" d="M280.8,368.6c-8.6,6.3-23.2,4.3-23,12.1c19,2,28.6-2.6,28.6-2.6l0,2.5l6.6-0.8c0,0,2.6-6.4,0.8-11.6
							L280.8,368.6z"/>
						<path class="st7" d="M278,194.2l26.9-0.4c0.5,8.7,0.1,17.6-1.4,26.9c0,0-10.5,41.7-11.9,62.3c0.6,23.6,2.2,85.3,2.2,85.3
							c-4.3,2.7-8.6,2.9-12.8,0.3c-3.2-32.4-11.1-62.3-11.6-87.2C268.1,232.9,278,194.2,278,194.2z"/>
					</g>
				</g>
				<g>
					<path class="st8" d="M303.9,200.2c0-0.6-1-0.6-1,0c-0.2,6-0.1,12,0.2,18c0,0.6,1,0.6,1,0C303.7,212.1,303.7,206.2,303.9,200.2z
						"/>
					<path class="st8" d="M303.4,216.2c-1.4,0-2.1-1.5-2.4-2.7c-0.3-1.5-0.5-3-0.6-4.5c-0.2-3-0.2-6.1-0.2-9.1c0-0.6-1-0.6-1,0
						c-0.1,3.5-0.1,7.1,0.3,10.6c0.3,2.4,0.5,6.6,3.8,6.7C304.1,217.2,304.1,216.2,303.4,216.2z"/>
				</g>
			</g>
			<g>
				<g>
					<path class="st9" d="M298.8,91l-13.1,4.3c0,0-6.7,56.3-10,99.7c41.3,8.7,59-0.1,59-0.1c-2.5-51.1-10-99.6-10-99.6l-13-4.3
						H298.8z"/>
					<g>
						<g>
							<path class="st5" d="M298.8,91c-4.2,0.4-8.6,2-13.1,4.3c0,0-11.3,93.9-10.9,108c0,0,6.2,2.8,20.4,5.1
								C294.7,166.6,295.3,117.2,298.8,91z"/>
							<path class="st6" d="M298.8,91c0,0-1.9,29.9-3.2,47c0,0-6.3-28.5-6.3-37.9C289.3,100,295.7,96.2,298.8,91z"/>
							<path class="st7" d="M289.9,188.1c-2.6,4.4-6.4,8.1-10.8,10.7c-0.6,0.3-0.1,1.2,0.5,0.9c4.6-2.7,8.4-6.5,11.2-11.1
								C291.1,188.1,290.3,187.6,289.9,188.1z"/>
						</g>
						<g>
							<path class="st5" d="M311.7,91c4.6,0.8,9,2.2,13.1,4.3c0,0,11.9,85.4,9.7,106.4c0,0-5.2,3.6-19.4,5.9
								C315.6,165.9,315.2,117.2,311.7,91z"/>
							<path class="st6" d="M311.7,91c0,0,1.9,29.9,3.2,47c0,0,6.3-28.5,6.3-37.9C321.2,100,314.8,96.2,311.7,91z"/>
							<path class="st7" d="M318.9,188.1c2.6,4.4,6.4,8.1,10.8,10.7c0.6,0.3,0.1,1.2-0.5,0.9c-4.6-2.7-8.4-6.5-11.2-11.1
								C317.7,188.1,318.6,187.6,318.9,188.1z"/>
						</g>
					</g>
				</g>
				<g>
					<g>
						<g>
							<path class="st1" d="M327.8,100l2,35.7c5,6.9,13,17.5,16.6,25.9l-12.7,41.6l7.9,4.3c0,0,17.8-38.8,18.2-48.8
								C360.5,144.8,327.8,100,327.8,100z"/>
						</g>
						<path class="st1" d="M333.8,203c0,0-2.7,12.8,4.4,13.9c7.1,1.1,11.4-2.3,10.8-5.4c-0.5-3.1-2-0.4-2.3,0
							c-0.4,0.4,0-6.6-1.6-8.6S335.2,201.6,333.8,203z"/>
					</g>
					<g>
						<path class="st5" d="M324.9,95.3c0,0,25.7,32.3,35,59.7l-14.6,6.1c0,0-10.2-20-18.8-25.4L324.9,95.3z"/>
						<polygon class="st6" points="345.1,162.6 343.4,158.4 359.1,149.2 360.7,155.5 						"/>
					</g>
				</g>
			</g>
		</g>
		<g>
			<path class="st8" d="M321.8,60.8c-1.8,5.2-4.3,10.3-7.4,14.8c-1.1,1.6-2.5,3.6-4.7,3.6c-2.4,0-3.7-2-4.8-3.8
				c-5-8.2-15.5-10.7-20.6-18.9c-2.4-3.8-4.3-9.2-3.1-13.5c0.9-3.3,3.5-5.9,6.5-7.4c3-1.6,6.4-2.2,9.8-2.4
				c5.2-0.5,10.5-0.2,15.5,1.5c1.5,0.5,3.1,1.2,4,2.5c1,1.3,1.2,3.2,0.1,4.4c1.7-1.2,4.3-0.2,5.6,1.4c1.3,1.6,1.6,3.8,1.6,5.9
				C324.4,52.6,323.1,57.1,321.8,60.8z"/>
			<path class="st1" d="M313.4,46.6c-5.8-10.7-26.3-7-27.9,1.5c-3.3,17.5-0.8,24.6,4.1,28.8c5.6,4.8,9.3,4.2,9.3,14.2
				c1.1,2.7,3.8,9.7,6.4,9.8c2.6,0.1,5.2-6.7,6.5-9.8c-0.2-13.3,4.4-23.4,4.4-23.4S315.8,51,313.4,46.6z"/>
			<path class="st8" d="M311.2,48.9c-3.5,5.1-10.6,3.9-10.6,3.9l4.1-3.5c0,0-10.1,6-20.6,3.9c0,0-1.5-3.8,3.2-10.2
				c3-4.1,11.7-5.1,19.2-3.7c7.4,1.4,10.7,4.6,10.9,10c0.2,5.3,0.8,12,0.8,12l-2.9,2.2C310.8,60.4,311.2,48.9,311.2,48.9z"/>
			<g>
				<g>
					<path class="st8" d="M300.9,63c0,0.7-0.6,1.3-1.3,1.3c-0.7,0-1.3-0.6-1.3-1.3c0-0.7,0.6-1.3,1.3-1.3
						C300.3,61.7,300.9,62.3,300.9,63z"/>
					<path class="st0" d="M299.5,62.7c0,0.3-0.2,0.5-0.5,0.5c-0.3,0-0.5-0.2-0.5-0.5c0-0.3,0.2-0.5,0.5-0.5
						C299.3,62.2,299.5,62.4,299.5,62.7z"/>
				</g>
				<g>
					<path class="st8" d="M290.7,63c0,0.7-0.6,1.3-1.3,1.3c-0.7,0-1.3-0.6-1.3-1.3c0-0.7,0.6-1.3,1.3-1.3
						C290.1,61.7,290.7,62.3,290.7,63z"/>
					<path class="st0" d="M289.4,62.7c0,0.3-0.2,0.5-0.5,0.5c-0.3,0-0.5-0.2-0.5-0.5c0-0.3,0.2-0.5,0.5-0.5
						C289.2,62.2,289.4,62.4,289.4,62.7z"/>
				</g>
				<path class="st8" d="M291.6,57.9c-1.7-1.1-3.8-1.1-5.4,0.3c-0.3,0.3-0.3,0.8-0.1,1.1c0.2,0.3,0.7,0.4,0.9,0.1
					c0.6-0.6,1.5-0.8,2.2-0.7c0.4,0,0.8,0.1,1.2,0.3c0.3,0.2,0.6,0.4,1,0.2c0.1-0.1,0.2-0.1,0.2-0.2
					C291.9,58.7,291.9,58.1,291.6,57.9z"/>
				<path class="st8" d="M296.7,57.9c1.9-1.1,4.4-1.1,6.1,0.3c0.3,0.3,0.4,0.8,0.1,1.1c-0.3,0.3-0.8,0.4-1.1,0.1
					c-0.7-0.6-1.7-0.8-2.6-0.7c-0.5,0-0.9,0.1-1.3,0.3c-0.4,0.2-0.7,0.4-1.2,0.2c-0.1-0.1-0.2-0.1-0.3-0.2
					C296.3,58.7,296.3,58.1,296.7,57.9z"/>
				<path class="st10" d="M294,70.5c-0.7,0-1.5-0.2-2.2-0.5c-0.3-0.2-0.5-0.6-0.3-0.9c0.2-0.3,0.6-0.5,0.9-0.3
					c1.7,0.9,3.7,0,4.2-0.8c0.2-0.3,0.7-0.4,1-0.1c0.3,0.2,0.4,0.7,0.1,1C297.1,69.7,295.6,70.5,294,70.5z"/>
				<path class="st10" d="M292.3,66.6c-0.1,0-0.1,0-0.2-0.1c-0.3-1.1,0.1-1.5,0.4-1.6c0.4-0.1,0.8,0,1.4,0.3c0.1,0,0.1,0.2,0.1,0.2
					c-0.1,0.1-0.2,0.1-0.2,0.1c-0.4-0.3-0.8-0.4-1.1-0.3c-0.3,0.1-0.4,0.5-0.2,1.2C292.5,66.5,292.5,66.5,292.3,66.6
					C292.4,66.6,292.3,66.6,292.3,66.6z"/>
			</g>
			<g>
				<path class="st1" d="M320.6,68c-1.8,2.1-4.5,2.7-6.2,1.3c-1.7-1.4-1.6-4.2,0.2-6.3c1.8-2.1,4.5-2.7,6.2-1.3
					C322.4,63.1,322.4,65.9,320.6,68z"/>
				<path class="st10" d="M319.6,62.7c-0.7-0.4-1.7-0.4-2.7,0.1c-0.5,0.2-0.8,0.5-1,0.8c-0.3,0.4-0.4,1-0.2,1.4
					c0.1,0.4,0.5,0.6,0.7,0.9c0.2,0.2,0.4,0.3,0.5,0.5c0.2,0.3,0.1,0.7-0.1,0.9c-0.2,0.2-0.6,0.3-0.9,0.2c-0.2-0.1-0.4,0-0.5,0.2
					c-0.1,0.2,0,0.4,0.2,0.5c0.2,0.1,0.4,0.1,0.6,0.1c0.4,0,0.8-0.2,1.1-0.5c0.4-0.5,0.5-1.2,0.2-1.7c-0.2-0.3-0.4-0.5-0.7-0.7
					c-0.2-0.2-0.4-0.4-0.5-0.6c-0.1-0.2,0-0.5,0.1-0.7c0.1-0.1,0.2-0.2,0.3-0.3c0.3,0,0.8,0.1,1,0.3c0.2,0.3,0.4,0.7,0.3,1
					c0,0.2,0.1,0.4,0.3,0.4c0,0,0,0,0.1,0c0.2,0,0.3-0.1,0.3-0.3c0.1-0.6-0.1-1.2-0.5-1.6c-0.1-0.2-0.3-0.3-0.5-0.4
					c0.6-0.2,1.1-0.1,1.6,0.1c0.5,0.3,0.9,1,0.7,1.6c-0.1,0.2,0,0.4,0.2,0.5c0.2,0.1,0.4,0,0.5-0.2C321,64.3,320.6,63.2,319.6,62.7z
					"/>
			</g>
		</g>
	</g>
	<g>
		<g>
			<g>
				<g>
					<rect x="2.5" y="2.8" class="st5" width="244.4" height="201"/>
					<g>
						<circle class="st0" cx="218.3" cy="12.3" r="2.3"/>
						<circle class="st0" cx="225.3" cy="12.3" r="2.3"/>
						<circle class="st0" cx="232.4" cy="12.3" r="2.3"/>
					</g>
				</g>
				<rect x="8.5" y="20.1" class="st11" width="232.5" height="178.9"/>
				<ellipse class="st0" cx="124.7" cy="108.1" rx="102.9" ry="71.2"/>
			</g>
			<g>
				<defs>
					<rect id="SVGID_1_" x="8.5" y="7.7" width="232.5" height="191.2"/>
				</defs>
				<clipPath id="SVGID_2_">
					<use xlink:href="#SVGID_1_"  style="overflow:visible;"/>
				</clipPath>
				<g class="st12">
					<path class="st8" d="M105.2,52.5c-2.9,3.5-3.8,8.2-4.1,12.7c-0.3,4.5-0.1,9-1.3,13.3c-0.8,2.8-2.1,5.4-3.1,8.1
						c-1,2.7-1.5,5.7-0.7,8.4c1.4,4.5,6.3,6.7,10.9,7.8c11.4,2.8,23.6,1.8,35-2.1c2.2-0.8,4.5-1.7,5.9-3.6c1.4-2,1.5-4.6,1.2-7
						c-0.6-4.2-2.5-8.1-2.9-12.4c-0.7-8.1,4.3-16.7,1.9-24.4c-1.6-5.1-6.2-8.6-11.3-10.1c-5.1-1.5-10.6-1.1-15.9-0.4
						c-2.2,0.3-4.4,0.7-6.3,1.9c-2,1.2-3.1,3.1-3.3,5.3C108.6,49.8,106.8,50.6,105.2,52.5z"/>
					<g>
						<g>
							<path class="st13" d="M167.7,133.9c0,0,10.3-20,12.5-29.5l7.5,0.4c0,0-8.4,42.9-17.3,45.3c-7,1.9-26.1-23.4-26.1-23.4
								l-6.6-23.9C137.7,102.7,151.6,113.4,167.7,133.9z"/>
							<path class="st13" d="M185.7,110.2c0,0,11.7-5.4,8.4-11.6c-3.3-6.2-8.5-7.6-10.6-5.3c-2.2,2.3,0.8,1.8,1.4,1.8
								c0.5,0-5.2,3.9-5.8,6.3S183.8,109.9,185.7,110.2z"/>
						</g>
						<g>
							<path class="st2" d="M91.8,202.7c24.9,6.5,44.6,3.8,62.4-2.2c-0.9-9.9-4.3-14.6-7.4-24c-0.8-2.5-1.3-5.1-1.5-7.7
								c-0.6-7.5,1.2-15.1,3-22c2.8-10.5,2.8-15.1,0-25.6c-1.6-6.1-10.6-18.4-10.6-18.4c-0.5-0.3-1.1-0.6-1.6-0.9
								c-0.4-0.2-0.8-0.4-1.3-0.6c-1.2-0.6-2.5-1-3.8-1.4c-5.2-1.4-11.1-1.5-16-0.3c-0.4,0.1-0.7,0.2-1.1,0.3
								c-0.9,0.2-1.7,0.4-2.5,0.6c-1.3,0.4-2.7,0.7-4,1.3c-1.1,0.5-2.1,1.1-3.2,2.1c-3.4,3.1-4.4,11-4.8,15.5
								c-1.6,18.5,2,28.9-0.3,47.4c-0.2,1.7-0.5,3.3-0.9,4.9C96.1,180.7,91.8,188.7,91.8,202.7z"/>
							<g>
								<path class="st11" d="M116.5,99.1c0,0,1.8,12.1,9.4,21.8c0.7-0.7,4.4-13.2,3.5-21.5L116.5,99.1z"/>
								<path class="st2" d="M116.5,99.1c0,0,4.1,15.4,9.4,21.8c0,0-9.4-6.3-14-14.7L116.5,99.1z"/>
								<path class="st2" d="M129.4,99.4c0.2,0.3-2,18.1-3.5,21.5c0,0,6.1-6.8,9.5-15.2L129.4,99.4z"/>
							</g>
						</g>
						<g>
							<path class="st13" d="M75.9,133.7c0,0-10.3-20-12.5-29.5l-7.5,0.4c0,0,8.4,42.9,17.3,45.3c4.3,1.1,15.3-10.5,23.2-19.7
								c5.7-6.6,8.8-15,8.8-23.7V103C105.1,103,92,113.2,75.9,133.7z"/>
							<path class="st13" d="M57.5,110.2c0,0-11.7-5.4-8.4-11.6c3.3-6.2,8.5-7.6,10.6-5.3c2.2,2.3-0.8,1.8-1.4,1.8
								c-0.5,0,5.2,3.9,5.8,6.3C64.7,103.8,59.4,109.9,57.5,110.2z"/>
						</g>
					</g>
					<g>
						<path class="st13" d="M114.8,54.7c5.8-10.7,26.3-7,27.9,1.5c3.3,17.5,0.8,24.6-4.1,28.8c-5.6,4.8-9.3,4.4-9.3,14.5
							c-2.1,5.3-10.3,5.8-12.9-0.3c0.2-13.3-4.4-23.4-4.4-23.4S112.4,59.1,114.8,54.7z"/>
						<path class="st8" d="M144,57.2c-0.4-1.6-1.3-3.6-3.1-6c-3-4.1-11.7-5.1-19.2-3.7c-7.4,1.4-10.7,4.6-10.9,10
							c-0.2,5.3-0.8,12-0.8,12l2.9,2.2c4.5-3,4.1-14.5,4.1-14.5c1,1.2,1.6,2.8,1.9,4.3c8.4,0.7,16.9,0.6,25.2-0.4
							C144.2,59.9,144.2,58.3,144,57.2z"/>
						<g>
							<g>
								<path class="st8" d="M127.3,71.2c0,0.7,0.6,1.3,1.3,1.3c0.7,0,1.3-0.6,1.3-1.3c0-0.7-0.6-1.3-1.3-1.3
									C127.9,69.9,127.3,70.5,127.3,71.2z"/>
								<path class="st0" d="M128.6,70.8c0,0.3,0.2,0.5,0.5,0.5c0.3,0,0.5-0.2,0.5-0.5c0-0.3-0.2-0.5-0.5-0.5
									C128.9,70.4,128.6,70.6,128.6,70.8z"/>
							</g>
							<g>
								<path class="st8" d="M137.5,71.2c0,0.7,0.6,1.3,1.3,1.3c0.7,0,1.3-0.6,1.3-1.3c0-0.7-0.6-1.3-1.3-1.3
									C138.1,69.9,137.5,70.5,137.5,71.2z"/>
								<path class="st0" d="M138.8,70.8c0,0.3,0.2,0.5,0.5,0.5c0.3,0,0.5-0.2,0.5-0.5c0-0.3-0.2-0.5-0.5-0.5
									C139,70.4,138.8,70.6,138.8,70.8z"/>
							</g>
							<path class="st8" d="M136.6,66c1.7-1.1,3.8-1.1,5.4,0.3c0.3,0.3,0.3,0.8,0.1,1.1c-0.2,0.3-0.7,0.4-0.9,0.1
								c-0.6-0.6-1.5-0.8-2.2-0.7c-0.4,0-0.8,0.1-1.2,0.3c-0.3,0.2-0.6,0.4-1,0.2c-0.1-0.1-0.2-0.1-0.2-0.2
								C136.3,66.8,136.3,66.3,136.6,66z"/>
							<path class="st8" d="M131.5,66c-1.9-1.1-4.4-1.1-6.1,0.3c-0.3,0.3-0.4,0.8-0.1,1.1c0.3,0.3,0.8,0.4,1.1,0.1
								c0.7-0.6,1.7-0.8,2.6-0.7c0.5,0,0.9,0.1,1.3,0.3c0.4,0.2,0.7,0.4,1.2,0.2c0.1-0.1,0.2-0.1,0.3-0.2
								C131.9,66.8,131.9,66.3,131.5,66z"/>
							<path class="st14" d="M135.9,74.8c0.1,0,0.1,0,0.2-0.1c0.3-1.1-0.1-1.5-0.4-1.6c-0.4-0.1-0.8,0-1.4,0.3
								c-0.1,0-0.1,0.2-0.1,0.2c0.1,0.1,0.2,0.1,0.2,0.1c0.4-0.3,0.8-0.4,1.1-0.3c0.3,0.1,0.4,0.5,0.2,1.2
								C135.7,74.6,135.7,74.7,135.9,74.8C135.8,74.8,135.8,74.8,135.9,74.8z"/>
							<g>
								<path class="st15" d="M130.6,76.2c0.5-0.7,1.6,0.2,3,0.4c1.4,0.2,2.7-0.2,3,0.6c0.4,1-1.2,3.1-3.5,2.7
									C130.8,79.5,130,77,130.6,76.2z"/>
								<path class="st16" d="M130.6,77.7c0.4,0,0.9,0,1.4,0.1c1.6,0.3,3,0.8,3.6,1.4c-0.6,0.5-1.4,0.7-2.4,0.6
									C131.7,79.6,130.9,78.6,130.6,77.7z"/>
								<path class="st0" d="M133.5,77.4c-1.3-0.2-2.3-0.7-2.6-1.4c0.6-0.1,1.5,0.4,2.7,0.6c1.1,0.2,2.2-0.1,2.7,0.2
									C135.9,77.4,134.8,77.5,133.5,77.4z"/>
							</g>
						</g>
						<g>
							<path class="st13" d="M107.6,76.2c1.8,2.1,4.5,2.7,6.2,1.3c1.7-1.4,1.6-4.2-0.2-6.3c-1.8-2.1-4.5-2.7-6.2-1.3
								C105.7,71.2,105.8,74.1,107.6,76.2z"/>
							<path class="st14" d="M108.6,70.9c0.7-0.4,1.7-0.4,2.7,0.1c0.5,0.2,0.8,0.5,1,0.8c0.3,0.4,0.4,1,0.2,1.4
								c-0.1,0.4-0.5,0.6-0.7,0.9c-0.2,0.2-0.4,0.3-0.5,0.5c-0.2,0.3-0.1,0.7,0.1,0.9c0.2,0.2,0.6,0.3,0.9,0.2
								c0.2-0.1,0.4,0,0.5,0.2c0.1,0.2,0,0.4-0.2,0.5c-0.2,0.1-0.4,0.1-0.6,0.1c-0.4,0-0.8-0.2-1.1-0.5c-0.4-0.5-0.5-1.2-0.2-1.7
								c0.2-0.3,0.4-0.5,0.7-0.7c0.2-0.2,0.4-0.4,0.5-0.6c0.1-0.2,0-0.5-0.1-0.7c-0.1-0.1-0.2-0.2-0.3-0.3c-0.3,0-0.8,0.1-1,0.3
								c-0.2,0.3-0.4,0.7-0.3,1c0,0.2-0.1,0.4-0.3,0.4c0,0,0,0-0.1,0c-0.2,0-0.3-0.1-0.3-0.3c-0.1-0.6,0.1-1.2,0.5-1.6
								c0.1-0.2,0.3-0.3,0.5-0.4c-0.6-0.2-1.1-0.1-1.6,0.1c-0.5,0.3-0.9,1-0.7,1.6c0.1,0.2,0,0.4-0.2,0.5c-0.2,0.1-0.4,0-0.5-0.2
								C107.2,72.5,107.6,71.4,108.6,70.9z"/>
						</g>
					</g>
				</g>
			</g>
		</g>
		<g>
			<rect x="201.2" y="31.8" class="st2" width="57.7" height="71.5"/>
			<g>
				<path class="st17" d="M233.8,41.6h-24.4c-0.8,0-1.4-0.6-1.4-1.4l0,0c0-0.8,0.6-1.4,1.4-1.4h24.4c0.8,0,1.4,0.6,1.4,1.4l0,0
					C235.2,40.9,234.6,41.6,233.8,41.6z"/>
				<path class="st17" d="M250.8,50.3h-41.4c-0.8,0-1.4-0.6-1.4-1.4l0,0c0-0.8,0.6-1.4,1.4-1.4h41.4c0.8,0,1.4,0.6,1.4,1.4l0,0
					C252.2,49.6,251.6,50.3,250.8,50.3z"/>
				<path class="st17" d="M250.8,57.6h-41.4c-0.8,0-1.4-0.6-1.4-1.4l0,0c0-0.8,0.6-1.4,1.4-1.4h41.4c0.8,0,1.4,0.6,1.4,1.4l0,0
					C252.2,56.9,251.6,57.6,250.8,57.6z"/>
				<path class="st17" d="M250.8,64.8h-41.4c-0.8,0-1.4-0.6-1.4-1.4l0,0c0-0.8,0.6-1.4,1.4-1.4h41.4c0.8,0,1.4,0.6,1.4,1.4l0,0
					C252.2,64.2,251.6,64.8,250.8,64.8z"/>
				<path class="st17" d="M250.8,72.1h-41.4c-0.8,0-1.4-0.6-1.4-1.4l0,0c0-0.8,0.6-1.4,1.4-1.4h41.4c0.8,0,1.4,0.6,1.4,1.4l0,0
					C252.2,71.4,251.6,72.1,250.8,72.1z"/>
				<path class="st17" d="M250.8,79.3h-41.4c-0.8,0-1.4-0.6-1.4-1.4l0,0c0-0.8,0.6-1.4,1.4-1.4h41.4c0.8,0,1.4,0.6,1.4,1.4l0,0
					C252.2,78.7,251.6,79.3,250.8,79.3z"/>
				<path class="st17" d="M250.8,86.6h-41.4c-0.8,0-1.4-0.6-1.4-1.4l0,0c0-0.8,0.6-1.4,1.4-1.4h41.4c0.8,0,1.4,0.6,1.4,1.4l0,0
					C252.2,86,251.6,86.6,250.8,86.6z"/>
				<path class="st17" d="M250.8,93.9h-41.4c-0.8,0-1.4-0.6-1.4-1.4l0,0c0-0.8,0.6-1.4,1.4-1.4h41.4c0.8,0,1.4,0.6,1.4,1.4l0,0
					C252.2,93.2,251.6,93.9,250.8,93.9z"/>
			</g>
		</g>
	</g>
	<g>
		<g>
			<g>
				<rect x="16.3" y="258.8" class="st2" width="216.9" height="115.1"/>
				<rect x="22.9" y="266" class="st4" width="203.6" height="100.6"/>
				<rect x="164.2" y="266" class="st18" width="62.4" height="100.6"/>
				<rect x="75.7" y="266" class="st2" width="8.5" height="100.6"/>
				<rect x="21.8" y="312.7" class="st2" width="206.3" height="7.2"/>
				<rect x="16.3" y="258.8" class="st18" width="59.5" height="115.1"/>
			</g>
			<g>
				<g>
					<g>
						<rect x="84.2" y="276.7" class="st9" width="11.1" height="36"/>
						<circle class="st8" cx="89.7" cy="282.6" r="3"/>
					</g>
					<g>
						<rect x="95.2" y="276.7" class="st5" width="11.1" height="36"/>
						<circle class="st8" cx="100.8" cy="282.6" r="3"/>
					</g>
				</g>
				<g>
					<rect x="190.1" y="276.7" class="st7" width="25.4" height="36"/>
					<g>
						<rect x="215.5" y="276.7" class="st5" width="11.1" height="36"/>
						<circle class="st8" cx="221" cy="282.6" r="3"/>
					</g>
				</g>
				<g>
					<g>
						<rect x="192" y="330.7" class="st5" width="11.1" height="36"/>
						<circle class="st8" cx="197.6" cy="336.5" r="3"/>
					</g>
					<g>
						<rect x="155.6" y="330.7" class="st19" width="25.4" height="36"/>
						<g>
							<rect x="181" y="330.7" class="st9" width="11.1" height="36"/>
							<circle class="st8" cx="186.5" cy="336.5" r="3"/>
						</g>
					</g>
				</g>
				<g>
					<g>
						<path class="st5" d="M132.7,355.6v11.1h-36c-1.3,0-1.3-11.1,0-11.1H132.7z"/>
						
							<rect x="113.1" y="345.4" transform="matrix(6.123234e-17 -1 1 6.123234e-17 -244.2122 478.0505)" class="st0" width="7.6" height="31.6"/>
					</g>
					<g>
						<path class="st9" d="M140.2,344.5v11.1h-36c-1.3,0-1.3-11.1,0-11.1H140.2z"/>
						
							<rect x="120.5" y="334.3" transform="matrix(6.123234e-17 -1 1 6.123234e-17 -225.7057 474.4485)" class="st0" width="7.6" height="31.6"/>
					</g>
				</g>
			</g>
		</g>
		<g>
			<g>
				<g>
					<path class="st5" d="M184.1,248.7v10.1H217c1.1,0,1.1-10.1,0-10.1H184.1z"/>
					
						<rect x="195" y="239.3" transform="matrix(6.123234e-17 -1 1 6.123234e-17 -55.2586 452.2803)" class="st0" width="7" height="28.9"/>
				</g>
				<g>
					<path class="st9" d="M177.3,238.6v10.1h32.9c1.1,0,1.1-10.1,0-10.1H177.3z"/>
					
						<rect x="188.2" y="229.2" transform="matrix(6.123234e-17 -1 1 6.123234e-17 -51.9651 435.3592)" class="st0" width="7" height="28.9"/>
				</g>
			</g>
			<g>
				<g>
					<g>
						<path class="st4" d="M41.4,236.9c-0.8-22.5,19.5-23.2,19.5-23.2S63.7,233.8,41.4,236.9z"/>
						<path class="st2" d="M59.6,215.2c-1.6,1.5-3,3.1-4.5,4.8c-1.5,1.6-2.9,3.3-4.3,4.9c-1.4,1.7-2.8,3.4-4.1,5.1
							c-1.3,1.7-2.7,3.5-3.9,5.3c1.6-1.5,3-3.1,4.5-4.8c1.5-1.6,2.9-3.3,4.3-4.9c1.4-1.7,2.8-3.4,4.1-5.1
							C57,218.8,58.4,217.1,59.6,215.2z"/>
					</g>
					<g>
						<path class="st2" d="M41.4,236.9c15.1-16.7,0-30.3,0-30.3S26.3,220.2,41.4,236.9z"/>
						<path class="st4" d="M41.4,208.6c0.2,2.2,0.3,4.4,0.4,6.5c0.1,2.2,0.1,4.4,0.1,6.5c0,2.2,0,4.4-0.1,6.5
							c-0.1,2.2-0.2,4.4-0.4,6.5c-0.2-2.2-0.3-4.4-0.4-6.5c-0.1-2.2-0.1-4.4-0.1-6.5c0-2.2,0-4.4,0.1-6.5
							C41.1,213,41.2,210.8,41.4,208.6z"/>
					</g>
					<g>
						<path class="st4" d="M41.4,236.9c0.8-22.5-19.5-23.2-19.5-23.2S19.2,233.8,41.4,236.9z"/>
						<path class="st2" d="M23.3,215.2c1.6,1.5,3,3.1,4.5,4.8c1.5,1.6,2.9,3.3,4.3,4.9c1.4,1.7,2.8,3.4,4.1,5.1
							c1.3,1.7,2.7,3.5,3.9,5.3c-1.6-1.5-3-3.1-4.5-4.8c-1.5-1.6-2.9-3.3-4.3-4.9c-1.4-1.7-2.8-3.4-4.1-5.1
							C25.8,218.8,24.5,217.1,23.3,215.2z"/>
					</g>
				</g>
				<path class="st2" d="M44.1,258.8h-4.3c-4.5,0-8.1-3.6-8.1-8.1v-14.7h20.5v14.7C52.2,255.2,48.5,258.8,44.1,258.8z"/>
			</g>
			<g>
				<g>
					<rect x="91.9" y="215" class="st5" width="63.6" height="41.7"/>
					<rect x="94.6" y="217.5" class="st11" width="58.1" height="39.1"/>
					<path class="st18" d="M127.2,236.2c2.6-1.3,4.4-4,4.4-7.1c0-4.4-3.6-7.9-7.9-7.9c-4.4,0-7.9,3.6-7.9,7.9c0,3.1,1.8,5.8,4.4,7.1
						c-6.3,1.6-11,7.3-11,14.1v5.1h29.1v-5.1C138.2,243.5,133.5,237.8,127.2,236.2z"/>
					<path class="st11" d="M124.3,216.3c0,0.3-0.3,0.6-0.6,0.6s-0.6-0.3-0.6-0.6s0.3-0.6,0.6-0.6S124.3,216,124.3,216.3z"/>
				</g>
				<g>
					<rect x="91.9" y="255.4" class="st5" width="81.7" height="3.4"/>
					<rect x="91.9" y="255.4" class="st7" width="35.7" height="3.4"/>
				</g>
			</g>
			<path class="st5" d="M74.3,245.2H74v-1.6c0-0.7-0.5-1.2-1.2-1.2H60.8c-0.7,0-1.2,0.5-1.2,1.2v14c0,0.7,0.5,1.2,1.2,1.2h12.1
				c0.7,0,1.2-0.5,1.2-1.2V256h0.3c3,0,5.4-2.4,5.4-5.4C79.7,247.6,77.3,245.2,74.3,245.2z M74.3,254.4H74v-7.5h0.3
				c2.1,0,3.7,1.7,3.7,3.7C78,252.7,76.3,254.4,74.3,254.4z"/>
		</g>
	</g>
</g>
</svg>
