<?xml version="1.0" encoding="utf-8"?>
<!-- Generator: Adobe Illustrator 23.0.1, SVG Export Plug-In . SVG Version: 6.00 Build 0)  -->
<svg version="1.1" xmlns="http://www.w3.org/2000/svg" xmlns:xlink="http://www.w3.org/1999/xlink" x="0px" y="0px"
	 viewBox="0 0 426.8 423.9" style="enable-background:new 0 0 426.8 423.9;" xml:space="preserve">
<style type="text/css">
	.st0{fill:#FFFFFF;}
	.st1{fill:#CDDFFA;}
	.st2{fill:#F8A8FF;}
	.st3{fill:#29477C;}
	.st4{fill:#FFE6CA;}
	.st5{fill:#0D1B35;}
	.st6{fill:#FFF4E9;}
	.st7{fill:#2B2D42;}
	.st8{fill:#FFB31A;}
	.st9{clip-path:url(#SVGID_2_);}
	.st10{fill:#1A0F24;}
	.st11{fill:#FEA384;}
	.st12{fill:#C16B5B;}
	.st13{fill:#FDFFFC;}
	.st14{fill:#C179FB;}
	.st15{fill:#385D93;}
	.st16{clip-path:url(#SVGID_4_);}
	.st17{fill:#AD2727;}
	.st18{fill:#821919;}
	.st19{opacity:0.3;fill:#385D93;}
	.st20{opacity:0.3;fill:#FFFFFF;}
</style>
<g id="BACKGROUND">
</g>
<g id="OBJECTS">
	<circle class="st0" cx="211.9" cy="211.9" r="211.9"/>
	<g>
		<path class="st1" d="M293,151.3l-1.7-2.3L206.6,33l-1.7-2.3c-3.3-4.5-9.5-5.4-14-2.2l-2.6,1.9L8.2,162.1L5.6,164
			c-0.6,0.4-1.1,0.9-1.5,1.4c-0.3,0.3-0.6,0.7-0.8,1.1c-0.8,1.2-1.4,2.5-1.6,3.9c0,0.1,0,0.2,0,0.3c-0.1,0.6-0.1,1.2-0.1,1.8
			c0,0.3,0,0.6,0.1,1c0.1,0.6,0.2,1.3,0.4,1.9c0.3,0.9,0.8,1.8,1.4,2.7l1.7,2.3l48.1,65.9l36.6,50.2c0,0,0,0,0,0l1.7,2.3
			c3.3,4.5,9.5,5.4,14,2.2l2.6-1.9l180.1-131.6l2.6-1.9C295.3,162,296.3,155.8,293,151.3z"/>
		<g>
			<path class="st2" d="M193.1,18.3l-2.6,1.9L10.4,151.8l-2.6,1.9c-4.5,3.3-5.4,9.5-2.2,14l1.7,2.3L92,286l1.7,2.3
				c3.3,4.5,9.5,5.4,14,2.2l2.6-1.9L290.4,157l2.6-1.9c4.5-3.3,5.4-9.5,2.2-14l-1.7-2.3l-84.8-116l-1.7-2.3
				C203.8,16,197.5,15,193.1,18.3z"/>
			<path class="st2" d="M288.7,154.7L106,288.2c-4.5,3.3-10.7,2.3-14-2.2L5.5,167.7c-3.3-4.5-2.3-10.7,2.2-14L190.4,20.2
				c4.5-3.3,10.7-2.3,14,2.2l86.5,118.3C294.1,145.2,293.1,151.4,288.7,154.7z"/>
			
				<ellipse transform="matrix(0.9985 -5.492797e-02 5.492797e-02 0.9985 -8.2881 8.3193)" class="st2" cx="147.2" cy="154.9" rx="25.3" ry="25.3"/>
		</g>
	</g>
	<g>
		<path class="st1" d="M388.1,203.4c2.2-3.8,0.9-8.6-2.8-10.9l-16.8-9.9c2.7-4.6-0.3-11.4-6.7-15.2c-6.4-3.8-13.8-3.1-16.6,1.5
			l-16.8-9.9c-3.8-2.2-8.6-1-10.9,2.8L278.9,139L165.1,331.7L313,419l113.8-192.7L388.1,203.4z"/>
		<g>
			
				<rect x="207.2" y="154.8" transform="matrix(0.8611 0.5085 -0.5085 0.8611 176.3365 -111.9608)" class="st3" width="171.7" height="223.8"/>
			
				<rect x="220.3" y="168.9" transform="matrix(0.8611 0.5085 -0.5085 0.8611 176.3365 -111.9607)" class="st4" width="145.6" height="195.6"/>
			<g>
				<path class="st5" d="M377.5,204.3L307,162.6l7.7-13c2.2-3.8,7.1-5,10.9-2.8l56.9,33.6c3.8,2.2,5,7.1,2.8,10.9L377.5,204.3z"/>
				
					<ellipse transform="matrix(0.5085 -0.8611 0.8611 0.5085 33.1647 385.1799)" class="st5" cx="354" cy="163.5" rx="9.7" ry="13.5"/>
			</g>
		</g>
	</g>
	<g>
		<g>
			<path class="st1" d="M301.4,16.4l-3.3-5.5c-1-1.6-3-2.1-4.6-1.2l-3.7,2.2c-1.6,1-2.1,3-1.2,4.6l3.3,5.5L301.4,16.4z"/>
			<path class="st1" d="M303.4,21.9l0.8-0.5c0.3-0.2,0.3-0.5,0.2-0.8l-2.4-4c-0.2-0.3-0.5-0.3-0.8-0.2l-9.1,5.5
				c-0.3,0.2-0.3,0.5-0.2,0.8l2.4,4c0.2,0.3,0.5,0.3,0.8,0.2L303.4,21.9z"/>
			<path class="st1" d="M387.5,166.3l-3.8-12.7c0,0,0,0,0,0l0,0L304.4,21.3l-8.5,5.1l-0.9,0.6l79.3,132.3l0,0c0,0,0,0,0,0l9.6,9.6
				l6.5,6.5L387.5,166.3z M377.4,157.4C377.4,157.4,377.4,157.4,377.4,157.4L377.4,157.4C377.4,157.4,377.4,157.4,377.4,157.4z
				 M380.5,155.5C380.5,155.5,380.5,155.5,380.5,155.5L380.5,155.5C380.5,155.5,380.5,155.5,380.5,155.5z"/>
		</g>
		<g>
			
				<rect x="336.5" y="10.2" transform="matrix(-0.8694 0.4941 -0.4941 -0.8694 682.5027 -5.7892)" class="st2" width="11.1" height="154.2"/>
			<path class="st6" d="M296.5,17.9l9.2-5.2c0.3-0.2,0.6-0.1,0.8,0.2l2.3,4c0.2,0.3,0.1,0.6-0.2,0.8l-9.2,5.2
				c-0.3,0.2-0.6,0.1-0.8-0.2l-2.3-4C296.1,18.4,296.2,18.1,296.5,17.9z"/>
			<path class="st7" d="M294.4,7.9l3.8-2.2c1.6-0.9,3.7-0.4,4.6,1.3l3.2,5.6l-9.6,5.5l-3.2-5.6C292.2,10.8,292.7,8.8,294.4,7.9z"/>
			
				<rect x="344.2" y="8.5" transform="matrix(-0.8694 0.4942 -0.4942 -0.8694 687.5019 -10.3673)" class="st8" width="1.8" height="154.5"/>
			
				<rect x="341.2" y="10.2" transform="matrix(-0.8694 0.4942 -0.4942 -0.8694 682.6638 -5.6275)" class="st8" width="1.8" height="154.5"/>
			
				<rect x="338.1" y="11.9" transform="matrix(-0.8694 0.4942 -0.4942 -0.8694 677.824 -0.8947)" class="st8" width="1.8" height="154.5"/>
			<path class="st6" d="M375.3,157.1c0.8-0.5,0.3-1.4,1.1-1.9c0.8-0.5,1.3,0.5,2.2,0c0.8-0.5,0.3-1.4,1.1-1.9
				c0.8-0.5,1.3,0.5,2.1,0.1c0.8-0.5,0.3-1.4,1.1-1.9c0.8-0.5,1.3,0.5,2.1,0.1l3.5,12.8l2.5,9.1l-6.3-6.6L375.3,157.1z"/>
			<path class="st5" d="M384.7,166.9c0.5-0.7,1.1-1.4,1.8-1.8c0.6-0.4,1.3-0.6,2-0.7l2.5,9.1L384.7,166.9z"/>
		</g>
	</g>
	<g>
		
			<rect x="177.9" y="126.6" transform="matrix(0.3079 -0.9514 0.9514 0.3079 1.1267 399.0088)" class="st6" width="193.9" height="144.3"/>
		<g>
			
				<rect x="199" y="93.4" transform="matrix(0.9514 0.3079 -0.3079 0.9514 71.7681 -74.2402)" class="st6" width="144.3" height="193.9"/>
			<g>
				<g>
					
						<rect x="230" y="92.8" transform="matrix(0.9514 0.3079 -0.3079 0.9514 48.013 -70.8593)" class="st7" width="37.1" height="47.9"/>
					<g>
						<defs>
							
								<rect id="SVGID_1_" x="230" y="92.8" transform="matrix(0.9514 0.3079 -0.3079 0.9514 48.013 -70.8593)" width="37.1" height="47.9"/>
						</defs>
						<clipPath id="SVGID_2_">
							<use xlink:href="#SVGID_1_"  style="overflow:visible;"/>
						</clipPath>
						<g class="st9">
							<path class="st10" d="M249.5,97.5c-3,0.6-5.7,2.4-7.3,5c-2.1,3.5-2.1,8.2-4.6,11.5c-1,1.3-2.4,2.4-3.8,3.4
								c-1.4,1-2.7,2.2-3.5,3.6c-0.8,1.5-1.1,3.4-0.3,4.9c0.8,1.4,2.2,2.2,3.7,2.8c4.8,2.3,9.9,3.8,15.1,4.5
								c1.9,0.3,3.8,0.4,5.6-0.2c2.4-0.8,4.1-2.9,4.9-5.2c0.9-2.3,1-4.8,1.1-7.2c0.1-2.4,0.1-4.9,0.8-7.3c0.4-1.5,1-3,1.6-4.5
								c0.5-1.3,1.1-2.6,1.2-4c0.1-1.3-0.2-2.6-0.9-3.7c-0.7-1-1.8-1.7-3-2.1c-1-0.3-2-0.3-3-0.5c-0.7-0.1-1.3-0.5-2-0.7
								C253.3,97.3,251.4,97.1,249.5,97.5z"/>
							<g>
								<g>
									<path class="st8" d="M253.5,129.8c4.1,3,2.2,16.4,2.2,16.4s-3.3,2.1-8.6,0.4L253.5,129.8z"/>
								</g>
								<g>
									<g>
										<path class="st8" d="M242.5,181.8c-0.2,0.1-0.3,0.1-0.5,0.1c-7.9,2-19.4-4.2-25-7.7c-0.3-0.2-0.6-0.4-0.8-0.5
											c-1.5-1-2.4-1.6-2.4-1.6c0.1-0.3,0.2-0.6,0.3-1l0.1-0.2c0.2-0.5,0.4-1.2,0.6-1.8c0.3-0.9,0.7-1.9,1.2-3
											c0.2-0.6,0.5-1.2,0.7-1.8c0.4-1,0.8-2,1.3-3c0.2-0.6,0.5-1.2,0.7-1.8c0.4-1,0.9-2,1.3-3c0.3-0.6,0.5-1.2,0.8-1.8
											c0.4-1,0.9-2,1.3-3c0.3-0.6,0.5-1.2,0.8-1.7c0.4-1,0.9-2,1.3-3c0.3-0.6,0.5-1.1,0.8-1.7c0.4-0.9,0.8-1.8,1.2-2.7
											c0-0.1,0.1-0.2,0.1-0.3c0.1-0.2,0.2-0.5,0.3-0.7c0.2-0.3,0.3-0.7,0.5-1c0.1-0.2,0.1-0.3,0.2-0.4c0.2-0.3,0.3-0.7,0.5-1
											l0,0c0.2-0.5,0.4-0.9,0.7-1.4c0,0,0,0,0,0c0.2-0.3,0.3-0.7,0.5-1c0.1-0.2,0.2-0.5,0.3-0.7c0.1-0.2,0.2-0.5,0.3-0.7
											c0.2-0.4,0.3-0.7,0.5-1.1c0.2-0.4,0.4-0.8,0.6-1.2c0.1-0.1,0.1-0.3,0.2-0.4c0.2-0.4,0.4-0.9,0.6-1.3
											c0.5-1.1,1-2.1,1.4-2.9c0.3-0.6,0.6-1.2,0.8-1.7c0.8-1.6,1.3-2.7,1.4-3c0,0,0,0,0,0l0,0l0.9,0l0.1,0l3.1,0l0.5,0l0.8,0
											l1.1,0l0.5,0l6.1,2l0.9,0.7l0.2,0.1l1,0.7l0.4,0.3l2.1,1.5l0.4,0.3l0.7,0.5c0,0.1,0,0.2,0,0.2c-0.2,1-0.4,2-0.6,3.2
											c-0.1,0.6-0.2,1.2-0.4,1.9c-0.2,1-0.4,2.1-0.6,3.2c-0.1,0.6-0.3,1.2-0.4,1.9c0,0.1-0.1,0.3-0.1,0.4
											c-0.1,0.4-0.2,0.7-0.2,1.1c-0.1,0.5-0.2,1-0.3,1.5c0,0.1,0,0.1,0,0.2c0,0,0,0.1,0,0.1c-0.1,0.3-0.1,0.5-0.2,0.8
											c-0.1,0.3-0.1,0.6-0.2,1c0,0.2-0.1,0.4-0.1,0.5c-0.1,0.4-0.1,0.7-0.2,1.1c-0.1,0.5-0.2,1-0.3,1.5c0,0,0,0,0,0.1
											c-0.1,0.4-0.2,0.7-0.2,1.1c-0.1,0.3-0.1,0.5-0.2,0.8c-0.2,0.8-0.3,1.6-0.5,2.3c-0.1,0.3-0.1,0.6-0.2,0.9
											c-0.1,0.6-0.3,1.2-0.4,1.8c-0.2,1.1-0.5,2.1-0.7,3.2c-0.1,0.6-0.3,1.2-0.4,1.9c-0.2,1.1-0.5,2.1-0.7,3.2
											c-0.1,0.4-0.2,0.9-0.3,1.3c0,0.2-0.1,0.4-0.1,0.6c-0.2,1.1-0.5,2.2-0.7,3.2c-0.1,0.6-0.3,1.3-0.4,1.9
											c-0.2,1.1-0.5,2.2-0.7,3.2c-0.1,0.7-0.3,1.3-0.4,1.9c-0.3,1.2-0.5,2.3-0.7,3.2c-0.2,0.7-0.3,1.4-0.4,1.8
											C242.6,181.4,242.5,181.8,242.5,181.8z"/>
									</g>
								</g>
								<path class="st0" d="M250.3,127.5C250.3,127.5,250.3,127.6,250.3,127.5c-0.3,0.4-0.7,0.6-1.1,0.4c0.4,1-0.1,2.2-0.9,2.8
									c-0.8,0.6-2,0.7-3,0.4c-0.5-0.1-0.9-0.3-1.2-0.7c-0.3-0.3-0.6-0.8-0.7-1.2c-0.3,0.3-0.8,0.5-1.2,0.6c-0.5,0.1-0.9,0-1.4-0.2
									c-1-0.3-1.9-1.1-2.2-2.1c-0.3-1,0-2.3,0.9-2.8c-0.4-0.1-0.6-0.5-0.6-0.9c0,0,0-0.1,0-0.1l0.5,0l0.8,0l1.1,0l0.5,0l6.1,2
									l0.9,0.7l0.2,0.1l1,0.7L250.3,127.5z"/>
								<path class="st8" d="M235,123.8c-3.6,0-16.7,11-16.7,11s3.1,7,6.7,11l4.4-4.9L235,123.8z"/>
							</g>
							<g>
								<path class="st11" d="M258.5,116.9c-1.1,2.3-2.5,3.5-4.1,4.2c-1,0.4-1.8,0.6-2.6,0.8c-1.8,0.6-3,1.1-4.1,4.6
									c-1.9,2.2-5.9,1.3-6.2-2c1.5-4.6,1.7-8.7,1.6-10.7c0-0.6-0.1-1-0.1-1.2c0-0.1,0-0.1,0-0.1s0.3-0.7,0.7-1.8
									c0-0.1,0.1-0.3,0.2-0.4c1-2.5,2.6-6.4,3.8-7.5c4.5-4.2,13.8,0.7,13.2,5.1C260.3,112,259.5,114.9,258.5,116.9z"/>
								<path class="st10" d="M260.7,110.4c-1.7-1.5-2.9-3.7-3.2-6c-0.2,0.6-0.8,1-1.4,1.3c-1.9,1.1-4.1,1.7-6.3,1.6
									c-0.7,1.1-1.8,2-3,2.6c-1.2,0.6-2.6,0.8-3.9,0.7c0.5-2.4,0.6-4.8,1.7-7c1.2-2.1,3.1-4,5.4-4.5c1.4-0.3,2.8-0.2,4.2,0.1
									c2.5,0.6,4.9,1.9,6.3,4S262.1,108.3,260.7,110.4z"/>
								<g>
									<path class="st10" d="M256.3,111.7c1-0.3,2,0.1,2.5,1c0.1,0.2,0,0.4-0.1,0.5c-0.2,0.1-0.4,0.1-0.5-0.1
										c-0.2-0.4-0.6-0.6-1-0.7c-0.2,0-0.4-0.1-0.6,0c-0.2,0-0.4,0.1-0.5,0c0,0-0.1-0.1-0.1-0.1
										C256.1,112,256.2,111.8,256.3,111.7z"/>
									<path class="st10" d="M253.9,110.9c-0.7-0.8-1.9-1.2-3-0.8c-0.2,0.1-0.3,0.3-0.2,0.5c0.1,0.2,0.3,0.3,0.5,0.2
										c0.4-0.2,0.9-0.1,1.4,0c0.2,0.1,0.4,0.2,0.6,0.4c0.2,0.1,0.3,0.3,0.5,0.3c0.1,0,0.1,0,0.2-0.1
										C253.9,111.4,254,111.1,253.9,110.9z"/>
									<path class="st12" d="M253.2,117.4c0.3,0.1,0.7,0.2,1.1,0.1c0.2,0,0.3-0.2,0.3-0.4c0-0.2-0.2-0.3-0.4-0.3
										c-1,0.2-1.8-0.6-1.9-1c-0.1-0.2-0.3-0.3-0.4-0.2c-0.2,0.1-0.3,0.3-0.2,0.4C251.8,116.5,252.4,117.2,253.2,117.4z"/>
									<path class="st12" d="M254.6,115.8C254.7,115.8,254.7,115.8,254.6,115.8c0.4-0.5,0.3-0.8,0.1-0.9c-0.2-0.1-0.4-0.1-0.7-0.1
										c0,0-0.1,0.1-0.1,0.1c0,0,0.1,0.1,0.1,0.1c0.2-0.1,0.4,0,0.6,0c0.1,0.1,0.1,0.3-0.1,0.6
										C254.6,115.7,254.6,115.8,254.6,115.8C254.6,115.8,254.6,115.8,254.6,115.8z"/>
									<g>
										<path d="M251.3,112.5c-0.1,0.3,0.1,0.7,0.4,0.8c0.3,0.1,0.7-0.1,0.8-0.4c0.1-0.3-0.1-0.7-0.4-0.8
											C251.8,112,251.4,112.2,251.3,112.5z"/>
										<path class="st0" d="M252,112.6c0,0.1,0,0.3,0.1,0.3s0.3,0,0.3-0.1c0-0.1,0-0.3-0.1-0.3C252.1,112.4,252,112.5,252,112.6z
											"/>
									</g>
									<g>
										<path d="M256,114.1c-0.1,0.3,0.1,0.7,0.4,0.8c0.3,0.1,0.7-0.1,0.8-0.4c0.1-0.3-0.1-0.7-0.4-0.8
											C256.4,113.5,256.1,113.7,256,114.1z"/>
										<path class="st0" d="M256.6,114.1c0,0.1,0,0.3,0.1,0.3s0.3,0,0.3-0.1c0-0.1,0-0.3-0.1-0.3
											C256.8,113.9,256.7,114,256.6,114.1z"/>
									</g>
								</g>
								<g>
									<path class="st11" d="M240.8,112.1c0.5,1.3,1.8,2,2.8,1.6c1-0.4,1.4-1.8,0.9-3.1c-0.5-1.3-1.8-2-2.8-1.6
										C240.7,109.4,240.3,110.8,240.8,112.1z"/>
									<path class="st12" d="M242.1,109.7c0.4-0.1,0.9,0.1,1.3,0.4c0.2,0.2,0.3,0.4,0.4,0.5c0.1,0.3,0,0.5-0.1,0.7
										c-0.1,0.2-0.3,0.2-0.5,0.3c-0.1,0-0.2,0.1-0.3,0.2c-0.1,0.1-0.2,0.3-0.1,0.5c0.1,0.1,0.2,0.2,0.4,0.2
										c0.1,0,0.2,0.1,0.2,0.2c0,0.1-0.1,0.2-0.2,0.2c-0.1,0-0.2,0-0.3,0c-0.2-0.1-0.4-0.2-0.5-0.4c-0.1-0.3-0.1-0.6,0.2-0.9
										c0.1-0.1,0.3-0.2,0.4-0.2c0.1-0.1,0.3-0.1,0.3-0.2c0.1-0.1,0.1-0.2,0.1-0.4c0-0.1,0-0.1-0.1-0.2c-0.2-0.1-0.4-0.1-0.5,0
										c-0.2,0.1-0.3,0.3-0.3,0.4c0,0.1-0.1,0.2-0.2,0.1c0,0,0,0,0,0c-0.1,0-0.1-0.1-0.1-0.2c0-0.3,0.2-0.5,0.5-0.7
										c0.1-0.1,0.2-0.1,0.3-0.1c-0.2-0.2-0.5-0.2-0.8-0.2c-0.3,0.1-0.6,0.3-0.6,0.7c0,0.1-0.1,0.2-0.2,0.2
										c-0.1,0-0.2-0.1-0.2-0.2C241.2,110.2,241.5,109.8,242.1,109.7z"/>
								</g>
							</g>
						</g>
					</g>
				</g>
				<g>
					
						<rect x="306.2" y="90.3" transform="matrix(0.3079 -0.9514 0.9514 0.3079 98.2199 376.6794)" class="st2" width="3.7" height="61.1"/>
					
						<rect x="308.4" y="99.4" transform="matrix(0.3079 -0.9514 0.9514 0.3079 84.2848 390.0418)" class="st2" width="3.7" height="75.4"/>
					
						<rect x="292.5" y="105.8" transform="matrix(0.3079 -0.9514 0.9514 0.3079 85.2026 366.3188)" class="st2" width="3.7" height="37.5"/>
					
						<rect x="332.5" y="118.8" transform="matrix(0.3079 -0.9514 0.9514 0.3079 100.579 413.3612)" class="st2" width="3.7" height="37.5"/>
					
						<rect x="280.3" y="124.9" transform="matrix(0.3079 -0.9514 0.9514 0.3079 66.4807 362.1121)" class="st2" width="3.7" height="20.8"/>
					
						<rect x="334" y="149.7" transform="matrix(0.3079 -0.9514 0.9514 0.3079 80.1251 430.3784)" class="st2" width="3.7" height="20.8"/>
					
						<rect x="293.1" y="120.7" transform="matrix(0.3079 -0.9514 0.9514 0.3079 64.4014 382.2809)" class="st2" width="3.7" height="52.3"/>
					
						<rect x="320.1" y="121" transform="matrix(0.3079 -0.9514 0.9514 0.3079 81.8022 408.9781)" class="st2" width="3.7" height="54.5"/>
				</g>
			</g>
			<g>
				<g>
					<path class="st13" d="M226.3,159.4c-3.5-1.1-5.4-4.9-4.3-8.4c1.1-3.5,4.9-5.4,8.4-4.3c3.5,1.1,5.4,4.9,4.3,8.4
						C233.6,158.6,229.8,160.5,226.3,159.4z M229.9,148.1c-2.7-0.9-5.6,0.6-6.5,3.3c-0.9,2.7,0.6,5.6,3.3,6.5
						c2.7,0.9,5.6-0.6,6.5-3.3C234.1,151.9,232.6,149,229.9,148.1z"/>
					<path class="st14" d="M227.6,155.3c-0.2-0.1-0.4-0.2-0.5-0.4l-1.9-3.8c-0.2-0.4,0-0.8,0.3-1c0.4-0.2,0.8,0,1,0.3l1.6,3.2
						l8.8-3.6c0.4-0.2,0.8,0,1,0.4c0.2,0.4,0,0.8-0.4,1l-9.4,3.9C228,155.3,227.8,155.3,227.6,155.3z"/>
				</g>
				<g>
					
						<rect x="288.5" y="120.2" transform="matrix(0.3079 -0.9514 0.9514 0.3079 40.0724 391.9869)" class="st14" width="2" height="96.4"/>
					
						<rect x="301.9" y="144.4" transform="matrix(0.3079 -0.9514 0.9514 0.3079 41.0967 410.7756)" class="st14" width="2" height="65.5"/>
					
						<rect x="268.3" y="140.9" transform="matrix(0.3079 -0.9514 0.9514 0.3079 24.072 374.3599)" class="st14" width="2" height="59.5"/>
					
						<rect x="241.7" y="160.7" transform="matrix(0.9514 0.3079 -0.3079 0.9514 62.1991 -70.7474)" class="st14" width="27.3" height="2"/>
					
						<rect x="299.6" y="184.9" transform="matrix(0.9514 0.3079 -0.3079 0.9514 72.6229 -88.4473)" class="st14" width="34" height="2"/>
				</g>
			</g>
			<g>
				<g>
					<path class="st13" d="M219,181.8c-3.5-1.1-5.4-4.9-4.3-8.4c1.1-3.5,4.9-5.4,8.4-4.3c3.5,1.1,5.4,4.9,4.3,8.4
						C226.3,181,222.6,182.9,219,181.8z M222.7,170.5c-2.7-0.9-5.6,0.6-6.5,3.3c-0.9,2.7,0.6,5.6,3.3,6.5c2.7,0.9,5.6-0.6,6.5-3.3
						C226.9,174.3,225.4,171.4,222.7,170.5z"/>
					<path class="st14" d="M220.4,177.7c-0.2-0.1-0.4-0.2-0.5-0.4l-1.9-3.8c-0.2-0.4,0-0.8,0.3-1c0.4-0.2,0.8,0,1,0.3l1.6,3.2
						l8.8-3.6c0.4-0.2,0.8,0,1,0.4c0.2,0.4,0,0.8-0.4,1l-9.4,3.9C220.7,177.7,220.5,177.7,220.4,177.7z"/>
				</g>
				<g>
					
						<rect x="281.2" y="142.6" transform="matrix(0.3079 -0.9514 0.9514 0.3079 13.7611 400.5931)" class="st14" width="2" height="96.4"/>
					
						<rect x="294.6" y="166.8" transform="matrix(0.3079 -0.9514 0.9514 0.3079 14.7786 419.3736)" class="st14" width="2" height="65.5"/>
					
						<rect x="261.1" y="163.3" transform="matrix(0.3078 -0.9514 0.9514 0.3078 -2.233 382.9757)" class="st14" width="2" height="59.5"/>
					
						<rect x="234.4" y="183.1" transform="matrix(0.9514 0.3079 -0.3079 0.9514 68.7398 -67.4293)" class="st14" width="27.3" height="2"/>
					
						<rect x="292.4" y="207.3" transform="matrix(0.9514 0.3079 -0.3079 0.9514 79.1649 -85.1302)" class="st14" width="34" height="2"/>
				</g>
			</g>
			<g>
				<g>
					<path class="st13" d="M211.8,204.2c-3.5-1.1-5.4-4.9-4.3-8.4c1.1-3.5,4.9-5.4,8.4-4.3c3.5,1.1,5.4,4.9,4.3,8.4
						C219.1,203.4,215.3,205.3,211.8,204.2z M215.4,192.9c-2.7-0.9-5.6,0.6-6.5,3.3c-0.9,2.7,0.6,5.6,3.3,6.5
						c2.7,0.9,5.6-0.6,6.5-3.3C219.6,196.7,218.1,193.8,215.4,192.9z"/>
					<path class="st14" d="M213.1,200.1c-0.2-0.1-0.4-0.2-0.5-0.4l-1.9-3.8c-0.2-0.4,0-0.8,0.3-1c0.4-0.2,0.8,0,1,0.3l1.6,3.2
						l8.8-3.6c0.4-0.2,0.8,0,1,0.4c0.2,0.4,0,0.8-0.4,1l-9.4,3.9C213.5,200.1,213.3,200.1,213.1,200.1z"/>
				</g>
				<g>
					
						<rect x="274" y="165" transform="matrix(0.3079 -0.9514 0.9514 0.3079 -12.5537 409.1954)" class="st14" width="2" height="96.4"/>
					
						<rect x="287.4" y="189.1" transform="matrix(0.3079 -0.9514 0.9514 0.3079 -11.536 427.9757)" class="st14" width="2" height="65.5"/>
					
						<rect x="253.9" y="185.7" transform="matrix(0.3079 -0.9514 0.9514 0.3079 -28.5568 391.5654)" class="st14" width="2" height="59.5"/>
					
						<rect x="227.2" y="205.5" transform="matrix(0.9514 0.3079 -0.3079 0.9514 75.2801 -64.1109)" class="st14" width="27.3" height="2"/>
					
						<rect x="285.1" y="229.7" transform="matrix(0.9514 0.3079 -0.3079 0.9514 85.705 -81.8116)" class="st14" width="34" height="2"/>
				</g>
			</g>
			<g>
				
					<rect x="228.3" y="234.9" transform="matrix(0.9514 0.3079 -0.3079 0.9514 85.9347 -72.3152)" class="st7" width="87.7" height="2.5"/>
				
					<rect x="197.1" y="236.1" transform="matrix(0.9514 0.3079 -0.3079 0.9514 85.4965 -67.2765)" class="st7" width="117.8" height="2.5"/>
				
					<rect x="196.4" y="234.4" transform="matrix(0.9514 0.3079 -0.3079 0.9514 83.7809 -59.7204)" class="st7" width="69.6" height="2.5"/>
				
					<rect x="193.3" y="247.6" transform="matrix(0.9514 0.3079 -0.3079 0.9514 88.8648 -65.5678)" class="st7" width="117.8" height="2.5"/>
				
					<rect x="255.1" y="263.4" transform="matrix(0.9514 0.3079 -0.3079 0.9514 95.1438 -73.7718)" class="st7" width="52.6" height="2.5"/>
				
					<rect x="189.6" y="259.1" transform="matrix(0.9514 0.3079 -0.3079 0.9514 92.2329 -63.859)" class="st7" width="117.8" height="2.5"/>
				
					<rect x="188.5" y="259.9" transform="matrix(0.9514 0.3079 -0.3079 0.9514 91.6506 -58.5366)" class="st7" width="85.6" height="2.5"/>
				
					<rect x="276.4" y="278.9" transform="matrix(0.9514 0.3079 -0.3079 0.9514 100.3252 -75.6361)" class="st7" width="26.9" height="2.5"/>
				
					<rect x="193" y="243.9" transform="matrix(0.9514 0.3079 -0.3079 0.9514 86.2177 -56.1752)" class="st7" width="56.4" height="2.5"/>
				
					<rect x="268.2" y="253.4" transform="matrix(0.9514 0.3079 -0.3079 0.9514 92.455 -76.8202)" class="st7" width="43" height="2.5"/>
			</g>
		</g>
	</g>
	<g>
		<polygon class="st1" points="142,319.7 18,288.1 0,358.8 124,390.4 138,335.5 138,335.5 		"/>
		<g>
			
				<rect x="42.8" y="270.4" transform="matrix(0.2466 -0.9691 0.9691 0.2466 -264.305 328.7286)" class="st14" width="72.9" height="128"/>
			<polygon class="st2" points="8.3,353.9 80.6,329.2 132.3,385.5 			"/>
			<polygon class="st2" points="22.2,299.1 76.4,345.6 146.3,330.6 			"/>
			<polygon class="st2" points="150.3,314.8 146.3,330.6 77.4,341.9 22.2,299.1 26.3,283.2 			"/>
		</g>
	</g>
	<g>
		
			<rect x="82.5" y="195.9" transform="matrix(0.9078 -0.4194 0.4194 0.9078 -108.8986 92.281)" class="st6" width="145.8" height="195.8"/>
		<g>
			
				<rect x="78.6" y="203.1" transform="matrix(0.9078 -0.4194 0.4194 0.9078 -112.2829 91.2815)" class="st6" width="145.8" height="195.8"/>
			<g>
				<g>
					<path class="st13" d="M97,308.8c-3.4,1.6-7.4,0.1-9-3.3c-1.6-3.4-0.1-7.4,3.3-9c3.4-1.6,7.4-0.1,9,3.3
						C101.8,303.2,100.3,307.2,97,308.8z M92,298c-2.6,1.2-3.7,4.3-2.5,6.9c1.2,2.6,4.3,3.7,6.9,2.5c2.6-1.2,3.7-4.3,2.5-6.9
						C97.6,297.9,94.6,296.8,92,298z"/>
					<path class="st14" d="M95.1,304.8c-0.2,0.1-0.4,0.1-0.6,0l-4-1.5c-0.4-0.2-0.6-0.6-0.5-1c0.2-0.4,0.6-0.6,1-0.5l3.3,1.3l4-8.7
						c0.2-0.4,0.6-0.6,1-0.4c0.4,0.2,0.6,0.6,0.4,1l-4.3,9.4C95.4,304.6,95.3,304.8,95.1,304.8z"/>
				</g>
				<g>
					
						<rect x="101.3" y="271.2" transform="matrix(0.9078 -0.4194 0.4194 0.9078 -100.3449 88.0359)" class="st14" width="97.4" height="2"/>
					
						<rect x="132.9" y="268.5" transform="matrix(0.9078 -0.4194 0.4194 0.9078 -97.7238 94.4568)" class="st14" width="66.2" height="2"/>
					
						<rect x="106.6" y="286.6" transform="matrix(0.9078 -0.4194 0.4194 0.9078 -108.0464 83.8245)" class="st14" width="60.1" height="2"/>
					
						<rect x="106.3" y="289.7" transform="matrix(0.9078 -0.4194 0.4194 0.9078 -110.8375 77.1795)" class="st14" width="27.6" height="2"/>
					
						<rect x="165" y="265.6" transform="matrix(0.9078 -0.4194 0.4194 0.9078 -95.0184 100.9886)" class="st14" width="34.4" height="2"/>
				</g>
			</g>
			<g>
				<g>
					<path class="st13" d="M106.9,330.4c-3.4,1.6-7.4,0.1-9-3.3c-1.6-3.4-0.1-7.4,3.3-9c3.4-1.6,7.4-0.1,9,3.3
						C111.8,324.8,110.3,328.8,106.9,330.4z M101.9,319.5c-2.6,1.2-3.7,4.3-2.5,6.9c1.2,2.6,4.3,3.7,6.9,2.5
						c2.6-1.2,3.7-4.3,2.5-6.9C107.6,319.5,104.5,318.3,101.9,319.5z"/>
					<path class="st14" d="M105.1,326.4c-0.2,0.1-0.4,0.1-0.6,0l-4-1.5c-0.4-0.2-0.6-0.6-0.5-1c0.2-0.4,0.6-0.6,1-0.5l3.3,1.3l4-8.7
						c0.2-0.4,0.6-0.6,1-0.4c0.4,0.2,0.6,0.6,0.4,1l-4.3,9.4C105.4,326.2,105.3,326.3,105.1,326.4z"/>
				</g>
				<g>
					
						<rect x="111.3" y="292.8" transform="matrix(0.9078 -0.4194 0.4194 0.9078 -108.4753 94.2067)" class="st14" width="97.4" height="2"/>
					
						<rect x="142.8" y="290" transform="matrix(0.9078 -0.4194 0.4194 0.9078 -105.8542 100.6278)" class="st14" width="66.2" height="2"/>
					
						<rect x="116.5" y="308.2" transform="matrix(0.9078 -0.4194 0.4194 0.9078 -116.1764 89.9948)" class="st14" width="60.1" height="2"/>
					
						<rect x="116.3" y="311.2" transform="matrix(0.9078 -0.4194 0.4194 0.9078 -118.9668 83.349)" class="st14" width="27.6" height="2"/>
					
						<rect x="175" y="287.2" transform="matrix(0.9078 -0.4194 0.4194 0.9078 -103.1491 107.16)" class="st14" width="34.4" height="2"/>
				</g>
			</g>
			<g>
				<g>
					<path class="st13" d="M116.9,351.9c-3.4,1.6-7.4,0.1-9-3.3c-1.6-3.4-0.1-7.4,3.3-9s7.4-0.1,9,3.3
						C121.8,346.4,120.3,350.4,116.9,351.9z M111.9,341.1c-2.6,1.2-3.7,4.3-2.5,6.9c1.2,2.6,4.3,3.7,6.9,2.5
						c2.6-1.2,3.7-4.3,2.5-6.9C117.6,341.1,114.5,339.9,111.9,341.1z"/>
					<path class="st14" d="M115.1,348c-0.2,0.1-0.4,0.1-0.6,0l-4-1.5c-0.4-0.2-0.6-0.6-0.5-1c0.2-0.4,0.6-0.6,1-0.5l3.3,1.3l4-8.7
						c0.2-0.4,0.6-0.6,1-0.4c0.4,0.2,0.6,0.6,0.4,1l-4.3,9.4C115.4,347.8,115.2,347.9,115.1,348z"/>
				</g>
				<g>
					
						<rect x="121.3" y="314.4" transform="matrix(0.9078 -0.4194 0.4194 0.9078 -116.6058 100.3776)" class="st14" width="97.4" height="2"/>
					
						<rect x="152.8" y="311.6" transform="matrix(0.9078 -0.4194 0.4194 0.9078 -113.9848 106.7989)" class="st14" width="66.2" height="2"/>
					
						<rect x="126.5" y="329.8" transform="matrix(0.9078 -0.4194 0.4194 0.9078 -124.3058 96.1644)" class="st14" width="60.1" height="2"/>
					
						<rect x="126.3" y="332.8" transform="matrix(0.9078 -0.4194 0.4194 0.9078 -127.0967 89.5192)" class="st14" width="27.6" height="2"/>
					
						<rect x="184.9" y="308.7" transform="matrix(0.9078 -0.4194 0.4194 0.9078 -111.2791 113.3303)" class="st14" width="34.4" height="2"/>
				</g>
			</g>
			<g>
				
					<rect x="139.3" y="333.1" transform="matrix(0.9078 -0.4194 0.4194 0.9078 -123.3054 107.8441)" class="st7" width="88.6" height="2.5"/>
				
					<rect x="112.9" y="345" transform="matrix(0.9078 -0.4194 0.4194 0.9078 -129.3463 104.2318)" class="st7" width="119" height="2.5"/>
				
					<rect x="117.7" y="360.8" transform="matrix(0.9078 -0.4194 0.4194 0.9078 -137.7617 97.4909)" class="st7" width="70.3" height="2.5"/>
				
					<rect x="118" y="356.2" transform="matrix(0.9078 -0.4194 0.4194 0.9078 -133.533 107.4092)" class="st7" width="119" height="2.5"/>
				
					<rect x="183.4" y="347.9" transform="matrix(0.9078 -0.4194 0.4194 0.9078 -127.0814 120.2576)" class="st7" width="53.1" height="2.5"/>
				
					<rect x="123.2" y="367.3" transform="matrix(0.9078 -0.4194 0.4194 0.9078 -137.7197 110.5868)" class="st7" width="119" height="2.5"/>
				
					<rect x="127.2" y="379.6" transform="matrix(0.9078 -0.4194 0.4194 0.9078 -144.028 106.622)" class="st7" width="86.5" height="2.5"/>
				
					<rect x="213.3" y="353.6" transform="matrix(0.9078 -0.4194 0.4194 0.9078 -127.8974 127.8745)" class="st7" width="27.2" height="2.5"/>
				
					<rect x="123.5" y="374.7" transform="matrix(0.9078 -0.4194 0.4194 0.9078 -143.6806 98.3854)" class="st7" width="56.9" height="2.5"/>
				
					<rect x="187.5" y="334.7" transform="matrix(0.9078 -0.4194 0.4194 0.9078 -121.6307 118.7449)" class="st7" width="43.4" height="2.5"/>
			</g>
			<g>
				<g>
					<g>
						
							<rect x="100.3" y="222.3" transform="matrix(0.9078 -0.4194 0.4194 0.9078 -81.9368 75.6896)" class="st2" width="61.8" height="3.8"/>
						
							<rect x="105.9" y="232.9" transform="matrix(0.9078 -0.4194 0.4194 0.9078 -85.1804 82.0255)" class="st2" width="76.1" height="3.8"/>
						
							<rect x="104.7" y="234.5" transform="matrix(0.9078 -0.4194 0.4194 0.9078 -87.7214 73.6505)" class="st2" width="37.9" height="3.8"/>
						
							<rect x="143.3" y="216.6" transform="matrix(0.9078 -0.4194 0.4194 0.9078 -76.6895 88.1834)" class="st2" width="37.9" height="3.8"/>
						
							<rect x="111.4" y="250.8" transform="matrix(0.9078 -0.4194 0.4194 0.9078 -94.7516 74.444)" class="st2" width="21" height="3.8"/>
						
							<rect x="168.2" y="232.4" transform="matrix(0.9078 -0.4194 0.4194 0.9078 -81.7653 96.579)" class="st2" width="21" height="3.8"/>
						
							<rect x="112.9" y="250.6" transform="matrix(0.9078 -0.4194 0.4194 0.9078 -93.0429 81.7194)" class="st2" width="52.9" height="3.8"/>
						
							<rect x="132.8" y="233.1" transform="matrix(0.9078 -0.4194 0.4194 0.9078 -83.7618 88.9218)" class="st2" width="55.1" height="3.8"/>
					</g>
				</g>
				<g>
					
						<rect x="65.5" y="237.7" transform="matrix(0.9078 -0.4194 0.4194 0.9078 -102.0718 59.4911)" class="st15" width="37.4" height="48.4"/>
					<g>
						<defs>
							
								<rect id="SVGID_3_" x="65.5" y="237.7" transform="matrix(0.9078 -0.4194 0.4194 0.9078 -102.0718 59.4911)" width="37.4" height="48.4"/>
						</defs>
						<clipPath id="SVGID_4_">
							<use xlink:href="#SVGID_3_"  style="overflow:visible;"/>
						</clipPath>
						<g class="st16">
							<g>
								<g>
									<path class="st7" d="M97.7,267.8c5.1-0.6,12.9,10.7,12.9,10.7s-1,3.8-6.1,6.1L97.7,267.8z"/>
								</g>
								<g>
									<g>
										<path class="st7" d="M97.2,326.5c0,0,1.1-0.1,2.9-0.5c0.3-0.1,0.6-0.1,1-0.2c6.5-1.3,19.3-4.6,23.8-11.5
											c0.1-0.1,0.2-0.3,0.3-0.4c0,0-0.2-0.4-0.7-1.1c-0.3-0.4-0.6-1-1-1.7c-0.5-0.8-1-1.8-1.6-2.8c-0.3-0.5-0.6-1.1-1-1.7
											c-0.5-0.9-1.1-1.8-1.7-2.8c-0.3-0.5-0.6-1.1-1-1.7c-0.5-0.9-1.1-1.9-1.7-2.8c-0.1-0.2-0.2-0.3-0.3-0.5
											c-0.2-0.4-0.4-0.8-0.7-1.1c-0.5-0.9-1.1-1.9-1.7-2.8c-0.3-0.6-0.6-1.1-1-1.7c-0.6-0.9-1.1-1.9-1.7-2.8
											c-0.3-0.6-0.7-1.1-1-1.6c-0.1-0.3-0.3-0.5-0.5-0.8c-0.4-0.7-0.8-1.4-1.2-2.1c-0.1-0.2-0.3-0.5-0.4-0.7
											c-0.2-0.3-0.4-0.6-0.6-0.9c0,0,0,0,0,0c-0.3-0.4-0.5-0.9-0.8-1.3c-0.2-0.3-0.4-0.7-0.6-1c-0.1-0.2-0.2-0.3-0.3-0.5
											c-0.2-0.3-0.3-0.6-0.5-0.8c-0.1-0.2-0.3-0.5-0.4-0.7c0,0,0-0.1-0.1-0.1c0-0.1-0.1-0.1-0.1-0.2c-0.3-0.4-0.5-0.9-0.8-1.3
											c-0.2-0.3-0.4-0.6-0.6-1c-0.1-0.1-0.2-0.2-0.2-0.4c-0.3-0.6-0.7-1.1-1-1.6c-0.6-1-1.2-1.9-1.7-2.8c-0.4-0.6-0.7-1.1-1-1.6
											c-0.7-1-1.3-2-1.8-2.8c0-0.1-0.1-0.1-0.1-0.2l-0.9,0.1l-0.5,0.1l-3,0.4l-1.2,0.1l-0.2,0l-1.1,0.1l-5.9,2.7l-0.3,0.3
											l-0.8,0.7l-0.6,0.5l-2.7,2.5l0,0L80,276l0,0c0,0,0,0,0,0c0.1,0.3,0.4,1.4,1,3.1c0.2,0.6,0.4,1.2,0.6,1.8
											c0.3,0.9,0.6,2,1,3.1c0.1,0.4,0.3,0.9,0.4,1.4c0,0.2,0.1,0.3,0.1,0.5c0.1,0.4,0.3,0.8,0.4,1.3c0.1,0.4,0.3,0.8,0.4,1.1
											c0.1,0.2,0.2,0.5,0.2,0.7c0.1,0.3,0.2,0.5,0.3,0.8c0.1,0.3,0.2,0.7,0.3,1.1c0,0,0,0,0,0.1c0.2,0.5,0.3,1,0.5,1.5l0,0
											c0.1,0.4,0.2,0.7,0.3,1.1c0.1,0.2,0.1,0.3,0.1,0.5c0.1,0.4,0.2,0.7,0.3,1.1c0.1,0.3,0.2,0.5,0.3,0.8
											c0,0.1,0.1,0.2,0.1,0.3c0.3,0.9,0.6,1.9,0.9,2.8c0.2,0.6,0.4,1.2,0.6,1.8c0.3,1,0.7,2.1,1,3.1c0.2,0.6,0.4,1.2,0.6,1.8
											c0.4,1,0.7,2.1,1.1,3.1c0.2,0.6,0.4,1.2,0.6,1.8c0.4,1.1,0.7,2.1,1.1,3.1c0.2,0.6,0.4,1.2,0.6,1.8
											c0.4,1.1,0.8,2.1,1.1,3.1c0.2,0.6,0.5,1.2,0.7,1.8c0.4,1.1,0.8,2.1,1.2,3c0.3,0.7,0.5,1.3,0.8,1.8c0,0.1,0,0.1,0.1,0.2
											C97,325.9,97.1,326.3,97.2,326.5z"/>
									</g>
								</g>
								<path class="st7" d="M80,276c-2.7,2.5-4.8,19.6-4.8,19.6s7.1,3.1,12.5,3.6l-0.1-6.7L80,276z"/>
							</g>
							<g>
								<path d="M70.9,255.9c-0.4-0.8-0.8-1.6-0.9-2.4c-0.1-0.9,0.2-1.8,0.8-2.3c-0.4-0.1-0.8-0.6-0.7-1.1c0-0.5,0.4-0.9,0.8-0.9
									c1.9-4.6,6.2-7.9,11.1-8.5c0.7-0.1,1.3-0.1,2,0.1c0.6,0.2,1.2,0.7,1.4,1.3c1.3-0.8,3.1-0.6,4.2,0.5c1.1,1.1,1.2,3,0.3,4.2
									c0.6,0.4,1,1.1,1,1.8c0,0.7-0.2,1.4-0.4,2.1c-1.2,3.6-3.3,6.8-6,9.4c-0.7,0.7-1.4,1.3-2.2,1.8c-0.4,0.3-0.8,0.5-1.2,0.8
									c-0.3,0.2-0.8,0.6-1.1,0.7c-0.4,0-1-0.3-1.3-0.5c-0.4-0.2-0.9-0.4-1.3-0.6c-0.8-0.4-1.6-1-2.4-1.6
									C73.4,259.5,71.9,257.8,70.9,255.9z"/>
								<path class="st11" d="M92.7,254.8c0.8,2.5,0.5,4.4-0.2,5.9c-0.5,1-0.9,1.7-1.3,2.4c-1,1.7-1.5,2.9,0.1,6.2
									c0.2,2.9-3.5,5-6,2.8c-2-4.4-4.7-7.6-6.1-9c-0.4-0.4-0.7-0.7-0.9-0.8c0,0-0.1-0.1-0.1-0.1s-0.3-0.7-0.7-1.8
									c-0.1-0.1-0.1-0.3-0.2-0.4c-1-2.5-2.5-6.5-2.3-8.2c0.4-6.2,10.7-8.9,13.3-5.3C90.6,250,92,252.6,92.7,254.8z"/>
								<path d="M88.4,245.7c-0.3,0.7-0.8,1.2-1.4,1.6c-2.6,2-5.8,3.2-9.1,3.4c0.3,0.2,0.5,0.6,0.4,1c-0.1,0.4-0.5,0.7-0.8,0.7
									c0.7,0.9,1.2,2.3,1.2,3.5c0,1.2-0.4,2.4-1.2,3.3c-0.2,0.3-0.5,0.6-0.9,0.6c-0.6,0.1-1.1-0.5-1.4-1c-1.2-1.8-2.5-3.8-2.6-6.1
									c-0.1-2.2,1.1-4.3,2.8-5.7c1.7-1.4,3.8-2.2,5.9-2.7c1.2-0.3,2.5-0.5,3.8-0.3C86.4,244.2,87.5,244.8,88.4,245.7z"/>
								<g>
									<path d="M87.5,252.4c0.5-0.9,1.5-1.3,2.5-1c0.2,0.1,0.3,0.3,0.3,0.5c0,0.2-0.2,0.3-0.4,0.3c-0.4-0.1-0.8-0.1-1.2,0.1
										c-0.2,0.1-0.3,0.2-0.5,0.4c-0.1,0.1-0.2,0.3-0.4,0.3c-0.1,0-0.1,0-0.1-0.1C87.5,252.9,87.4,252.6,87.5,252.4z"/>
									<path d="M85.1,253.5c-1.1-0.1-2.3,0.4-2.8,1.4c-0.1,0.2,0,0.4,0.2,0.5c0.2,0.1,0.4,0,0.5-0.2c0.2-0.4,0.6-0.7,1-0.9
										c0.2-0.1,0.5-0.1,0.7-0.1c0.2,0,0.4,0,0.6-0.1c0,0,0.1-0.1,0.1-0.2C85.4,253.8,85.3,253.6,85.1,253.5z"/>
									<path class="st12" d="M89.1,258.8c0.3-0.2,0.6-0.4,0.9-0.7c0.1-0.2,0.1-0.4-0.1-0.5c-0.2-0.1-0.4-0.1-0.5,0.1
										c-0.6,0.8-1.7,0.8-2.1,0.5c-0.2-0.1-0.4,0-0.5,0.1c-0.1,0.2,0,0.4,0.1,0.5C87.4,259.1,88.3,259.2,89.1,258.8z"/>
									<path class="st12" d="M89,256.6C89,256.6,89,256.6,89,256.6c0-0.7-0.3-0.8-0.5-0.8c-0.2,0-0.4,0.2-0.6,0.4c0,0,0,0.1,0,0.1
										c0,0,0.1,0,0.1,0c0.1-0.2,0.3-0.3,0.4-0.4c0.2,0,0.3,0.2,0.4,0.5C88.9,256.6,88.9,256.7,89,256.6
										C89,256.6,89,256.6,89,256.6z"/>
									<g>
										<path d="M84.3,256.5c0.1,0.3,0.5,0.5,0.9,0.3c0.3-0.1,0.5-0.5,0.3-0.9c-0.1-0.3-0.5-0.5-0.9-0.3
											C84.3,255.8,84.1,256.2,84.3,256.5z"/>
										<path class="st0" d="M84.8,256.1c0.1,0.1,0.2,0.2,0.3,0.1c0.1-0.1,0.2-0.2,0.1-0.3c-0.1-0.1-0.2-0.2-0.3-0.1
											C84.8,255.8,84.8,256,84.8,256.1z"/>
									</g>
									<g>
										<path d="M88.8,254.4c0.1,0.3,0.5,0.5,0.9,0.3c0.3-0.1,0.5-0.5,0.3-0.9c-0.1-0.3-0.5-0.5-0.9-0.3
											C88.8,253.7,88.6,254.1,88.8,254.4z"/>
										<path class="st0" d="M89.3,254c0.1,0.1,0.2,0.2,0.3,0.1c0.1-0.1,0.2-0.2,0.1-0.3c-0.1-0.1-0.2-0.2-0.3-0.1
											C89.3,253.7,89.3,253.9,89.3,254z"/>
									</g>
								</g>
								<g>
									<path class="st11" d="M76.2,263.4c1.3,0.6,2.7,0.3,3.1-0.7c0.5-1-0.2-2.3-1.4-2.9c-1.3-0.6-2.7-0.3-3.1,0.7
										C74.3,261.5,74.9,262.8,76.2,263.4z"/>
									<path class="st12" d="M75.5,260.7c0.3-0.3,0.7-0.5,1.2-0.5c0.3,0,0.5,0,0.6,0.1c0.2,0.1,0.4,0.4,0.4,0.6
										c0,0.2-0.1,0.4-0.2,0.6c-0.1,0.1-0.1,0.2-0.1,0.3c0,0.2,0.1,0.3,0.2,0.4c0.2,0.1,0.3,0,0.5-0.1c0.1-0.1,0.2-0.1,0.2,0
										c0.1,0.1,0.1,0.2,0,0.2c-0.1,0.1-0.2,0.1-0.3,0.2c-0.2,0.1-0.4,0.1-0.6,0c-0.3-0.1-0.5-0.4-0.5-0.8c0-0.2,0.1-0.3,0.2-0.5
										c0.1-0.1,0.1-0.3,0.1-0.4c0-0.1-0.1-0.2-0.2-0.3c-0.1,0-0.1,0-0.2-0.1c-0.2,0.1-0.3,0.2-0.4,0.4c-0.1,0.2,0,0.4,0.1,0.5
										c0.1,0.1,0,0.2,0,0.2c0,0,0,0,0,0c-0.1,0-0.2,0-0.2-0.1c-0.2-0.2-0.2-0.6-0.1-0.8c0-0.1,0.1-0.2,0.2-0.3
										c-0.3,0.1-0.6,0.2-0.7,0.4c-0.2,0.2-0.2,0.7,0,0.9c0.1,0.1,0.1,0.2,0,0.2c-0.1,0.1-0.2,0.1-0.2,0
										C75.2,261.8,75.2,261.1,75.5,260.7z"/>
								</g>
							</g>
							<polygon class="st17" points="84.3,272 84.1,270 89.2,272.7 88,276.4 							"/>
							<polygon class="st17" points="91.9,268.5 90.5,267 89.2,272.7 92.9,274.1 							"/>
						</g>
					</g>
				</g>
			</g>
		</g>
	</g>
	<g>
		
			<rect x="175" y="120" transform="matrix(0.3516 0.9362 -0.9362 0.3516 249.9937 -75.9015)" class="st18" width="9.7" height="45"/>
		<path class="st15" d="M299.3,97.6c-10.9-28.9-43.2-43.6-72.1-32.7c-28.9,10.9-43.6,43.2-32.7,72.1c10.9,28.9,43.2,43.6,72.1,32.7
			C295.5,158.9,310.2,126.5,299.3,97.6z M203.3,133.7c-9-24,3.2-50.9,27.2-60s50.9,3.2,60,27.2c9,24-3.2,50.9-27.2,60
			C239.2,169.9,212.3,157.7,203.3,133.7z"/>
		<path class="st1" d="M295.2,99.2c-10-26.7-39.9-40.2-66.5-30.2c-26.7,10-40.2,39.9-30.2,66.5c10,26.7,39.9,40.2,66.5,30.2
			C291.7,155.7,305.2,125.8,295.2,99.2z M203.3,133.7c-9-24,3.2-50.9,27.2-60s50.9,3.2,60,27.2c9,24-3.2,50.9-27.2,60
			C239.2,169.9,212.3,157.7,203.3,133.7z"/>
		
			<ellipse transform="matrix(0.7071 -0.7071 0.7071 0.7071 -10.6555 208.9228)" class="st19" cx="246.9" cy="117.3" rx="46.6" ry="46.6"/>
		<path class="st7" d="M95.2,174.3L95.2,174.3c-1.8-4.8,0.6-10.2,5.5-12l67.2-25.2l6.6,17.5l-67.2,25.2
			C102.4,181.6,97,179.1,95.2,174.3z"/>
		<path class="st7" d="M172.7,149.9l-67.2,25.2c-4,1.5-8.5,0.1-10.9-3.3c0.1,0.8,0.2,1.6,0.5,2.4c1.8,4.8,7.2,7.3,12,5.5l67.2-25.2
			L172.7,149.9z"/>
		<path class="st20" d="M262,78c-14.2-4.4-29-2.2-40.3,7.9c-6.7,6,1.5,17.6,8.3,11.5c7.2-6.5,16.5-9.5,26.1-6.5
			C264.7,93.6,270.7,80.7,262,78z"/>
	</g>
	<g>
		<g>
			<path class="st0" d="M264.9,125.2c0,0,0.3,0,0.9,0C265.2,125.2,264.9,125.2,264.9,125.2z"/>
			<path class="st0" d="M276,136.2c0,0,0-0.3,0-0.9C276,135.9,276,136.2,276,136.2z"/>
			<path class="st0" d="M276,115c0,2.1-0.2,7.3-1.6,8.6c-1.3,1.3-6.5,1.5-8.6,1.6c2.1,0,7.3,0.2,8.6,1.6c1.3,1.3,1.5,6.5,1.6,8.6
				c0-2.1,0.2-7.3,1.6-8.6c1.3-1.3,6.5-1.5,8.6-1.6c-2.1,0-7.3-0.2-8.6-1.6C276.2,122.3,276,117.1,276,115z"/>
			<path class="st0" d="M276,114.1c0,0,0,0.3,0,0.9C276,114.5,276,114.1,276,114.1z"/>
			<path class="st0" d="M287,125.2c0,0-0.3,0-0.9,0C286.7,125.2,287,125.2,287,125.2z"/>
		</g>
		<g>
			<path class="st0" d="M30.5,346c0,0,0.3,0,0.9,0C30.9,346,30.5,346,30.5,346z"/>
			<path class="st0" d="M41.6,357c0,0,0-0.3,0-0.9C41.6,356.7,41.6,357,41.6,357z"/>
			<path class="st0" d="M41.6,335.8c0,2.1-0.2,7.3-1.6,8.6c-1.3,1.3-6.5,1.5-8.6,1.6c2.1,0,7.3,0.2,8.6,1.6c1.3,1.3,1.5,6.5,1.6,8.6
				c0-2.1,0.2-7.3,1.6-8.6c1.3-1.3,6.5-1.5,8.6-1.6c-2.1,0-7.3-0.2-8.6-1.6C41.8,343.1,41.6,337.9,41.6,335.8z"/>
			<path class="st0" d="M41.6,334.9c0,0,0,0.3,0,0.9C41.6,335.3,41.6,334.9,41.6,334.9z"/>
			<path class="st0" d="M52.6,346c0,0-0.3,0-0.9,0C52.3,346,52.6,346,52.6,346z"/>
		</g>
		<g>
			<path class="st0" d="M73.2,121.3c0,0,0.3,0,0.9,0C73.5,121.3,73.2,121.3,73.2,121.3z"/>
			<path class="st0" d="M84.2,132.3c0,0,0-0.3,0-0.9C84.2,132,84.2,132.3,84.2,132.3z"/>
			<path class="st0" d="M84.2,111.1c0,2.1-0.2,7.3-1.6,8.6c-1.3,1.3-6.5,1.5-8.6,1.6c2.1,0,7.3,0.2,8.6,1.6c1.3,1.3,1.5,6.5,1.6,8.6
				c0-2.1,0.2-7.3,1.6-8.6c1.3-1.3,6.5-1.5,8.6-1.6c-2.1,0-7.3-0.2-8.6-1.6C84.5,118.4,84.3,113.2,84.2,111.1z"/>
			<path class="st0" d="M84.2,110.2c0,0,0,0.3,0,0.9C84.3,110.6,84.2,110.2,84.2,110.2z"/>
			<path class="st0" d="M95.3,121.3c0,0-0.3,0-0.9,0C95,121.3,95.3,121.3,95.3,121.3z"/>
		</g>
		<g>
			<path class="st0" d="M189.2,56.5c0,0,0.3,0,0.9,0C189.6,56.5,189.2,56.5,189.2,56.5z"/>
			<path class="st0" d="M200.3,67.6c0,0,0-0.3,0-0.9C200.3,67.2,200.3,67.6,200.3,67.6z"/>
			<path class="st0" d="M200.3,46.3c0,2.1-0.2,7.3-1.6,8.6c-1.3,1.3-6.5,1.5-8.6,1.6c2.1,0,7.3,0.2,8.6,1.6c1.3,1.3,1.5,6.5,1.6,8.6
				c0-2.1,0.2-7.3,1.6-8.6c1.3-1.3,6.5-1.5,8.6-1.6c-2.1,0-7.3-0.2-8.6-1.6C200.5,53.6,200.3,48.4,200.3,46.3z"/>
			<path class="st0" d="M200.3,45.5c0,0,0,0.3,0,0.9C200.3,45.8,200.3,45.5,200.3,45.5z"/>
			<path class="st0" d="M211.3,56.5c0,0-0.3,0-0.9,0C211,56.5,211.3,56.5,211.3,56.5z"/>
		</g>
		<g>
			<path class="st0" d="M354,323.9c0,0,0.3,0,0.9,0C354.3,323.9,354,323.9,354,323.9z"/>
			<path class="st0" d="M365,334.9c0,0,0-0.3,0-0.9C365,334.6,365,334.9,365,334.9z"/>
			<path class="st0" d="M365,313.7c0,2.1-0.2,7.3-1.6,8.6c-1.3,1.3-6.5,1.5-8.6,1.6c2.1,0,7.3,0.2,8.6,1.6c1.3,1.3,1.5,6.5,1.6,8.6
				c0-2.1,0.2-7.3,1.6-8.6c1.3-1.3,6.5-1.5,8.6-1.6c-2.1,0-7.3-0.2-8.6-1.6C365.2,321,365,315.8,365,313.7z"/>
			<path class="st0" d="M365,312.8c0,0,0,0.3,0,0.9C365,313.2,365,312.8,365,312.8z"/>
			<path class="st0" d="M376.1,323.9c0,0-0.3,0-0.9,0C375.7,323.9,376.1,323.9,376.1,323.9z"/>
		</g>
		<g>
			<path class="st0" d="M202.8,214.8c0,0,0.3,0,0.9,0C203.2,214.8,202.8,214.8,202.8,214.8z"/>
			<path class="st0" d="M213.9,225.8c0,0,0-0.3,0-0.9C213.9,225.5,213.9,225.8,213.9,225.8z"/>
			<path class="st0" d="M213.9,204.6c0,2.1-0.2,7.3-1.6,8.6c-1.3,1.3-6.5,1.5-8.6,1.6c2.1,0,7.3,0.2,8.6,1.6
				c1.3,1.3,1.5,6.5,1.6,8.6c0-2.1,0.2-7.3,1.6-8.6c1.3-1.3,6.5-1.5,8.6-1.6c-2.1,0-7.3-0.2-8.6-1.6
				C214.1,211.9,213.9,206.7,213.9,204.6z"/>
			<path class="st0" d="M213.9,203.7c0,0,0,0.3,0,0.9C213.9,204.1,213.9,203.7,213.9,203.7z"/>
			<path class="st0" d="M224.9,214.8c0,0-0.3,0-0.9,0C224.6,214.8,224.9,214.8,224.9,214.8z"/>
		</g>
		<g>
			<path class="st0" d="M280.1,147c0,0,0.2,0,0.5,0C280.3,147,280.1,147,280.1,147z"/>
			<path class="st0" d="M286.1,153c0,0,0-0.2,0-0.5C286.1,152.8,286.1,153,286.1,153z"/>
			<path class="st0" d="M286.1,141.5c0,1.1-0.1,3.9-0.8,4.7c-0.7,0.7-3.5,0.8-4.7,0.8c1.1,0,3.9,0.1,4.7,0.8
				c0.7,0.7,0.8,3.5,0.8,4.7c0-1.1,0.1-3.9,0.8-4.7c0.7-0.7,3.5-0.8,4.7-0.8c-1.1,0-3.9-0.1-4.7-0.8
				C286.2,145.4,286.1,142.6,286.1,141.5z"/>
			<path class="st0" d="M286.1,141c0,0,0,0.2,0,0.5C286.1,141.2,286.1,141,286.1,141z"/>
			<path class="st0" d="M292.1,147c0,0-0.2,0-0.5,0C291.9,147,292.1,147,292.1,147z"/>
		</g>
		<g>
			<path class="st0" d="M16.3,242.3c0,0,0.2,0,0.5,0C16.4,242.3,16.3,242.3,16.3,242.3z"/>
			<path class="st0" d="M22.2,248.3c0,0,0-0.2,0-0.5C22.2,248.1,22.2,248.3,22.2,248.3z"/>
			<path class="st0" d="M22.2,236.8c0,1.1-0.1,3.9-0.8,4.7c-0.7,0.7-3.5,0.8-4.7,0.8c1.1,0,3.9,0.1,4.7,0.8c0.7,0.7,0.8,3.5,0.8,4.7
				c0-1.1,0.1-3.9,0.8-4.7c0.7-0.7,3.5-0.8,4.7-0.8c-1.1,0-3.9-0.1-4.7-0.8C22.4,240.8,22.3,238,22.2,236.8z"/>
			<path class="st0" d="M22.2,236.4c0,0,0,0.2,0,0.5C22.2,236.5,22.2,236.4,22.2,236.4z"/>
			<path class="st0" d="M28.2,242.3c0,0-0.2,0-0.5,0C28,242.3,28.2,242.3,28.2,242.3z"/>
		</g>
		<g>
			<path class="st0" d="M387.8,206.3c0,0,0.2,0,0.5,0C388,206.3,387.8,206.3,387.8,206.3z"/>
			<path class="st0" d="M393.8,212.2c0,0,0-0.2,0-0.5C393.8,212.1,393.8,212.2,393.8,212.2z"/>
			<path class="st0" d="M393.8,200.8c0,1.1-0.1,3.9-0.8,4.7c-0.7,0.7-3.5,0.8-4.7,0.8c1.1,0,3.9,0.1,4.7,0.8
				c0.7,0.7,0.8,3.5,0.8,4.7c0-1.1,0.1-3.9,0.8-4.7c0.7-0.7,3.5-0.8,4.7-0.8c-1.1,0-3.9-0.1-4.7-0.8
				C393.9,204.7,393.8,201.9,393.8,200.8z"/>
			<path class="st0" d="M393.8,200.3c0,0,0,0.2,0,0.5C393.8,200.5,393.8,200.3,393.8,200.3z"/>
			<path class="st0" d="M399.8,206.3c0,0-0.2,0-0.5,0C399.6,206.3,399.8,206.3,399.8,206.3z"/>
		</g>
		<g>
			<path class="st0" d="M310,77.3c0,0,0.2,0,0.5,0C310.2,77.3,310,77.3,310,77.3z"/>
			<path class="st0" d="M316,83.3c0,0,0-0.2,0-0.5C316,83.1,316,83.3,316,83.3z"/>
			<path class="st0" d="M316,71.8c0,1.1-0.1,3.9-0.8,4.7c-0.7,0.7-3.5,0.8-4.7,0.8c1.1,0,3.9,0.1,4.7,0.8c0.7,0.7,0.8,3.5,0.8,4.7
				c0-1.1,0.1-3.9,0.8-4.7c0.7-0.7,3.5-0.8,4.7-0.8c-1.1,0-3.9-0.1-4.7-0.8C316.1,75.7,316,72.9,316,71.8z"/>
			<path class="st0" d="M316,71.3c0,0,0,0.2,0,0.5C316,71.5,316,71.3,316,71.3z"/>
			<path class="st0" d="M322,77.3c0,0-0.2,0-0.5,0C321.8,77.3,322,77.3,322,77.3z"/>
		</g>
		<g>
			<path class="st0" d="M263.4,372.4c0,0,0.2,0,0.5,0C263.5,372.4,263.4,372.4,263.4,372.4z"/>
			<path class="st0" d="M269.3,378.4c0,0,0-0.2,0-0.5C269.3,378.2,269.3,378.4,269.3,378.4z"/>
			<path class="st0" d="M269.3,366.9c0,1.1-0.1,3.9-0.8,4.7c-0.7,0.7-3.5,0.8-4.7,0.8c1.1,0,3.9,0.1,4.7,0.8
				c0.7,0.7,0.8,3.5,0.8,4.7c0-1.1,0.1-3.9,0.8-4.7c0.7-0.7,3.5-0.8,4.7-0.8c-1.1,0-3.9-0.1-4.7-0.8
				C269.5,370.9,269.4,368.1,269.3,366.9z"/>
			<path class="st0" d="M269.3,366.5c0,0,0,0.2,0,0.5C269.3,366.6,269.3,366.5,269.3,366.5z"/>
			<path class="st0" d="M275.3,372.4c0,0-0.2,0-0.5,0C275.1,372.4,275.3,372.4,275.3,372.4z"/>
		</g>
		<g>
			<path class="st0" d="M51,214.6c0,0,0.2,0,0.5,0C51.2,214.6,51,214.6,51,214.6z"/>
			<path class="st0" d="M57,220.6c0,0,0-0.2,0-0.5C57,220.4,57,220.6,57,220.6z"/>
			<path class="st0" d="M57,209.1c0,1.1-0.1,3.9-0.8,4.7c-0.7,0.7-3.5,0.8-4.7,0.8c1.1,0,3.9,0.1,4.7,0.8c0.7,0.7,0.8,3.5,0.8,4.7
				c0-1.1,0.1-3.9,0.8-4.7c0.7-0.7,3.5-0.8,4.7-0.8c-1.1,0-3.9-0.1-4.7-0.8C57.1,213,57,210.2,57,209.1z"/>
			<path class="st0" d="M57,208.6c0,0,0,0.2,0,0.5C57,208.8,57,208.6,57,208.6z"/>
			<path class="st0" d="M63,214.6c0,0-0.2,0-0.5,0C62.8,214.6,63,214.6,63,214.6z"/>
		</g>
		<g>
			<path class="st0" d="M56.6,324.3c0,0,0.2,0,0.5,0C56.7,324.3,56.6,324.3,56.6,324.3z"/>
			<path class="st0" d="M62.5,330.3c0,0,0-0.2,0-0.5C62.5,330.1,62.5,330.3,62.5,330.3z"/>
			<path class="st0" d="M62.5,318.8c0,1.1-0.1,3.9-0.8,4.7c-0.7,0.7-3.5,0.8-4.7,0.8c1.1,0,3.9,0.1,4.7,0.8c0.7,0.7,0.8,3.5,0.8,4.7
				c0-1.1,0.1-3.9,0.8-4.7c0.7-0.7,3.5-0.8,4.7-0.8c-1.1,0-3.9-0.1-4.7-0.8C62.7,322.7,62.6,319.9,62.5,318.8z"/>
			<path class="st0" d="M62.5,318.3c0,0,0,0.2,0,0.5C62.5,318.5,62.5,318.3,62.5,318.3z"/>
			<path class="st0" d="M68.5,324.3c0,0-0.2,0-0.5,0C68.3,324.3,68.5,324.3,68.5,324.3z"/>
		</g>
	</g>
</g>
</svg>
