<?xml version="1.0" encoding="utf-8"?>
<!-- Generator: Adobe Illustrator 23.0.1, SVG Export Plug-In . SVG Version: 6.00 Build 0)  -->
<svg version="1.1" xmlns="http://www.w3.org/2000/svg" xmlns:xlink="http://www.w3.org/1999/xlink" x="0px" y="0px"
	 viewBox="0 0 152.7 165.8" style="enable-background:new 0 0 152.7 165.8;" xml:space="preserve">
<style type="text/css">
	.st0{fill:#FFAC9D;}
	.st1{fill:#CC887F;}
	.st2{fill:#FFA65B;}
	.st3{clip-path:url(#SVGID_2_);}
	.st4{fill:#352C38;}
	.st5{fill:#FFFFFF;}
	.st6{fill:#765E69;}
	.st7{opacity:0.4;fill:#352C38;}
	.st8{fill:#965450;}
	.st9{fill:#824846;}
	.st10{fill:#FDDEC0;}
	.st11{fill:#E2C6AF;}
	.st12{fill:#6F96BD;}
	.st13{fill:#76413B;}
	.st14{fill:#5D8584;}
	.st15{clip-path:url(#SVGID_4_);}
	.st16{fill:none;stroke:#FFFFFF;stroke-width:0.8855;stroke-miterlimit:10;}
	.st17{fill:#EDCFB7;}
	.st18{fill:#F19C7C;}
	.st19{fill:#D88971;}
	.st20{clip-path:url(#SVGID_6_);}
	.st21{fill:#B26E59;}
	.st22{fill:#7BADAA;}
	.st23{opacity:0.1;fill:#352C38;}
	.st24{clip-path:url(#SVGID_8_);}
	.st25{fill:none;stroke:#765E69;stroke-width:1.4129;stroke-miterlimit:10;}
	.st26{fill:none;stroke:#765E69;stroke-miterlimit:10;}
	.st27{fill:#FC6A5A;}
	.st28{clip-path:url(#SVGID_10_);fill:none;stroke:#F99787;stroke-width:3;stroke-miterlimit:10;}
	.st29{clip-path:url(#SVGID_10_);fill:none;stroke:#F99787;stroke-miterlimit:10;}
	.st30{fill:#BC7068;}
	.st31{fill:#F99787;}
	.st32{fill:#85B7E0;}
</style>
<g id="BACKGROUND">
</g>
<g id="OBJECTS">
	<g>
		<g>
			<path class="st8" d="M71.6,10.1c0,0,12.8-5.7,23-0.4s16.7,26.8,26.1,35.2c9.3,8.4,16.6,18.4,11.1,28c-5.4,9.6-10.8,8.7-5.3,22.1
				c5.4,13.4-17.4,16.6-12.7,26.5c0,0-11.8-21.9-8.3-41.1c3.5-19.1-6.2-64.7-21.8-63.1l-14-0.8L71.6,10.1z"/>
			<path class="st8" d="M75.9,4.8c0,0,6.4-10,19.9-1c6.7,4.4,9.5,15.2,21.7,21.3c13.5,6.6,15.8,12.9,10.2,22.6
				c-3.5,6,7.2,4.8,1.9,19.7C125.5,79,89.9,15.5,89.9,15.5l-14.8-1.9L75.9,4.8z"/>
			<path class="st9" d="M117.3,49.3c0,0,10.5,8.5,7.2,18.5c-3.3,10-12.7,13.7-6.1,27.8s-6.1,17.6-6.1,17.6s-30.7-2.2-27-34.7
				S105,44.9,105,44.9L117.3,49.3z"/>
			<path class="st9" d="M117.3,49.3c0,0,10.5,8.5,7.2,18.5c-3.3,10-12.7,13.7-6.1,27.8s-6.1,17.6-6.1,17.6s-30.7-2.2-27-34.7
				S105,44.9,105,44.9L117.3,49.3z"/>
			<path class="st9" d="M38.9,25.2c0,0-11.7,11.4-10.9,22.3c0.8,11-2.6,19.2-8.3,24.1c-5.7,4.9-5.4,15.4,0,21.6c0,0-3-6.8,0.4-15.1
				c0,0-5,28.4,23.8,31.9c0,0-1-0.4-4.1-8.7c0,0,1.6,7.9,19.2,9.2c17.6,1.3,26.5-22.4,18.2-47.9S52.3,30.2,52.3,30.2L38.9,25.2z"/>
		</g>
		<g>
			<g>
				<path class="st10" d="M143.4,135.7c-5.9-16-42.3-23.6-48.7-28.2c-8.2-5.9-5.6-25.6-5.6-25.6l-13.4,0.4l-13.4-0.4
					c0,0,2.6,19.7-5.6,25.6c-6.4,4.6-42.7,12.3-48.7,28.2c-5.9,16-8.2,30.1-8.2,30.1h75.1h1.5h75.1
					C151.6,165.8,149.4,151.7,143.4,135.7z"/>
				<path class="st11" d="M60,103.8c6.3-0.6,12.6-1.9,18-5c4-2.2,7.6-4.8,10.9-7.8c-0.2-5.1,0.3-9.2,0.3-9.2l-13.4,0.4l-13.4-0.4
					C62.4,81.9,64.3,95.9,60,103.8z"/>
			</g>
			<path class="st12" d="M144.5,135.5c-5.8-15.6-40.2-23.3-48.3-28c-6.4,3.7-14.1,5.9-22.5,5.9c-7.3,0-14.1-1.6-20-4.5
				c-11.3,4.8-40.2,12.5-45.4,26.6c-6,16.1-8.2,30.3-8.2,30.3h75.6h1.5h75.6C152.7,165.8,150.5,151.6,144.5,135.5z"/>
		</g>
		<g>
			<g>
				<path class="st11" d="M53.3,51.1c-2.2-6.7-7.3-5.2-7.8-5c-0.5,0.1-5.8,0.8-4.9,7.8c0.9,7,5,10.8,8.8,9.7
					C53.5,63.1,55.5,57.9,53.3,51.1z"/>
				<path class="st11" d="M97.6,51.1c2.2-6.7,7.3-5.2,7.8-5c0.5,0.1,5.8,0.8,4.9,7.8c-0.9,7-5,10.8-8.8,9.7
					C97.5,63.1,95.4,57.9,97.6,51.1z"/>
				<path class="st10" d="M102.1,40.6c-2.7-29.4-25-27.7-27.1-27.5c-2.1-0.2-24.4-1.9-27.1,27.5c-2.7,29.6,10.5,48.9,27.1,47.8
					C91.6,89.5,104.8,70.2,102.1,40.6z"/>
			</g>
			<g>
				<g>
					<path class="st11" d="M78.1,50.6c0.4,0.9,0.8,1.9,1,2.8c0.3,0.9,0.5,1.9,0.7,2.9c0.2,1,0.4,1.9,0.5,2.9c0.1,1,0.2,2,0.3,2.9
						l0,0.5l-0.3,0.2c-1.2,0.9-2.5,1.9-4,2.6c0.8-1.4,1.8-2.6,2.8-3.8L79,62.4c-0.2-1-0.4-1.9-0.6-2.9c-0.2-1-0.3-1.9-0.3-2.9
						c-0.1-1-0.1-2-0.1-3C77.9,52.6,78,51.6,78.1,50.6z"/>
				</g>
				<path class="st5" d="M62,69.8l26.5-0.3C88.5,69.5,77.9,80,62,69.8z"/>
				<g>
					<path class="st11" d="M68.8,75.1c2.9,0.9,5.9,1.5,8.8,1.2c2.9-0.3,5.7-1.4,8.3-3.1c-1,1.1-2.3,2.1-3.7,2.8
						c-1.4,0.7-2.9,1.1-4.5,1.3C74.6,77.6,71.4,76.8,68.8,75.1z"/>
				</g>
				<g>
					<path class="st4" d="M61,51.1c0,2.2,0.8,4,1.8,4c1,0,1.8-1.8,1.8-4c0-2.2-0.8-4-1.8-4C61.9,47.1,61,48.9,61,51.1z"/>
					<path class="st4" d="M86.3,51.1c0,2.2,0.8,4,1.8,4c1,0,1.8-1.8,1.8-4c0-2.2-0.8-4-1.8-4C87.1,47.1,86.3,48.9,86.3,51.1z"/>
				</g>
				<g>
					<path class="st4" d="M56.5,44.5c0.5-1.2,1.4-2.3,2.4-3.1c1.1-0.8,2.4-1.4,3.8-1.6c1.4-0.1,2.9,0.2,4.1,1.1
						c0.6,0.3,1,0.9,1.5,1.4c0.4,0.5,0.7,1.1,1,1.7c-0.6-0.3-1.1-0.6-1.7-0.9c-0.6-0.2-1.1-0.5-1.6-0.7C65,42,64,41.9,62.9,42
						c-1,0.1-2.1,0.4-3.1,0.9C58.7,43.3,57.7,43.9,56.5,44.5z"/>
				</g>
				<g>
					<path class="st4" d="M81.9,44.5c0.5-1.2,1.4-2.3,2.4-3.1c1.1-0.8,2.4-1.4,3.8-1.6c1.4-0.1,2.9,0.2,4.1,1.1
						c0.6,0.3,1,0.9,1.5,1.4c0.4,0.5,0.7,1.1,1,1.7c-0.6-0.3-1.1-0.6-1.7-0.9c-0.6-0.2-1.1-0.5-1.6-0.7c-1-0.4-2.1-0.5-3.1-0.4
						c-1,0.1-2.1,0.4-3.1,0.9C84.1,43.3,83.1,43.9,81.9,44.5z"/>
				</g>
			</g>
			<g>
				<path class="st8" d="M76,21.4c0,0-10.6-5.1-15.7,7.1c-5.1,12.2-4,29.5-17.7,35.6c-15.5,7-9.8,23.4-9.8,23.4s-10.2-8.3-7.1-16.1
					c3.1-7.9,18.1-18.5,21.2-33.4C50,23,66.1,8.8,76,21.4z"/>
				<g>
					<path class="st8" d="M75.9,21.6c-1.5-0.4-3.2-0.6-4.8-0.4c-1.6,0.2-3.2,0.7-4.6,1.6c-1.4,0.9-2.5,2.1-3.5,3.5
						c-0.9,1.4-1.6,3-2.1,4.7c-2.2,6.7-2.7,14.1-5.3,21c-1.3,3.4-3.2,6.7-5.9,9.1c-1.4,1.2-2.9,2.2-4.6,3C43.5,65,42,66,40.6,67.1
						c-2.7,2.3-4.6,5.5-5.2,9.1c-0.6,3.5-0.1,7.2,1.1,10.6c-1.3-3.3-1.8-7.1-1.3-10.6c0.5-3.6,2.4-7,5.1-9.4
						c1.4-1.2,2.9-2.2,4.5-3.1c1.6-0.8,3.1-1.8,4.3-3c2.6-2.4,4.4-5.6,5.5-9c2.3-6.8,2.6-14,4.6-21.1c0.5-1.8,1.1-3.6,2.1-5.2
						c1-1.6,2.3-3.2,3.9-4.3c1.6-1.1,3.5-1.8,5.5-2.1c1-0.1,1.9-0.2,2.9-0.2c1,0,1.9,0.1,3,0.4L75.9,21.6z"/>
				</g>
				<path class="st8" d="M76.7,4.7L76,21.4c0,0-20.5-9.8-27.9,29.9c0,0-31.6,31.4-24.1,15.9s-8.2-22.6,4.8-33.6s14.2-11,21.6-20.5
					S66.9-4.4,76.7,4.7z"/>
				<path class="st8" d="M76,21.4c0,0,11-6.1,14.5,5.3C94,38.2,101.1,44.7,103,55.4c2.3,13.5-17.3,33.2-14.2,45
					c3.1,11.8,15.4,8.1,15.4,8.1s-11.2-2.6-9.7-10.5c1.6-7.9,29.3-27.3,28.5-37.1c-0.8-9.8-2.2-5.4-6.2-22.7
					C112.9,21,94.1,5.8,75.6,12.1C65.1,2.7,76,21.4,76,21.4z"/>
				<g>
					<path class="st8" d="M75.5,20.6c1.6-0.6,3.1-0.9,4.7-1.1c1.6-0.2,3.3-0.1,4.9,0.4c1.6,0.5,3.1,1.7,3.9,3.2
						c0.8,1.4,1.4,3,1.8,4.5c0.5,1.5,0.9,3,1.4,4.5c0.5,1.5,1.1,2.9,1.8,4.3c0.7,1.4,1.5,2.7,2.4,4c0.4,0.6,0.9,1.3,1.4,1.9
						c0.5,0.6,0.9,1.3,1.4,2c1.6,2.8,2.4,6.1,2.3,9.3c0,3.2-0.8,6.4-1.9,9.3c-0.5,1.5-1.2,2.9-1.8,4.4c-0.7,1.4-1.5,2.8-2,4.2
						c-1.1,2.9-1,6.3,0.3,9.1c-1.5-2.8-1.7-6.2-0.7-9.2c0.5-1.5,1.3-2.9,1.9-4.3c0.6-1.4,1.2-2.9,1.7-4.4c1-3,1.6-6,1.6-9.1
						c0-3.1-0.8-6.1-2.4-8.8c-0.4-0.7-0.8-1.3-1.3-1.9c-0.5-0.6-1-1.3-1.4-1.9c-0.9-1.3-1.8-2.7-2.5-4.1c-0.7-1.4-1.4-2.9-1.9-4.4
						c-0.5-1.5-0.9-3-1.4-4.5c-0.5-1.5-1-2.9-1.8-4.2c-0.7-1.3-1.8-2.2-3.2-2.7c-2.8-0.9-6-0.3-8.8,0.7L75.5,20.6z"/>
				</g>
				<path class="st9" d="M97.5,37.1c0,0,5.7,14.2,3.5,24.3c0,0,4-9.5,2.8-18.2C102.6,34.6,97.5,37.1,97.5,37.1z"/>
			</g>
		</g>
	</g>
</g>
</svg>
