<?xml version="1.0" encoding="utf-8"?>
<!-- Generator: Adobe Illustrator 23.0.1, SVG Export Plug-In . SVG Version: 6.00 Build 0)  -->
<svg version="1.1" xmlns="http://www.w3.org/2000/svg" xmlns:xlink="http://www.w3.org/1999/xlink" x="0px" y="0px"
	 viewBox="0 0 152.7 168.2" style="enable-background:new 0 0 152.7 168.2;" xml:space="preserve">
<style type="text/css">
	.st0{fill:#FFAC9D;}
	.st1{fill:#CC887F;}
	.st2{fill:#FFA65B;}
	.st3{clip-path:url(#SVGID_2_);}
	.st4{fill:#352C38;}
	.st5{fill:#FFFFFF;}
	.st6{fill:#765E69;}
	.st7{opacity:0.4;fill:#352C38;}
	.st8{fill:#965450;}
	.st9{fill:#824846;}
	.st10{fill:#FDDEC0;}
	.st11{fill:#E2C6AF;}
	.st12{fill:#6F96BD;}
	.st13{fill:#76413B;}
	.st14{fill:#5D8584;}
	.st15{clip-path:url(#SVGID_4_);}
	.st16{fill:none;stroke:#FFFFFF;stroke-width:0.8855;stroke-miterlimit:10;}
	.st17{fill:#EDCFB7;}
	.st18{fill:#F19C7C;}
	.st19{fill:#D88971;}
	.st20{clip-path:url(#SVGID_6_);}
	.st21{fill:#B26E59;}
	.st22{fill:#7BADAA;}
	.st23{opacity:0.1;fill:#352C38;}
	.st24{clip-path:url(#SVGID_8_);}
	.st25{fill:none;stroke:#765E69;stroke-width:1.4129;stroke-miterlimit:10;}
	.st26{fill:none;stroke:#765E69;stroke-miterlimit:10;}
	.st27{fill:#FC6A5A;}
	.st28{clip-path:url(#SVGID_10_);fill:none;stroke:#F99787;stroke-width:3;stroke-miterlimit:10;}
	.st29{clip-path:url(#SVGID_10_);fill:none;stroke:#F99787;stroke-miterlimit:10;}
	.st30{fill:#BC7068;}
	.st31{fill:#F99787;}
	.st32{fill:#85B7E0;}
</style>
<g id="BACKGROUND">
</g>
<g id="OBJECTS">
	<g>
		<g>
			<g>
				<path class="st0" d="M143.4,138.1c-5.9-16-42.3-23.6-48.7-28.2c-8.2-5.9-5.6-25.6-5.6-25.6l-13.4,0.4l-13.4-0.4
					c0,0,2.6,19.7-5.6,25.6c-6.4,4.6-42.7,12.3-48.7,28.2S0,168.2,0,168.2h75.1h1.5h75.1C151.6,168.2,149.4,154.1,143.4,138.1z"/>
				<path class="st1" d="M60,106.2c6.3-0.6,12.6-1.9,18-5c4-2.2,7.6-4.8,10.9-7.8c-0.2-5.1,0.3-9.2,0.3-9.2l-13.4,0.4l-13.4-0.4
					C62.4,84.2,64.3,98.2,60,106.2z"/>
			</g>
			<g>
				<path class="st12" d="M144.5,137.9c-4.6-12.4-27.6-19.9-40.7-24.7c-5.7,6.6-15.9,11-27.4,11c-11.6,0-21.7-4.4-27.4-11
					c-13.1,4.9-36.1,12.3-40.7,24.7c-6,16.1-8.2,30.3-8.2,30.3h75.6h1.5h75.6C152.7,168.2,150.5,153.9,144.5,137.9z"/>
				<path class="st32" d="M76.3,129.2c14.7,0,27.3-5.8,32.7-14.2c-1.8-0.7-3.6-1.3-5.2-1.9c-5.7,6.6-15.9,11-27.4,11
					c-11.6,0-21.7-4.4-27.4-11c-1.6,0.6-3.4,1.2-5.3,1.9C49.1,123.4,61.7,129.2,76.3,129.2z"/>
			</g>
		</g>
		<g>
			<g>
				<path class="st1" d="M53.3,53.5c-2.2-6.7-7.3-5.2-7.8-5c-0.5,0.1-5.8,0.8-4.9,7.8c0.9,7,5,10.8,8.8,9.7
					C53.5,65.4,55.5,60.2,53.3,53.5z"/>
				<path class="st1" d="M96.6,53.5c2.2-6.7,7.3-5.2,7.8-5c0.5,0.1,5.8,0.8,4.9,7.8c-0.9,7-5,10.8-8.8,9.7
					C96.5,65.4,94.4,60.2,96.6,53.5z"/>
				<path class="st0" d="M102.1,42.9c-2.7-29.4-25-27.7-27.1-27.5c-2.1-0.2-24.4-1.9-27.1,27.5c-2.7,29.6,10.5,48.9,27.1,47.8
					C91.6,91.8,104.8,72.5,102.1,42.9z"/>
			</g>
			<g>
				<g>
					<path class="st1" d="M78.1,53c0.6,1.9,1,3.8,1.3,5.7c0.3,1.9,0.6,3.9,0.8,5.8l0,0.3l-0.2,0.1c-0.6,0.5-1.2,1-1.8,1.5
						c-0.6,0.5-1.2,1-1.9,1.4c0.5-0.6,1-1.2,1.5-1.8c0.5-0.6,1-1.2,1.6-1.7l-0.1,0.4c-0.4-1.9-0.7-3.9-0.9-5.8
						C78.2,56.9,78.1,55,78.1,53z"/>
				</g>
				<path class="st5" d="M62,72.1l26.5-0.3C88.5,71.9,77.9,82.3,62,72.1z"/>
				<g>
					<path class="st1" d="M68.8,77.5c2.9,0.9,5.9,1.4,8.8,1.1c2.9-0.3,5.7-1.4,8.3-3.1c-1,1.2-2.3,2.2-3.7,2.9
						c-1.4,0.7-3,1.2-4.5,1.3C74.6,80,71.4,79.2,68.8,77.5z"/>
				</g>
				<g>
					<path class="st4" d="M61,53.4c0,2.2,0.8,4,1.8,4s1.8-1.8,1.8-4c0-2.2-0.8-4-1.8-4S61,51.2,61,53.4z"/>
					<path class="st4" d="M86.3,53.4c0,2.2,0.8,4,1.8,4c1,0,1.8-1.8,1.8-4c0-2.2-0.8-4-1.8-4C87.1,49.4,86.3,51.2,86.3,53.4z"/>
				</g>
				<g>
					<path class="st4" d="M56.5,46.9c0.5-1.2,1.4-2.3,2.4-3.1c1.1-0.8,2.4-1.4,3.8-1.6c1.4-0.1,2.9,0.2,4.1,1.1
						c0.6,0.3,1,0.9,1.5,1.4c0.4,0.5,0.7,1.1,1,1.7c-0.6-0.3-1.1-0.6-1.7-0.9c-0.6-0.2-1.1-0.5-1.6-0.7c-1-0.4-2.1-0.5-3.1-0.4
						c-1,0.1-2.1,0.4-3.1,0.9C58.7,45.6,57.7,46.2,56.5,46.9z"/>
				</g>
				<g>
					<path class="st4" d="M81.9,46.9c0.5-1.2,1.4-2.3,2.4-3.1c1.1-0.8,2.4-1.4,3.8-1.6c1.4-0.1,2.9,0.2,4.1,1.1
						c0.6,0.3,1,0.9,1.5,1.4c0.4,0.5,0.7,1.1,1,1.7c-0.6-0.3-1.1-0.6-1.7-0.9c-0.6-0.2-1.1-0.5-1.6-0.7c-1-0.4-2.1-0.5-3.1-0.4
						c-1,0.1-2.1,0.4-3.1,0.9C84.1,45.6,83.1,46.2,81.9,46.9z"/>
				</g>
			</g>
			<g>
				<path class="st8" d="M47.9,57.4c0,0-7-29-3-37.3c4-8.3,8.7-5.7,8.7-5.7s6.3-17.3,19.7-14c13.3,3.3,21,9.3,28,3.3
					c0,0,0,5.3-4,7.7c0,0,8.3,0,11.7-8c0,0,5,17.1-6,23.1c0,0,0.8,21.4,0,29.2l-3-0.3c0,0-1.7-11.3-2.7-25.7c0,0-17.3,9.3-38.3-7
					c0,0,3,11-9,18l1,15.3L47.9,57.4z"/>
				<path class="st13" d="M90.6,31.9c-5-0.3-9.9-1.4-14-3c-9-3.5-16.8-13.7-17.4-23.7c-3.8,4.1-5.7,9.2-5.7,9.2s-4.7-2.7-8.7,5.7
					c-4,8.3,3,37.3,3,37.3l3-1.3l-1-15.3c12-7,9-18,9-18C72,32.9,83.7,33.1,90.6,31.9z"/>
			</g>
		</g>
	</g>
</g>
</svg>
