<?xml version="1.0" encoding="utf-8"?>
<!-- Generator: Adobe Illustrator 23.0.1, SVG Export Plug-In . SVG Version: 6.00 Build 0)  -->
<svg version="1.1" xmlns="http://www.w3.org/2000/svg" xmlns:xlink="http://www.w3.org/1999/xlink" x="0px" y="0px"
	 viewBox="0 0 152.7 175.4" style="enable-background:new 0 0 152.7 175.4;" xml:space="preserve">
<style type="text/css">
	.st0{fill:#FFAC9D;}
	.st1{fill:#CC887F;}
	.st2{fill:#FFA65B;}
	.st3{clip-path:url(#SVGID_2_);}
	.st4{fill:#352C38;}
	.st5{fill:#FFFFFF;}
	.st6{fill:#765E69;}
	.st7{opacity:0.4;fill:#352C38;}
	.st8{fill:#965450;}
	.st9{fill:#824846;}
	.st10{fill:#FDDEC0;}
	.st11{fill:#E2C6AF;}
	.st12{fill:#6F96BD;}
	.st13{fill:#76413B;}
	.st14{fill:#5D8584;}
	.st15{clip-path:url(#SVGID_4_);}
	.st16{fill:none;stroke:#FFFFFF;stroke-width:0.8855;stroke-miterlimit:10;}
	.st17{fill:#EDCFB7;}
	.st18{fill:#F19C7C;}
	.st19{fill:#D88971;}
	.st20{clip-path:url(#SVGID_6_);}
	.st21{fill:#B26E59;}
	.st22{fill:#7BADAA;}
	.st23{opacity:0.1;fill:#352C38;}
	.st24{clip-path:url(#SVGID_8_);}
	.st25{fill:none;stroke:#765E69;stroke-width:1.4129;stroke-miterlimit:10;}
	.st26{fill:none;stroke:#765E69;stroke-miterlimit:10;}
	.st27{fill:#FC6A5A;}
	.st28{clip-path:url(#SVGID_10_);fill:none;stroke:#F99787;stroke-width:3;stroke-miterlimit:10;}
	.st29{clip-path:url(#SVGID_10_);fill:none;stroke:#F99787;stroke-miterlimit:10;}
	.st30{fill:#BC7068;}
	.st31{fill:#F99787;}
	.st32{fill:#85B7E0;}
</style>
<g id="BACKGROUND">
</g>
<g id="OBJECTS">
	<g>
		<g>
			<g>
				<path class="st18" d="M143.4,145.3c-5.9-16-42.3-23.6-48.7-28.2c-8.2-5.9-5.6-25.6-5.6-25.6l-13.4,0.4l-13.4-0.4
					c0,0,2.6,19.7-5.6,25.6c-6.4,4.6-42.7,12.3-48.7,28.2c-5.9,16-8.2,30.1-8.2,30.1h75.1h1.5h75.1
					C151.6,175.4,149.4,161.3,143.4,145.3z"/>
				<path class="st19" d="M60,113.4c6.3-0.6,12.6-1.9,18-5c4-2.2,7.6-4.8,10.9-7.8c-0.2-5.1,0.3-9.2,0.3-9.2l-13.4,0.4l-13.4-0.4
					C62.4,91.4,64.3,105.4,60,113.4z"/>
			</g>
			<g>
				<path class="st14" d="M144.5,145.1c-5.8-15.6-40.2-23.3-48.3-28c-6.4,3.7-14.1,5.9-22.5,5.9c-7.3,0-14.1-1.6-20-4.5
					c-11.3,4.8-40.2,12.5-45.4,26.6c-6,16.1-8.2,30.3-8.2,30.3h75.6h1.5h75.6C152.7,175.4,150.5,161.2,144.5,145.1z"/>
				<path class="st22" d="M53.7,118.5c0,0,4.9-3.2,6-8l32.2-1.6c0,0,1.1,6.4,5.6,8.9C97.4,117.8,73.9,131.2,53.7,118.5z"/>
			</g>
		</g>
		<g>
			<g>
				<path class="st19" d="M53.3,60.7c-2.2-6.7-7.3-5.2-7.8-5c-0.5,0.1-5.8,0.8-4.9,7.8c0.9,7,5,10.8,8.8,9.7
					C53.5,72.7,55.5,67.5,53.3,60.7z"/>
				<path class="st19" d="M97.6,60.7c2.2-6.7,7.3-5.2,7.8-5c0.5,0.1,5.8,0.8,4.9,7.8c-0.9,7-5,10.8-8.8,9.7
					C97.5,72.7,95.4,67.5,97.6,60.7z"/>
				<path class="st18" d="M102.1,50.2c-2.7-29.4-25-27.7-27.1-27.5c-2.1-0.2-24.4-1.9-27.1,27.5C45.1,79.7,58.3,99,74.9,98
					C91.6,99,104.8,79.7,102.1,50.2z"/>
			</g>
			<g>
				<g>
					<path class="st21" d="M78.1,60.2c0.6,1.9,1,3.8,1.3,5.7c0.3,1.9,0.6,3.9,0.8,5.8l0,0.3l-0.2,0.1c-0.6,0.5-1.2,1-1.8,1.5
						c-0.6,0.5-1.2,1-1.9,1.4c0.5-0.6,1-1.2,1.5-1.8c0.5-0.6,1-1.2,1.6-1.7l-0.1,0.4c-0.4-1.9-0.7-3.9-0.9-5.8
						C78.2,64.2,78.1,62.2,78.1,60.2z"/>
				</g>
				<path class="st5" d="M62,79.4l26.5-0.3C88.5,79.1,77.9,89.5,62,79.4z"/>
				<g>
					<path class="st21" d="M68.8,84.7c2.9,0.9,5.9,1.4,8.8,1.1c2.9-0.3,5.7-1.4,8.3-3.1c-1,1.2-2.3,2.2-3.7,2.9
						c-1.4,0.7-3,1.2-4.5,1.3C74.6,87.2,71.4,86.4,68.8,84.7z"/>
				</g>
				<g>
					<path class="st4" d="M61,60.7c0,2.2,0.8,4,1.8,4c1,0,1.8-1.8,1.8-4c0-2.2-0.8-4-1.8-4C61.9,56.6,61,58.4,61,60.7z"/>
					<path class="st4" d="M86.3,60.7c0,2.2,0.8,4,1.8,4c1,0,1.8-1.8,1.8-4c0-2.2-0.8-4-1.8-4C87.1,56.6,86.3,58.4,86.3,60.7z"/>
				</g>
				<g>
					<path class="st4" d="M56.5,54.1c0.5-1.2,1.4-2.3,2.4-3.1c1.1-0.8,2.4-1.4,3.8-1.6c1.4-0.1,2.9,0.2,4.1,1.1
						c0.6,0.3,1,0.9,1.5,1.4c0.4,0.5,0.7,1.1,1,1.7c-0.6-0.3-1.1-0.6-1.7-0.9c-0.6-0.2-1.1-0.5-1.6-0.7c-1-0.4-2.1-0.5-3.1-0.4
						c-1,0.1-2.1,0.4-3.1,0.9C58.7,52.9,57.7,53.5,56.5,54.1z"/>
				</g>
				<g>
					<path class="st4" d="M81.9,54.1c0.5-1.2,1.4-2.3,2.4-3.1c1.1-0.8,2.4-1.4,3.8-1.6c1.4-0.1,2.9,0.2,4.1,1.1
						c0.6,0.3,1,0.9,1.5,1.4c0.4,0.5,0.7,1.1,1,1.7c-0.6-0.3-1.1-0.6-1.7-0.9c-0.6-0.2-1.1-0.5-1.6-0.7c-1-0.4-2.1-0.5-3.1-0.4
						c-1,0.1-2.1,0.4-3.1,0.9C84.1,52.9,83.1,53.5,81.9,54.1z"/>
				</g>
			</g>
			<g>
				<path class="st10" d="M102.2,66.3c7.7-19,4.3-41.7,4.3-41.7c2.7-9-0.7-17.3-0.7-17.3c0,5.7-5,12.7-5,12.7c4.3-6.7,0.7-20,0.7-20
					c-2.7,5-14.3,13.7-14.3,13.7l5.7-8.3c-13.3-0.7-21.7,6-21.7,6l6.3-7c-18,1.7-25.3,14-25.3,14c-18.3,7.7-4.3,49.3-4.3,49.3h2
					V52.3c0,0,6.7-3.3,6.3-20.3c0,0,16.7,5.3,36.7,0c0,0-2.3,17.3,7.3,19l-0.3,15.7L102.2,66.3z"/>
				<path class="st23" d="M72.3,34.3c-3.7-1.6-7.2-3.5-10.4-5.7c-4.3-3-7.1-7-8.8-11.5c-0.6,0.7-0.8,1.2-0.8,1.2
					c-18.3,7.7-4.3,49.3-4.3,49.3h2V52.3c0,0,6.7-3.3,6.3-20.3C56.2,32,62.6,34,72.3,34.3z"/>
			</g>
		</g>
	</g>
</g>
</svg>
