<?xml version="1.0" encoding="utf-8"?>
<!-- Generator: Adobe Illustrator 23.0.1, SVG Export Plug-In . SVG Version: 6.00 Build 0)  -->
<svg version="1.1" xmlns="http://www.w3.org/2000/svg" xmlns:xlink="http://www.w3.org/1999/xlink" x="0px" y="0px"
	 viewBox="0 0 159 178.4" style="enable-background:new 0 0 159 178.4;" xml:space="preserve">
<style type="text/css">
	.st0{fill:#FFAC9D;}
	.st1{fill:#CC887F;}
	.st2{fill:#FFA65B;}
	.st3{clip-path:url(#SVGID_2_);}
	.st4{fill:#352C38;}
	.st5{fill:#FFFFFF;}
	.st6{fill:#765E69;}
	.st7{opacity:0.4;fill:#352C38;}
	.st8{fill:#965450;}
	.st9{fill:#824846;}
	.st10{fill:#FDDEC0;}
	.st11{fill:#E2C6AF;}
	.st12{fill:#6F96BD;}
	.st13{fill:#76413B;}
	.st14{fill:#5D8584;}
	.st15{clip-path:url(#SVGID_4_);}
	.st16{fill:none;stroke:#FFFFFF;stroke-width:0.8855;stroke-miterlimit:10;}
	.st17{fill:#EDCFB7;}
	.st18{fill:#F19C7C;}
	.st19{fill:#D88971;}
	.st20{clip-path:url(#SVGID_6_);}
	.st21{fill:#B26E59;}
	.st22{fill:#7BADAA;}
	.st23{opacity:0.1;fill:#352C38;}
	.st24{clip-path:url(#SVGID_8_);}
	.st25{fill:none;stroke:#765E69;stroke-width:1.4129;stroke-miterlimit:10;}
	.st26{fill:none;stroke:#765E69;stroke-miterlimit:10;}
	.st27{fill:#FC6A5A;}
	.st28{clip-path:url(#SVGID_10_);fill:none;stroke:#F99787;stroke-width:3;stroke-miterlimit:10;}
	.st29{clip-path:url(#SVGID_10_);fill:none;stroke:#F99787;stroke-miterlimit:10;}
	.st30{fill:#BC7068;}
	.st31{fill:#F99787;}
	.st32{fill:#85B7E0;}
</style>
<g id="BACKGROUND">
</g>
<g id="OBJECTS">
	<g>
		<g>
			<g>
				<path class="st8" d="M146.6,148.3c-5.9-16-42.3-23.6-48.7-28.2c-8.2-5.9-5.6-25.6-5.6-25.6l-13.4,0.4l-13.4-0.4
					c0,0,2.6,19.7-5.6,25.6c-6.4,4.6-42.7,12.3-48.7,28.2s-8.2,30.1-8.2,30.1h75.1h1.5h75.1C154.7,178.4,152.5,164.3,146.6,148.3z"
					/>
				<path class="st13" d="M63.1,116.4c6.3-0.6,12.6-1.9,18-5c4-2.2,7.6-4.8,10.9-7.8c-0.2-5.1,0.3-9.2,0.3-9.2l-13.4,0.4l-13.4-0.4
					C65.6,94.4,67.4,108.4,63.1,116.4z"/>
			</g>
			<g>
				<path class="st2" d="M147.6,148.1c-5.8-15.6-40.2-23.3-48.3-28c-6.4,3.7-14.1,5.9-22.5,5.9c-7.3,0-14.1-1.6-20-4.5
					c-11.3,4.8-40.2,12.5-45.4,26.6c-6,16.1-8.2,30.3-8.2,30.3h75.6h1.5h75.6C155.9,178.4,153.6,164.2,147.6,148.1z"/>
				<g>
					<g>
						<defs>
							<path id="SVGID_7_" d="M147.6,148.1c-5.8-15.6-40.2-23.3-48.3-28c-6.4,3.7-14.1,5.9-22.5,5.9c-7.3,0-14.1-1.6-20-4.5
								c-11.3,4.8-40.2,12.5-45.4,26.6c-6,16.1-8.2,30.3-8.2,30.3h75.6h1.5h75.6C155.9,178.4,153.6,164.2,147.6,148.1z"/>
						</defs>
						<clipPath id="SVGID_2_">
							<use xlink:href="#SVGID_7_"  style="overflow:visible;"/>
						</clipPath>
						<g class="st3">
							<line class="st25" x1="133.2" y1="121.3" x2="133.2" y2="193.8"/>
							<line class="st25" x1="123.9" y1="121.3" x2="123.9" y2="193.8"/>
							<line class="st25" x1="114.5" y1="121.3" x2="114.5" y2="193.8"/>
							<line class="st25" x1="105.1" y1="121.3" x2="105.1" y2="193.8"/>
							<line class="st25" x1="95.7" y1="121.3" x2="95.7" y2="193.8"/>
							<line class="st25" x1="86.3" y1="121.3" x2="86.3" y2="193.8"/>
							<line class="st25" x1="76.9" y1="121.3" x2="76.9" y2="193.8"/>
							<line class="st25" x1="67.5" y1="121.3" x2="67.5" y2="193.8"/>
							<line class="st25" x1="58.1" y1="121.3" x2="58.1" y2="193.8"/>
							<line class="st25" x1="48.7" y1="121.3" x2="48.7" y2="193.8"/>
							<line class="st25" x1="39.3" y1="121.3" x2="39.3" y2="193.8"/>
							<line class="st25" x1="29.9" y1="121.3" x2="29.9" y2="193.8"/>
							<line class="st25" x1="20.5" y1="121.3" x2="20.5" y2="193.8"/>
							<line class="st25" x1="11.1" y1="121.3" x2="11.1" y2="193.8"/>
							<line class="st25" x1="142.6" y1="121.3" x2="142.6" y2="193.8"/>
							<line class="st26" x1="-1.9" y1="142.7" x2="157.1" y2="142.7"/>
							<line class="st26" x1="-1.9" y1="152.1" x2="157.1" y2="152.1"/>
							<line class="st26" x1="-1.9" y1="161.5" x2="157.1" y2="161.5"/>
							<line class="st26" x1="-1.9" y1="170.9" x2="157.1" y2="170.9"/>
							<line class="st26" x1="-1.9" y1="133.3" x2="157.1" y2="133.3"/>
						</g>
					</g>
				</g>
			</g>
		</g>
		<g>
			<g>
				<path class="st13" d="M56.5,63.7c-2.2-6.7-7.3-5.2-7.8-5c-0.5,0.1-5.8,0.8-4.9,7.8c0.9,7,5,10.8,8.8,9.7
					C56.6,75.6,58.6,70.4,56.5,63.7z"/>
				<path class="st13" d="M100.7,63.7c2.2-6.7,7.3-5.2,7.8-5c0.5,0.1,5.8,0.8,4.9,7.8c-0.9,7-5,10.8-8.8,9.7
					C100.6,75.6,98.6,70.4,100.7,63.7z"/>
				<path class="st8" d="M105.2,53.2c-2.7-29.4-25-27.7-27.1-27.5c-2.1-0.2-24.4-1.9-27.1,27.5C48.2,82.7,61.4,102,78.1,101
					C94.7,102,107.9,82.7,105.2,53.2z"/>
			</g>
			<g>
				<g>
					<path class="st13" d="M79.5,78c0.3-0.8,0.8-1.4,1.3-2c0.5-0.6,1.1-1.1,1.7-1.5l-0.1,0.4c-0.2-1.9-0.5-3.9-0.7-5.8
						c-0.2-2-0.4-3.9-0.6-5.9c0.4,1.9,0.7,3.9,1.1,5.8c0.3,1.9,0.7,3.9,1,5.8l0,0.2l-0.2,0.2c-0.5,0.6-1,1.2-1.6,1.7
						C81,77.3,80.3,77.7,79.5,78z"/>
				</g>
				<g>
					<path class="st4" d="M64.2,63.6c0,2.2,0.8,4,1.8,4c1,0,1.8-1.8,1.8-4s-0.8-4-1.8-4C65,59.6,64.2,61.4,64.2,63.6z"/>
					<path class="st4" d="M89.4,63.6c0,2.2,0.8,4,1.8,4c1,0,1.8-1.8,1.8-4s-0.8-4-1.8-4C90.2,59.6,89.4,61.4,89.4,63.6z"/>
				</g>
				<g>
					<path class="st4" d="M59.7,57.1c0.5-1.2,1.4-2.3,2.4-3.1c1.1-0.8,2.4-1.4,3.8-1.6c1.4-0.1,2.9,0.2,4.1,1.1
						c0.6,0.3,1,0.9,1.5,1.4c0.4,0.5,0.7,1.1,1,1.7c-0.6-0.3-1.1-0.6-1.7-0.9c-0.6-0.2-1.1-0.5-1.6-0.7c-1-0.4-2.1-0.5-3.1-0.4
						c-1,0.1-2.1,0.4-3.1,0.9C61.9,55.9,60.8,56.4,59.7,57.1z"/>
				</g>
				<g>
					<path class="st4" d="M85.1,57.1c0.5-1.2,1.4-2.3,2.4-3.1c1.1-0.8,2.4-1.4,3.8-1.6c1.4-0.1,2.9,0.2,4.1,1.1
						c0.6,0.3,1,0.9,1.5,1.4c0.4,0.5,0.7,1.1,1,1.7c-0.6-0.3-1.1-0.6-1.7-0.9c-0.6-0.2-1.1-0.5-1.6-0.7c-1-0.4-2.1-0.5-3.1-0.4
						c-1,0.1-2.1,0.4-3.1,0.9C87.3,55.9,86.2,56.4,85.1,57.1z"/>
				</g>
				<path class="st5" d="M66.9,82.3l24.8-0.2C91.6,82.1,80.9,92.1,66.9,82.3z"/>
			</g>
			<g>
				<path class="st4" d="M49.4,36.3c0,0-1.5,36.8,2.8,54c3.2,13,12.5,16.5,12.5,16.5s22,8.5,34.3-5.3c3.5-4,9-24.8,6.5-62l-9-3.8
					c0,0,1.5,18.3,6,20.5c0,0-1.3,32.6-7,36.5c-4.8,3.3,3.3-15-6-14.8s-9.5,0.5-9.5,0.5s-16.5-2.8-16.3,3.8s2,10.8-0.3,10.8
					s-10.5-5.3-9-39.5c0,0,4.8-1.8,4.8-13.8C59.1,24,49.4,36.3,49.4,36.3z"/>
				<path class="st4" d="M58.1,34.3c0,0,7.2,9.8,15.8,9.8c4.8,0,0-8.3,0-8.3s6.8,10.5,13.8,10.3s1-10.3,1-10.3s5.3,10.8,11.8,10.3
					s1-11,1-11s3,11.3,9.3,9.8s-1.5-11.3-1.5-11.3s5.3,5,7.5,4.8s2.3-7-5.5-10.3c0,0,7.8-0.3,8-4c0.3-4.2-4.8-5.8-16.3-4.5
					c0,0,9.5-4,7.5-7.5s-10.5,1.5-10.5,1.5s8.5-4.8,3.5-8.5c-4.1-3.1-25.5-3-38.5,12.5c0,0,27-14.3,23.8-16.3
					C86.3-0.1,54,7.1,49.1,20.8c-6,16.8-1.5,26.3,0.4,37.7L58.1,34.3z"/>
			</g>
		</g>
	</g>
</g>
</svg>
