<?xml version="1.0" encoding="utf-8"?>
<!-- Generator: Adobe Illustrator 23.0.1, SVG Export Plug-In . SVG Version: 6.00 Build 0)  -->
<svg version="1.1" xmlns="http://www.w3.org/2000/svg" xmlns:xlink="http://www.w3.org/1999/xlink" x="0px" y="0px"
	 viewBox="0 0 152.7 160.8" style="enable-background:new 0 0 152.7 160.8;" xml:space="preserve">
<style type="text/css">
	.st0{fill:#FFAC9D;}
	.st1{fill:#CC887F;}
	.st2{fill:#FFA65B;}
	.st3{clip-path:url(#SVGID_2_);}
	.st4{fill:#352C38;}
	.st5{fill:#FFFFFF;}
	.st6{fill:#765E69;}
	.st7{opacity:0.4;fill:#352C38;}
	.st8{fill:#965450;}
	.st9{fill:#824846;}
	.st10{fill:#FDDEC0;}
	.st11{fill:#E2C6AF;}
	.st12{fill:#6F96BD;}
	.st13{fill:#76413B;}
	.st14{fill:#5D8584;}
	.st15{clip-path:url(#SVGID_4_);}
	.st16{fill:none;stroke:#FFFFFF;stroke-width:0.8855;stroke-miterlimit:10;}
	.st17{fill:#EDCFB7;}
	.st18{fill:#F19C7C;}
	.st19{fill:#D88971;}
	.st20{clip-path:url(#SVGID_6_);}
	.st21{fill:#B26E59;}
	.st22{fill:#7BADAA;}
	.st23{opacity:0.1;fill:#352C38;}
	.st24{clip-path:url(#SVGID_8_);}
	.st25{fill:none;stroke:#765E69;stroke-width:1.4129;stroke-miterlimit:10;}
	.st26{fill:none;stroke:#765E69;stroke-miterlimit:10;}
	.st27{fill:#FC6A5A;}
	.st28{clip-path:url(#SVGID_10_);fill:none;stroke:#F99787;stroke-width:3;stroke-miterlimit:10;}
	.st29{clip-path:url(#SVGID_10_);fill:none;stroke:#F99787;stroke-miterlimit:10;}
	.st30{fill:#BC7068;}
	.st31{fill:#F99787;}
	.st32{fill:#85B7E0;}
</style>
<g id="BACKGROUND">
</g>
<g id="OBJECTS">
	<g>
		<g>
			<g>
				<path class="st10" d="M143.4,130.7c-5.9-16-42.3-23.6-48.7-28.2c-8.2-5.9-5.6-25.6-5.6-25.6l-13.4,0.4l-13.4-0.4
					c0,0,2.6,19.7-5.6,25.6c-6.4,4.6-42.7,12.3-48.7,28.2S0,160.8,0,160.8h75.1h1.5h75.1C151.6,160.8,149.4,146.7,143.4,130.7z"/>
				<path class="st11" d="M60,98.8c6.3-0.6,12.6-1.9,18-5c4-2.2,7.6-4.8,10.9-7.8c-0.2-5.1,0.3-9.2,0.3-9.2l-13.4,0.4l-13.4-0.4
					C62.4,76.8,64.3,90.9,60,98.8z"/>
			</g>
			<g>
				<g>
					<path class="st27" d="M144.5,130.5c-5.8-15.6-40.2-23.3-48.3-28c-0.5,0.3-1.1,0.6-1.7,0.9l-17.7,20l-24.5-18.9
						c-12.1,4.8-39,12.4-44,26c-6,16.1-8.2,30.3-8.2,30.3h152.7C152.7,160.8,150.5,146.6,144.5,130.5z"/>
					<g>
						<defs>
							<path id="SVGID_9_" d="M144.5,130.5c-5.8-15.6-40.2-23.3-48.3-28c-0.5,0.3-1.1,0.6-1.7,0.9l-17.7,20l-24.5-18.9
								c-12.1,4.8-39,12.4-44,26c-6,16.1-8.2,30.3-8.2,30.3h152.7C152.7,160.8,150.5,146.6,144.5,130.5z"/>
						</defs>
						<clipPath id="SVGID_2_">
							<use xlink:href="#SVGID_9_"  style="overflow:visible;"/>
						</clipPath>
						
							<line style="clip-path:url(#SVGID_2_);fill:none;stroke:#F99787;stroke-width:3;stroke-miterlimit:10;" x1="1.1" y1="149.2" x2="152.1" y2="149.2"/>
						
							<line style="clip-path:url(#SVGID_2_);fill:none;stroke:#F99787;stroke-miterlimit:10;" x1="1.1" y1="153.9" x2="152.1" y2="153.9"/>
					</g>
				</g>
				<g>
					<polygon class="st30" points="71.1,112.4 76.8,123.4 80.8,111.1 83.8,117.1 76.5,124.7 68.1,117.4 					"/>
					<polygon class="st31" points="50.8,104.7 65.8,126.4 71.1,112.4 55.5,96.7 					"/>
					<polygon class="st31" points="100.1,103.1 86.1,125.1 80.8,111.1 96.5,95.4 					"/>
				</g>
			</g>
		</g>
		<g>
			<g>
				<path class="st11" d="M53.3,46.1c-2.2-6.7-7.3-5.2-7.8-5c-0.5,0.1-5.8,0.8-4.9,7.8c0.9,7,5,10.8,8.8,9.7
					C53.5,58.1,55.5,52.9,53.3,46.1z"/>
				<path class="st11" d="M95.3,45.5c2.2-6.7,7.3-5.2,7.8-5c0.5,0.1,5.8,0.8,4.9,7.8c-0.9,7-5,10.8-8.8,9.7
					C95.2,57.4,93.1,52.2,95.3,45.5z"/>
				<path class="st10" d="M102.1,35.6C99.4,6.2,77,7.8,74.9,8.1c-2.1-0.2-24.4-1.9-27.1,27.5c-2.7,29.6,10.5,48.9,27.1,47.8
					C91.6,84.5,104.8,65.1,102.1,35.6z"/>
			</g>
			<g>
				<g>
					<path class="st11" d="M78.1,45.6c0.4,0.9,0.8,1.9,1,2.8c0.3,0.9,0.5,1.9,0.7,2.9c0.2,1,0.4,1.9,0.5,2.9c0.1,1,0.2,2,0.3,2.9
						l0,0.5l-0.3,0.2c-1.2,0.9-2.5,1.9-4,2.6c0.8-1.4,1.8-2.6,2.8-3.8L79,57.4c-0.2-1-0.4-1.9-0.6-2.9c-0.2-1-0.3-1.9-0.3-2.9
						c-0.1-1-0.1-2-0.1-3C77.9,47.6,78,46.6,78.1,45.6z"/>
				</g>
				<path class="st5" d="M62,64.8l26.5-0.3C88.5,64.5,77.9,74.9,62,64.8z"/>
				<g>
					<path class="st11" d="M68.8,70.1c2.9,0.9,5.9,1.5,8.8,1.2c2.9-0.3,5.7-1.4,8.3-3.1c-1,1.1-2.3,2.1-3.7,2.8
						c-1.4,0.7-2.9,1.1-4.5,1.3C74.6,72.6,71.4,71.8,68.8,70.1z"/>
				</g>
				<g>
					<ellipse class="st4" cx="62.9" cy="46.1" rx="1.8" ry="4"/>
					<path class="st4" d="M86.3,46.1c0,2.2,0.8,4,1.8,4c1,0,1.8-1.8,1.8-4c0-2.2-0.8-4-1.8-4C87.1,42.1,86.3,43.8,86.3,46.1z"/>
				</g>
				<g>
					<path class="st4" d="M56.5,39.5c0.5-1.2,1.4-2.3,2.4-3.1c1.1-0.8,2.4-1.4,3.8-1.6c1.4-0.1,2.9,0.2,4.1,1.1
						c0.6,0.3,1,0.9,1.5,1.4c0.4,0.5,0.7,1.1,1,1.7c-0.6-0.3-1.1-0.6-1.7-0.9c-0.6-0.2-1.1-0.5-1.6-0.7C65,37,64,36.9,62.9,37
						c-1,0.1-2.1,0.4-3.1,0.9C58.7,38.3,57.7,38.9,56.5,39.5z"/>
				</g>
				<g>
					<path class="st4" d="M81.9,39.5c0.5-1.2,1.4-2.3,2.4-3.1c1.1-0.8,2.4-1.4,3.8-1.6c1.4-0.1,2.9,0.2,4.1,1.1
						c0.6,0.3,1,0.9,1.5,1.4c0.4,0.5,0.7,1.1,1,1.7c-0.6-0.3-1.1-0.6-1.7-0.9c-0.6-0.2-1.1-0.5-1.6-0.7c-1-0.4-2.1-0.5-3.1-0.4
						c-1,0.1-2.1,0.4-3.1,0.9C84.1,38.3,83.1,38.9,81.9,39.5z"/>
				</g>
			</g>
			<g>
				<path class="st4" d="M57.1,24.1c0,0,8.1,10.6,20.7,12.3l-3-4.3c0,0,5,3.7,13.7,5.3c0,0,1.7-6-2.3-12.3c0,0,5.7,12.3,12.3,17
					c0,0,2.7-8.7-0.7-13.7c0,0,2.1,2.4,8.5,10c0,0,7.1-21.5-10.2-33.2s-35.8-1.1-41.8,5.2c0,0-10.7-3.6-13.1,10.7
					C39,32.9,43.5,42,43.5,42s3.8-2.5,3.8,5.2l0.9,7.8h2.3l0.3-15.7C50.8,39.4,56.7,37.1,57.1,24.1z"/>
				<path class="st4" d="M99.2,54.6c0.8,0,1.7-0.1,2.5-0.1c2.3-8.2,0.7-23.1,0.7-23.1s-7.8-15.5-4.7-3
					C100.4,38.7,99.5,51.4,99.2,54.6z"/>
			</g>
		</g>
	</g>
</g>
</svg>
