<?xml version="1.0" encoding="utf-8"?>
<!-- Generator: Adobe Illustrator 23.0.1, SVG Export Plug-In . SVG Version: 6.00 Build 0)  -->
<svg version="1.1" xmlns="http://www.w3.org/2000/svg" xmlns:xlink="http://www.w3.org/1999/xlink" x="0px" y="0px"
	 viewBox="0 0 157 165.4" style="enable-background:new 0 0 157 165.4;" xml:space="preserve">
<style type="text/css">
	.st0{fill:#FFAC9D;}
	.st1{fill:#CC887F;}
	.st2{fill:#FFA65B;}
	.st3{clip-path:url(#SVGID_2_);}
	.st4{fill:#352C38;}
	.st5{fill:#FFFFFF;}
	.st6{fill:#765E69;}
	.st7{opacity:0.4;fill:#352C38;}
	.st8{fill:#965450;}
	.st9{fill:#824846;}
	.st10{fill:#FDDEC0;}
	.st11{fill:#E2C6AF;}
	.st12{fill:#6F96BD;}
	.st13{fill:#76413B;}
	.st14{fill:#5D8584;}
	.st15{clip-path:url(#SVGID_4_);}
	.st16{fill:none;stroke:#FFFFFF;stroke-width:0.8855;stroke-miterlimit:10;}
	.st17{fill:#EDCFB7;}
	.st18{fill:#F19C7C;}
	.st19{fill:#D88971;}
	.st20{clip-path:url(#SVGID_6_);}
	.st21{fill:#B26E59;}
	.st22{fill:#7BADAA;}
	.st23{opacity:0.1;fill:#352C38;}
	.st24{clip-path:url(#SVGID_8_);}
	.st25{fill:none;stroke:#765E69;stroke-width:1.4129;stroke-miterlimit:10;}
	.st26{fill:none;stroke:#765E69;stroke-miterlimit:10;}
	.st27{fill:#FC6A5A;}
	.st28{clip-path:url(#SVGID_10_);fill:none;stroke:#F99787;stroke-width:3;stroke-miterlimit:10;}
	.st29{clip-path:url(#SVGID_10_);fill:none;stroke:#F99787;stroke-miterlimit:10;}
	.st30{fill:#BC7068;}
	.st31{fill:#F99787;}
	.st32{fill:#85B7E0;}
</style>
<g id="BACKGROUND">
</g>
<g id="OBJECTS">
	<g>
		<g>
			<g>
				<path class="st17" d="M70,97.5c0,0-7.7,2-13.3-2l1,2.7c0,0-12-5.3-13-27s7-21.3,7-21.3S73.6,79.8,70,97.5z"/>
				<path class="st17" d="M120.6,63.8c0,0,4.5,19-12.5,27v-6.5c0,0-4,12-21,14s-8.5-23.5-8.5-23.5l8.5-22l33.5,9"/>
			</g>
			<g>
				<path class="st18" d="M145.6,135.3c-5.9-16-42.3-23.6-48.7-28.2c-8.2-5.9-5.6-25.6-5.6-25.6l-13.4,0.4l-13.4-0.4
					c0,0,2.6,19.7-5.6,25.6c-6.4,4.6-42.7,12.3-48.7,28.2c-5.9,16-8.2,30.1-8.2,30.1h75.1h1.5h75.1
					C153.7,165.4,151.5,151.3,145.6,135.3z"/>
				<path class="st19" d="M62.1,103.4c6.3-0.6,12.6-1.9,18-5c4-2.2,7.6-4.8,10.9-7.8c-0.2-5.1,0.3-9.2,0.3-9.2l-13.4,0.4l-13.4-0.4
					C64.5,81.4,66.4,95.4,62.1,103.4z"/>
			</g>
			<g>
				<path class="st6" d="M146.6,135.1c-5.4-14.5-35.7-22.2-46.3-27c0.1-0.1,0.2-0.1,0.2-0.1c-4.6-2.6-5.8-9.3-5.8-9.3L61,100.3
					c-1.2,5.1-6.2,8.4-6.2,8.4c0.1,0,0.1,0.1,0.2,0.1c-11.8,4.8-39.4,12.5-44.6,26.2c-6,16.1-8.2,30.3-8.2,30.3h75.6h1.5h75.6
					C154.8,165.4,152.6,151.2,146.6,135.1z"/>
				<g>
					<defs>
						<path id="SVGID_5_" d="M146.6,135.1c-5.4-14.5-35.7-22.2-46.3-27c0.1-0.1,0.2-0.1,0.2-0.1c-4.6-2.6-5.8-9.3-5.8-9.3L61,100.3
							c-1.2,5.1-6.2,8.4-6.2,8.4c0.1,0,0.1,0.1,0.2,0.1c-11.8,4.8-39.4,12.5-44.6,26.2c-6,16.1-8.2,30.3-8.2,30.3h75.6h1.5h75.6
							C154.8,165.4,152.6,151.2,146.6,135.1z"/>
					</defs>
					<clipPath id="SVGID_2_">
						<use xlink:href="#SVGID_5_"  style="overflow:visible;"/>
					</clipPath>
					<g class="st3">
						<g>
							<g>
								<g>
									<path class="st2" d="M116.3,103.6c1.3,1.3,2.7,2.6,4,3.8c0.3,0.3,1,0,1.3-0.2c1.6-1.5,3.2-3.1,4.8-4.6
										c0.6-0.6-0.9-0.5-1.2-0.2c-1.6,1.5-3.2,3.1-4.8,4.6c0.4-0.1,0.8-0.1,1.3-0.2c-1.3-1.3-2.7-2.6-4-3.8
										C117.4,102.7,116,103.3,116.3,103.6L116.3,103.6z"/>
								</g>
							</g>
							<g>
								<g>
									<path class="st2" d="M99.4,103.6c1.3,1.3,2.7,2.6,4,3.8c0.3,0.3,1,0,1.3-0.2c1.6-1.5,3.2-3.1,4.8-4.6
										c0.6-0.6-0.9-0.5-1.2-0.2c-1.6,1.5-3.2,3.1-4.8,4.6c0.4-0.1,0.8-0.1,1.3-0.2c-1.3-1.3-2.7-2.6-4-3.8
										C100.4,102.7,99.1,103.3,99.4,103.6L99.4,103.6z"/>
								</g>
							</g>
							<g>
								<g>
									<path class="st2" d="M82.5,103.6c1.3,1.3,2.7,2.6,4,3.8c0.3,0.3,1,0,1.3-0.2c1.6-1.5,3.2-3.1,4.8-4.6
										c0.6-0.6-0.9-0.5-1.2-0.2c-1.6,1.5-3.2,3.1-4.8,4.6c0.4-0.1,0.8-0.1,1.3-0.2c-1.3-1.3-2.7-2.6-4-3.8
										C83.5,102.7,82.2,103.3,82.5,103.6L82.5,103.6z"/>
								</g>
							</g>
							<g>
								<g>
									<path class="st2" d="M65.6,103.6c1.3,1.3,2.7,2.6,4,3.8c0.3,0.3,1,0,1.3-0.2c1.6-1.5,3.2-3.1,4.8-4.6
										c0.6-0.6-0.9-0.5-1.2-0.2c-1.6,1.5-3.2,3.1-4.8,4.6c0.4-0.1,0.8-0.1,1.3-0.2c-1.3-1.3-2.7-2.6-4-3.8
										C66.6,102.7,65.2,103.3,65.6,103.6L65.6,103.6z"/>
								</g>
							</g>
							<g>
								<g>
									<path class="st2" d="M48.7,103.6c1.3,1.3,2.7,2.6,4,3.8c0.3,0.3,1,0,1.3-0.2c1.6-1.5,3.2-3.1,4.8-4.6
										c0.6-0.6-0.9-0.5-1.2-0.2c-1.6,1.5-3.2,3.1-4.8,4.6c0.4-0.1,0.8-0.1,1.3-0.2c-1.3-1.3-2.7-2.6-4-3.8
										C49.7,102.7,48.3,103.3,48.7,103.6L48.7,103.6z"/>
								</g>
							</g>
							<g>
								<g>
									<path class="st2" d="M31.8,103.6c1.3,1.3,2.7,2.6,4,3.8c0.3,0.3,1,0,1.3-0.2c1.6-1.5,3.2-3.1,4.8-4.6
										c0.6-0.6-0.9-0.5-1.2-0.2c-1.6,1.5-3.2,3.1-4.8,4.6c0.4-0.1,0.8-0.1,1.3-0.2c-1.3-1.3-2.7-2.6-4-3.8
										C32.8,102.7,31.4,103.3,31.8,103.6L31.8,103.6z"/>
								</g>
							</g>
							<g>
								<g>
									<path class="st2" d="M14.9,103.6c1.3,1.3,2.7,2.6,4,3.8c0.3,0.3,1,0,1.3-0.2c1.6-1.5,3.2-3.1,4.8-4.6
										c0.6-0.6-0.9-0.5-1.2-0.2c-1.6,1.5-3.2,3.1-4.8,4.6c0.4-0.1,0.8-0.1,1.3-0.2c-1.3-1.3-2.7-2.6-4-3.8
										C15.9,102.7,14.5,103.3,14.9,103.6L14.9,103.6z"/>
								</g>
							</g>
							<g>
								<g>
									<path class="st2" d="M-2.1,103.6c1.3,1.3,2.7,2.6,4,3.8c0.3,0.3,1,0,1.3-0.2c1.6-1.5,3.2-3.1,4.8-4.6
										c0.6-0.6-0.9-0.5-1.2-0.2c-1.6,1.5-3.2,3.1-4.8,4.6c0.4-0.1,0.8-0.1,1.3-0.2c-1.3-1.3-2.7-2.6-4-3.8
										C-1,102.7-2.4,103.3-2.1,103.6L-2.1,103.6z"/>
								</g>
							</g>
							<g>
								<g>
									<path class="st2" d="M133.2,103.6c1.3,1.3,2.7,2.6,4,3.8c0.3,0.3,1,0,1.3-0.2c1.6-1.5,3.2-3.1,4.8-4.6
										c0.6-0.6-0.9-0.5-1.2-0.2c-1.6,1.5-3.2,3.1-4.8,4.6c0.4-0.1,0.8-0.1,1.3-0.2c-1.3-1.3-2.7-2.6-4-3.8
										C134.3,102.7,132.9,103.3,133.2,103.6L133.2,103.6z"/>
								</g>
							</g>
						</g>
						<g>
							<g>
								<g>
									<path class="st2" d="M116.3,103.6c1.3,1.3,2.7,2.6,4,3.8c0.3,0.3,1,0,1.3-0.2c1.6-1.5,3.2-3.1,4.8-4.6
										c0.6-0.6-0.9-0.5-1.2-0.2c-1.6,1.5-3.2,3.1-4.8,4.6c0.4-0.1,0.8-0.1,1.3-0.2c-1.3-1.3-2.7-2.6-4-3.8
										C117.4,102.7,116,103.3,116.3,103.6L116.3,103.6z"/>
								</g>
							</g>
							<g>
								<g>
									<path class="st2" d="M99.4,103.6c1.3,1.3,2.7,2.6,4,3.8c0.3,0.3,1,0,1.3-0.2c1.6-1.5,3.2-3.1,4.8-4.6
										c0.6-0.6-0.9-0.5-1.2-0.2c-1.6,1.5-3.2,3.1-4.8,4.6c0.4-0.1,0.8-0.1,1.3-0.2c-1.3-1.3-2.7-2.6-4-3.8
										C100.4,102.7,99.1,103.3,99.4,103.6L99.4,103.6z"/>
								</g>
							</g>
							<g>
								<g>
									<path class="st2" d="M82.5,103.6c1.3,1.3,2.7,2.6,4,3.8c0.3,0.3,1,0,1.3-0.2c1.6-1.5,3.2-3.1,4.8-4.6
										c0.6-0.6-0.9-0.5-1.2-0.2c-1.6,1.5-3.2,3.1-4.8,4.6c0.4-0.1,0.8-0.1,1.3-0.2c-1.3-1.3-2.7-2.6-4-3.8
										C83.5,102.7,82.2,103.3,82.5,103.6L82.5,103.6z"/>
								</g>
							</g>
							<g>
								<g>
									<path class="st2" d="M65.6,103.6c1.3,1.3,2.7,2.6,4,3.8c0.3,0.3,1,0,1.3-0.2c1.6-1.5,3.2-3.1,4.8-4.6
										c0.6-0.6-0.9-0.5-1.2-0.2c-1.6,1.5-3.2,3.1-4.8,4.6c0.4-0.1,0.8-0.1,1.3-0.2c-1.3-1.3-2.7-2.6-4-3.8
										C66.6,102.7,65.2,103.3,65.6,103.6L65.6,103.6z"/>
								</g>
							</g>
							<g>
								<g>
									<path class="st2" d="M48.7,103.6c1.3,1.3,2.7,2.6,4,3.8c0.3,0.3,1,0,1.3-0.2c1.6-1.5,3.2-3.1,4.8-4.6
										c0.6-0.6-0.9-0.5-1.2-0.2c-1.6,1.5-3.2,3.1-4.8,4.6c0.4-0.1,0.8-0.1,1.3-0.2c-1.3-1.3-2.7-2.6-4-3.8
										C49.7,102.7,48.3,103.3,48.7,103.6L48.7,103.6z"/>
								</g>
							</g>
							<g>
								<g>
									<path class="st2" d="M31.8,103.6c1.3,1.3,2.7,2.6,4,3.8c0.3,0.3,1,0,1.3-0.2c1.6-1.5,3.2-3.1,4.8-4.6
										c0.6-0.6-0.9-0.5-1.2-0.2c-1.6,1.5-3.2,3.1-4.8,4.6c0.4-0.1,0.8-0.1,1.3-0.2c-1.3-1.3-2.7-2.6-4-3.8
										C32.8,102.7,31.4,103.3,31.8,103.6L31.8,103.6z"/>
								</g>
							</g>
							<g>
								<g>
									<path class="st2" d="M14.9,103.6c1.3,1.3,2.7,2.6,4,3.8c0.3,0.3,1,0,1.3-0.2c1.6-1.5,3.2-3.1,4.8-4.6
										c0.6-0.6-0.9-0.5-1.2-0.2c-1.6,1.5-3.2,3.1-4.8,4.6c0.4-0.1,0.8-0.1,1.3-0.2c-1.3-1.3-2.7-2.6-4-3.8
										C15.9,102.7,14.5,103.3,14.9,103.6L14.9,103.6z"/>
								</g>
							</g>
							<g>
								<g>
									<path class="st2" d="M-2.1,103.6c1.3,1.3,2.7,2.6,4,3.8c0.3,0.3,1,0,1.3-0.2c1.6-1.5,3.2-3.1,4.8-4.6
										c0.6-0.6-0.9-0.5-1.2-0.2c-1.6,1.5-3.2,3.1-4.8,4.6c0.4-0.1,0.8-0.1,1.3-0.2c-1.3-1.3-2.7-2.6-4-3.8
										C-1,102.7-2.4,103.3-2.1,103.6L-2.1,103.6z"/>
								</g>
							</g>
							<g>
								<g>
									<path class="st2" d="M133.2,103.6c1.3,1.3,2.7,2.6,4,3.8c0.3,0.3,1,0,1.3-0.2c1.6-1.5,3.2-3.1,4.8-4.6
										c0.6-0.6-0.9-0.5-1.2-0.2c-1.6,1.5-3.2,3.1-4.8,4.6c0.4-0.1,0.8-0.1,1.3-0.2c-1.3-1.3-2.7-2.6-4-3.8
										C134.3,102.7,132.9,103.3,133.2,103.6L133.2,103.6z"/>
								</g>
							</g>
						</g>
						<g>
							<g>
								<g>
									<path class="st2" d="M116.3,160.2c1.3,1.3,2.7,2.6,4,3.8c0.3,0.3,1,0,1.3-0.2c1.6-1.5,3.2-3.1,4.8-4.6
										c0.6-0.6-0.9-0.5-1.2-0.2c-1.6,1.5-3.2,3.1-4.8,4.6c0.4-0.1,0.8-0.1,1.3-0.2c-1.3-1.3-2.7-2.6-4-3.8
										C117.4,159.3,116,159.9,116.3,160.2L116.3,160.2z"/>
								</g>
							</g>
							<g>
								<g>
									<path class="st2" d="M99.4,160.2c1.3,1.3,2.7,2.6,4,3.8c0.3,0.3,1,0,1.3-0.2c1.6-1.5,3.2-3.1,4.8-4.6
										c0.6-0.6-0.9-0.5-1.2-0.2c-1.6,1.5-3.2,3.1-4.8,4.6c0.4-0.1,0.8-0.1,1.3-0.2c-1.3-1.3-2.7-2.6-4-3.8
										C100.4,159.3,99.1,159.9,99.4,160.2L99.4,160.2z"/>
								</g>
							</g>
							<g>
								<g>
									<path class="st2" d="M82.5,160.2c1.3,1.3,2.7,2.6,4,3.8c0.3,0.3,1,0,1.3-0.2c1.6-1.5,3.2-3.1,4.8-4.6
										c0.6-0.6-0.9-0.5-1.2-0.2c-1.6,1.5-3.2,3.1-4.8,4.6c0.4-0.1,0.8-0.1,1.3-0.2c-1.3-1.3-2.7-2.6-4-3.8
										C83.5,159.3,82.2,159.9,82.5,160.2L82.5,160.2z"/>
								</g>
							</g>
							<g>
								<g>
									<path class="st2" d="M65.6,160.2c1.3,1.3,2.7,2.6,4,3.8c0.3,0.3,1,0,1.3-0.2c1.6-1.5,3.2-3.1,4.8-4.6
										c0.6-0.6-0.9-0.5-1.2-0.2c-1.6,1.5-3.2,3.1-4.8,4.6c0.4-0.1,0.8-0.1,1.3-0.2c-1.3-1.3-2.7-2.6-4-3.8
										C66.6,159.3,65.2,159.9,65.6,160.2L65.6,160.2z"/>
								</g>
							</g>
							<g>
								<g>
									<path class="st2" d="M48.7,160.2c1.3,1.3,2.7,2.6,4,3.8c0.3,0.3,1,0,1.3-0.2c1.6-1.5,3.2-3.1,4.8-4.6
										c0.6-0.6-0.9-0.5-1.2-0.2c-1.6,1.5-3.2,3.1-4.8,4.6c0.4-0.1,0.8-0.1,1.3-0.2c-1.3-1.3-2.7-2.6-4-3.8
										C49.7,159.3,48.3,159.9,48.7,160.2L48.7,160.2z"/>
								</g>
							</g>
							<g>
								<g>
									<path class="st2" d="M31.8,160.2c1.3,1.3,2.7,2.6,4,3.8c0.3,0.3,1,0,1.3-0.2c1.6-1.5,3.2-3.1,4.8-4.6
										c0.6-0.6-0.9-0.5-1.2-0.2c-1.6,1.5-3.2,3.1-4.8,4.6c0.4-0.1,0.8-0.1,1.3-0.2c-1.3-1.3-2.7-2.6-4-3.8
										C32.8,159.3,31.4,159.9,31.8,160.2L31.8,160.2z"/>
								</g>
							</g>
							<g>
								<g>
									<path class="st2" d="M14.9,160.2c1.3,1.3,2.7,2.6,4,3.8c0.3,0.3,1,0,1.3-0.2c1.6-1.5,3.2-3.1,4.8-4.6
										c0.6-0.6-0.9-0.5-1.2-0.2c-1.6,1.5-3.2,3.1-4.8,4.6c0.4-0.1,0.8-0.1,1.3-0.2c-1.3-1.3-2.7-2.6-4-3.8
										C15.9,159.3,14.5,159.9,14.9,160.2L14.9,160.2z"/>
								</g>
							</g>
							<g>
								<g>
									<path class="st2" d="M-2.1,160.2c1.3,1.3,2.7,2.6,4,3.8c0.3,0.3,1,0,1.3-0.2c1.6-1.5,3.2-3.1,4.8-4.6
										c0.6-0.6-0.9-0.5-1.2-0.2c-1.6,1.5-3.2,3.1-4.8,4.6c0.4-0.1,0.8-0.1,1.3-0.2c-1.3-1.3-2.7-2.6-4-3.8
										C-1,159.3-2.4,159.9-2.1,160.2L-2.1,160.2z"/>
								</g>
							</g>
							<g>
								<g>
									<path class="st2" d="M133.2,160.2c1.3,1.3,2.7,2.6,4,3.8c0.3,0.3,1,0,1.3-0.2c1.6-1.5,3.2-3.1,4.8-4.6
										c0.6-0.6-0.9-0.5-1.2-0.2c-1.6,1.5-3.2,3.1-4.8,4.6c0.4-0.1,0.8-0.1,1.3-0.2c-1.3-1.3-2.7-2.6-4-3.8
										C134.3,159.3,132.9,159.9,133.2,160.2L133.2,160.2z"/>
								</g>
							</g>
						</g>
						<g>
							<g>
								<g>
									<path class="st2" d="M125.1,145.4c1.3,1.3,2.7,2.6,4,3.8c0.3,0.3,1,0,1.3-0.2c1.6-1.5,3.2-3.1,4.8-4.6
										c0.6-0.6-0.9-0.5-1.2-0.2c-1.6,1.5-3.2,3.1-4.8,4.6c0.4-0.1,0.8-0.1,1.3-0.2c-1.3-1.3-2.7-2.6-4-3.8
										C126.1,144.6,124.7,145.1,125.1,145.4L125.1,145.4z"/>
								</g>
							</g>
							<g>
								<g>
									<path class="st2" d="M108.2,145.4c1.3,1.3,2.7,2.6,4,3.8c0.3,0.3,1,0,1.3-0.2c1.6-1.5,3.2-3.1,4.8-4.6
										c0.6-0.6-0.9-0.5-1.2-0.2c-1.6,1.5-3.2,3.1-4.8,4.6c0.4-0.1,0.8-0.1,1.3-0.2c-1.3-1.3-2.7-2.6-4-3.8
										C109.2,144.6,107.8,145.1,108.2,145.4L108.2,145.4z"/>
								</g>
							</g>
							<g>
								<g>
									<path class="st2" d="M91.3,145.4c1.3,1.3,2.7,2.6,4,3.8c0.3,0.3,1,0,1.3-0.2c1.6-1.5,3.2-3.1,4.8-4.6
										c0.6-0.6-0.9-0.5-1.2-0.2c-1.6,1.5-3.2,3.1-4.8,4.6c0.4-0.1,0.8-0.1,1.3-0.2c-1.3-1.3-2.7-2.6-4-3.8
										C92.3,144.6,90.9,145.1,91.3,145.4L91.3,145.4z"/>
								</g>
							</g>
							<g>
								<g>
									<path class="st2" d="M74.4,145.4c1.3,1.3,2.7,2.6,4,3.8c0.3,0.3,1,0,1.3-0.2c1.6-1.5,3.2-3.1,4.8-4.6
										c0.6-0.6-0.9-0.5-1.2-0.2c-1.6,1.5-3.2,3.1-4.8,4.6c0.4-0.1,0.8-0.1,1.3-0.2c-1.3-1.3-2.7-2.6-4-3.8
										C75.4,144.6,74,145.1,74.4,145.4L74.4,145.4z"/>
								</g>
							</g>
							<g>
								<g>
									<path class="st2" d="M57.4,145.4c1.3,1.3,2.7,2.6,4,3.8c0.3,0.3,1,0,1.3-0.2c1.6-1.5,3.2-3.1,4.8-4.6
										c0.6-0.6-0.9-0.5-1.2-0.2c-1.6,1.5-3.2,3.1-4.8,4.6c0.4-0.1,0.8-0.1,1.3-0.2c-1.3-1.3-2.7-2.6-4-3.8
										C58.5,144.6,57.1,145.1,57.4,145.4L57.4,145.4z"/>
								</g>
							</g>
							<g>
								<g>
									<path class="st2" d="M40.5,145.4c1.3,1.3,2.7,2.6,4,3.8c0.3,0.3,1,0,1.3-0.2c1.6-1.5,3.2-3.1,4.8-4.6
										c0.6-0.6-0.9-0.5-1.2-0.2c-1.6,1.5-3.2,3.1-4.8,4.6c0.4-0.1,0.8-0.1,1.3-0.2c-1.3-1.3-2.7-2.6-4-3.8
										C41.6,144.6,40.2,145.1,40.5,145.4L40.5,145.4z"/>
								</g>
							</g>
							<g>
								<g>
									<path class="st2" d="M23.6,145.4c1.3,1.3,2.7,2.6,4,3.8c0.3,0.3,1,0,1.3-0.2c1.6-1.5,3.2-3.1,4.8-4.6
										c0.6-0.6-0.9-0.5-1.2-0.2c-1.6,1.5-3.2,3.1-4.8,4.6c0.4-0.1,0.8-0.1,1.3-0.2c-1.3-1.3-2.7-2.6-4-3.8
										C24.7,144.6,23.3,145.1,23.6,145.4L23.6,145.4z"/>
								</g>
							</g>
							<g>
								<g>
									<path class="st2" d="M6.7,145.4c1.3,1.3,2.7,2.6,4,3.8c0.3,0.3,1,0,1.3-0.2c1.6-1.5,3.2-3.1,4.8-4.6
										c0.6-0.6-0.9-0.5-1.2-0.2c-1.6,1.5-3.2,3.1-4.8,4.6c0.4-0.1,0.8-0.1,1.3-0.2c-1.3-1.3-2.7-2.6-4-3.8
										C7.8,144.6,6.4,145.1,6.7,145.4L6.7,145.4z"/>
								</g>
							</g>
							<g>
								<g>
									<path class="st2" d="M142,145.4c1.3,1.3,2.7,2.6,4,3.8c0.3,0.3,1,0,1.3-0.2c1.6-1.5,3.2-3.1,4.8-4.6
										c0.6-0.6-0.9-0.5-1.2-0.2c-1.6,1.5-3.2,3.1-4.8,4.6c0.4-0.1,0.8-0.1,1.3-0.2c-1.3-1.3-2.7-2.6-4-3.8
										C143,144.6,141.7,145.1,142,145.4L142,145.4z"/>
								</g>
							</g>
						</g>
						<g>
							<g>
								<g>
									<path class="st2" d="M116.3,131.9c1.3,1.3,2.7,2.6,4,3.8c0.3,0.3,1,0,1.3-0.2c1.6-1.5,3.2-3.1,4.8-4.6
										c0.6-0.6-0.9-0.5-1.2-0.2c-1.6,1.5-3.2,3.1-4.8,4.6c0.4-0.1,0.8-0.1,1.3-0.2c-1.3-1.3-2.7-2.6-4-3.8
										C117.4,131,116,131.6,116.3,131.9L116.3,131.9z"/>
								</g>
							</g>
							<g>
								<g>
									<path class="st2" d="M99.4,131.9c1.3,1.3,2.7,2.6,4,3.8c0.3,0.3,1,0,1.3-0.2c1.6-1.5,3.2-3.1,4.8-4.6
										c0.6-0.6-0.9-0.5-1.2-0.2c-1.6,1.5-3.2,3.1-4.8,4.6c0.4-0.1,0.8-0.1,1.3-0.2c-1.3-1.3-2.7-2.6-4-3.8
										C100.4,131,99.1,131.6,99.4,131.9L99.4,131.9z"/>
								</g>
							</g>
							<g>
								<g>
									<path class="st2" d="M82.5,131.9c1.3,1.3,2.7,2.6,4,3.8c0.3,0.3,1,0,1.3-0.2c1.6-1.5,3.2-3.1,4.8-4.6
										c0.6-0.6-0.9-0.5-1.2-0.2c-1.6,1.5-3.2,3.1-4.8,4.6c0.4-0.1,0.8-0.1,1.3-0.2c-1.3-1.3-2.7-2.6-4-3.8
										C83.5,131,82.2,131.6,82.5,131.9L82.5,131.9z"/>
								</g>
							</g>
							<g>
								<g>
									<path class="st2" d="M65.6,131.9c1.3,1.3,2.7,2.6,4,3.8c0.3,0.3,1,0,1.3-0.2c1.6-1.5,3.2-3.1,4.8-4.6
										c0.6-0.6-0.9-0.5-1.2-0.2c-1.6,1.5-3.2,3.1-4.8,4.6c0.4-0.1,0.8-0.1,1.3-0.2c-1.3-1.3-2.7-2.6-4-3.8
										C66.6,131,65.2,131.6,65.6,131.9L65.6,131.9z"/>
								</g>
							</g>
							<g>
								<g>
									<path class="st2" d="M48.7,131.9c1.3,1.3,2.7,2.6,4,3.8c0.3,0.3,1,0,1.3-0.2c1.6-1.5,3.2-3.1,4.8-4.6
										c0.6-0.6-0.9-0.5-1.2-0.2c-1.6,1.5-3.2,3.1-4.8,4.6c0.4-0.1,0.8-0.1,1.3-0.2c-1.3-1.3-2.7-2.6-4-3.8
										C49.7,131,48.3,131.6,48.7,131.9L48.7,131.9z"/>
								</g>
							</g>
							<g>
								<g>
									<path class="st2" d="M31.8,131.9c1.3,1.3,2.7,2.6,4,3.8c0.3,0.3,1,0,1.3-0.2c1.6-1.5,3.2-3.1,4.8-4.6
										c0.6-0.6-0.9-0.5-1.2-0.2c-1.6,1.5-3.2,3.1-4.8,4.6c0.4-0.1,0.8-0.1,1.3-0.2c-1.3-1.3-2.7-2.6-4-3.8
										C32.8,131,31.4,131.6,31.8,131.9L31.8,131.9z"/>
								</g>
							</g>
							<g>
								<g>
									<path class="st2" d="M14.9,131.9c1.3,1.3,2.7,2.6,4,3.8c0.3,0.3,1,0,1.3-0.2c1.6-1.5,3.2-3.1,4.8-4.6
										c0.6-0.6-0.9-0.5-1.2-0.2c-1.6,1.5-3.2,3.1-4.8,4.6c0.4-0.1,0.8-0.1,1.3-0.2c-1.3-1.3-2.7-2.6-4-3.8
										C15.9,131,14.5,131.6,14.9,131.9L14.9,131.9z"/>
								</g>
							</g>
							<g>
								<g>
									<path class="st2" d="M-2.1,131.9c1.3,1.3,2.7,2.6,4,3.8c0.3,0.3,1,0,1.3-0.2c1.6-1.5,3.2-3.1,4.8-4.6
										c0.6-0.6-0.9-0.5-1.2-0.2c-1.6,1.5-3.2,3.1-4.8,4.6c0.4-0.1,0.8-0.1,1.3-0.2c-1.3-1.3-2.7-2.6-4-3.8
										C-1,131-2.4,131.6-2.1,131.9L-2.1,131.9z"/>
								</g>
							</g>
							<g>
								<g>
									<path class="st2" d="M133.2,131.9c1.3,1.3,2.7,2.6,4,3.8c0.3,0.3,1,0,1.3-0.2c1.6-1.5,3.2-3.1,4.8-4.6
										c0.6-0.6-0.9-0.5-1.2-0.2c-1.6,1.5-3.2,3.1-4.8,4.6c0.4-0.1,0.8-0.1,1.3-0.2c-1.3-1.3-2.7-2.6-4-3.8
										C134.3,131,132.9,131.6,133.2,131.9L133.2,131.9z"/>
								</g>
							</g>
						</g>
						<g>
							<g>
								<g>
									<path class="st2" d="M124.5,117.2c1.3,1.3,2.7,2.6,4,3.8c0.3,0.3,1,0,1.3-0.2c1.6-1.5,3.2-3.1,4.8-4.6
										c0.6-0.6-0.9-0.5-1.2-0.2c-1.6,1.5-3.2,3.1-4.8,4.6c0.4-0.1,0.8-0.1,1.3-0.2c-1.3-1.3-2.7-2.6-4-3.8
										C125.5,116.3,124.1,116.8,124.5,117.2L124.5,117.2z"/>
								</g>
							</g>
							<g>
								<g>
									<path class="st2" d="M107.6,117.2c1.3,1.3,2.7,2.6,4,3.8c0.3,0.3,1,0,1.3-0.2c1.6-1.5,3.2-3.1,4.8-4.6
										c0.6-0.6-0.9-0.5-1.2-0.2c-1.6,1.5-3.2,3.1-4.8,4.6c0.4-0.1,0.8-0.1,1.3-0.2c-1.3-1.3-2.7-2.6-4-3.8
										C108.6,116.3,107.2,116.8,107.6,117.2L107.6,117.2z"/>
								</g>
							</g>
							<g>
								<g>
									<path class="st2" d="M90.6,117.2c1.3,1.3,2.7,2.6,4,3.8c0.3,0.3,1,0,1.3-0.2c1.6-1.5,3.2-3.1,4.8-4.6
										c0.6-0.6-0.9-0.5-1.2-0.2c-1.6,1.5-3.2,3.1-4.8,4.6c0.4-0.1,0.8-0.1,1.3-0.2c-1.3-1.3-2.7-2.6-4-3.8
										C91.7,116.3,90.3,116.8,90.6,117.2L90.6,117.2z"/>
								</g>
							</g>
							<g>
								<g>
									<path class="st2" d="M73.7,117.2c1.3,1.3,2.7,2.6,4,3.8c0.3,0.3,1,0,1.3-0.2c1.6-1.5,3.2-3.1,4.8-4.6
										c0.6-0.6-0.9-0.5-1.2-0.2c-1.6,1.5-3.2,3.1-4.8,4.6c0.4-0.1,0.8-0.1,1.3-0.2c-1.3-1.3-2.7-2.6-4-3.8
										C74.8,116.3,73.4,116.8,73.7,117.2L73.7,117.2z"/>
								</g>
							</g>
							<g>
								<g>
									<path class="st2" d="M56.8,117.2c1.3,1.3,2.7,2.6,4,3.8c0.3,0.3,1,0,1.3-0.2c1.6-1.5,3.2-3.1,4.8-4.6
										c0.6-0.6-0.9-0.5-1.2-0.2c-1.6,1.5-3.2,3.1-4.8,4.6c0.4-0.1,0.8-0.1,1.3-0.2c-1.3-1.3-2.7-2.6-4-3.8
										C57.9,116.3,56.5,116.8,56.8,117.2L56.8,117.2z"/>
								</g>
							</g>
							<g>
								<g>
									<path class="st2" d="M39.9,117.2c1.3,1.3,2.7,2.6,4,3.8c0.3,0.3,1,0,1.3-0.2c1.6-1.5,3.2-3.1,4.8-4.6
										c0.6-0.6-0.9-0.5-1.2-0.2c-1.6,1.5-3.2,3.1-4.8,4.6c0.4-0.1,0.8-0.1,1.3-0.2c-1.3-1.3-2.7-2.6-4-3.8
										C40.9,116.3,39.6,116.8,39.9,117.2L39.9,117.2z"/>
								</g>
							</g>
							<g>
								<g>
									<path class="st2" d="M23,117.2c1.3,1.3,2.7,2.6,4,3.8c0.3,0.3,1,0,1.3-0.2c1.6-1.5,3.2-3.1,4.8-4.6
										c0.6-0.6-0.9-0.5-1.2-0.2c-1.6,1.5-3.2,3.1-4.8,4.6c0.4-0.1,0.8-0.1,1.3-0.2c-1.3-1.3-2.7-2.6-4-3.8
										C24,116.3,22.7,116.8,23,117.2L23,117.2z"/>
								</g>
							</g>
							<g>
								<g>
									<path class="st2" d="M6.1,117.2c1.3,1.3,2.7,2.6,4,3.8c0.3,0.3,1,0,1.3-0.2c1.6-1.5,3.2-3.1,4.8-4.6
										c0.6-0.6-0.9-0.5-1.2-0.2c-1.6,1.5-3.2,3.1-4.8,4.6c0.4-0.1,0.8-0.1,1.3-0.2c-1.3-1.3-2.7-2.6-4-3.8
										C7.1,116.3,5.7,116.8,6.1,117.2L6.1,117.2z"/>
								</g>
							</g>
							<g>
								<g>
									<path class="st2" d="M141.4,117.2c1.3,1.3,2.7,2.6,4,3.8c0.3,0.3,1,0,1.3-0.2c1.6-1.5,3.2-3.1,4.8-4.6
										c0.6-0.6-0.9-0.5-1.2-0.2c-1.6,1.5-3.2,3.1-4.8,4.6c0.4-0.1,0.8-0.1,1.3-0.2c-1.3-1.3-2.7-2.6-4-3.8
										C142.4,116.3,141,116.8,141.4,117.2L141.4,117.2z"/>
								</g>
							</g>
						</g>
					</g>
				</g>
			</g>
		</g>
		<g>
			<g>
				<path class="st10" d="M68,13.2c0,0-16.8-15.3-28.3,5.2s3.5,53-8,67c0,0,12,13,16-7s5.5-52.5,5.5-52.5L68,13.2z"/>
				<g>
					<path class="st10" d="M65.1,15.3c-1.4-1.6-3-2.9-4.7-4c-1.7-1.1-3.7-1.9-5.7-2.1c-1-0.1-2-0.1-3,0.1c-0.5,0.1-1,0.2-1.4,0.3
						c-0.5,0.2-0.9,0.3-1.4,0.6c-1.8,0.9-3.4,2.1-4.7,3.6c-1.4,1.5-2.6,3.1-3.6,4.9c-1,1.7-1.9,3.6-2.6,5.5
						c-1.4,3.8-2.2,7.9-2.6,11.9c-0.4,4.1-0.5,8.2-0.5,12.4c0,4.2,0.1,8.3,0,12.5c-0.1,4.2-0.3,8.4-1.1,12.6c-0.4,2.1-1,4.1-1.9,6
						c-0.8,1.9-2,3.7-3.5,5.2c2.6-3.3,3.8-7.4,4.4-11.4c0.5-4.1,0.5-8.2,0.5-12.4c-0.2-8.3-0.8-16.7,0.1-25.1c0.2-2.1,0.5-4.2,1-6.3
						c0.4-2.1,1-4.1,1.8-6.1c1.6-4,3.9-7.7,6.9-10.7c1.5-1.5,3.3-2.9,5.3-3.7c0.5-0.2,1-0.4,1.6-0.5c0.5-0.1,1.1-0.3,1.6-0.3
						C52.6,8,53.8,8,54.8,8.3c2.1,0.4,4.1,1.4,5.8,2.6C62.3,12.1,63.8,13.6,65.1,15.3z"/>
				</g>
			</g>
			<g>
				<path class="st19" d="M53.6,49.4c-2.2-6.7-7.3-5.2-7.8-5c-0.5,0.1-5.8,0.8-4.9,7.8c0.9,7,5,10.8,8.8,9.7
					C53.8,61.4,55.8,56.2,53.6,49.4z"/>
				<path class="st19" d="M99.7,50.7c2.2-6.7,7.3-5.2,7.8-5c0.5,0.1,5.8,0.8,4.9,7.8c-0.9,7-5,10.8-8.8,9.7
					C99.6,62.6,97.5,57.5,99.7,50.7z"/>
				<path class="st18" d="M104.2,40.2c-2.7-29.4-25-27.7-27.1-27.5c-2.1-0.2-24.4-1.9-27.1,27.5C47.2,69.7,60.4,89,77,88
					C93.7,89,106.9,69.7,104.2,40.2z"/>
			</g>
			<g>
				<g>
					<path class="st21" d="M80.2,50.2c0.6,1.9,1,3.8,1.3,5.7c0.3,1.9,0.6,3.9,0.8,5.8l0,0.3l-0.2,0.1c-0.6,0.5-1.2,1-1.8,1.5
						c-0.6,0.5-1.2,1-1.9,1.4c0.5-0.6,1-1.2,1.5-1.8c0.5-0.6,1-1.2,1.6-1.7l-0.1,0.4c-0.4-1.9-0.7-3.9-0.9-5.8
						C80.3,54.1,80.2,52.2,80.2,50.2z"/>
				</g>
				<path class="st5" d="M64.1,69.4l26.5-0.3C90.6,69.1,80,79.5,64.1,69.4z"/>
				<g>
					<path class="st21" d="M70.9,74.7c2.9,0.9,5.9,1.4,8.8,1.1c2.9-0.3,5.7-1.4,8.3-3.1c-1,1.2-2.3,2.2-3.7,2.9
						c-1.4,0.7-3,1.2-4.5,1.3C76.7,77.2,73.5,76.4,70.9,74.7z"/>
				</g>
				<g>
					<path class="st4" d="M63.1,50.6c0,2.2,0.8,4,1.8,4c1,0,1.8-1.8,1.8-4c0-2.2-0.8-4-1.8-4C64,46.6,63.1,48.4,63.1,50.6z"/>
					<path class="st4" d="M88.4,50.6c0,2.2,0.8,4,1.8,4c1,0,1.8-1.8,1.8-4c0-2.2-0.8-4-1.8-4C89.2,46.6,88.4,48.4,88.4,50.6z"/>
				</g>
				<g>
					<path class="st4" d="M58.6,44.1c0.5-1.2,1.4-2.3,2.4-3.1c1.1-0.8,2.4-1.4,3.8-1.6c1.4-0.1,2.9,0.2,4.1,1.1
						c0.6,0.3,1,0.9,1.5,1.4c0.4,0.5,0.7,1.1,1,1.7c-0.6-0.3-1.1-0.6-1.7-0.9c-0.6-0.2-1.1-0.5-1.6-0.7c-1-0.4-2.1-0.5-3.1-0.4
						c-1,0.1-2.1,0.4-3.1,0.9C60.8,42.9,59.8,43.4,58.6,44.1z"/>
				</g>
				<g>
					<path class="st4" d="M84,44.1c0.5-1.2,1.4-2.3,2.4-3.1c1.1-0.8,2.4-1.4,3.8-1.6c1.4-0.1,2.9,0.2,4.1,1.1c0.6,0.3,1,0.9,1.5,1.4
						c0.4,0.5,0.7,1.1,1,1.7c-0.6-0.3-1.1-0.6-1.7-0.9c-0.6-0.2-1.1-0.5-1.6-0.7c-1-0.4-2.1-0.5-3.1-0.4c-1,0.1-2.1,0.4-3.1,0.9
						C86.2,42.9,85.2,43.4,84,44.1z"/>
				</g>
			</g>
			<g>
				<path class="st10" d="M63.6,20.8c0,0,11.5-12,18.5-2.5s19,45,39,47.5c0,0,3.8-41.3-14.2-57.3C88.1-8.3,63.1,1.8,63.6,20.8z"/>
				<g>
					<path class="st10" d="M112.6,66.8c-3.4-0.1-6.6-1.6-9.3-3.7c-2.7-2.1-5-4.7-7-7.5c-4-5.6-6.8-11.7-9.4-17.9
						c-1.3-3.1-2.5-6.2-3.7-9.3c-1.2-3.1-2.4-6.2-3.9-9c-0.8-1.3-1.7-2.5-2.9-3.3c-1.2-0.8-2.7-1.1-4.2-0.9c-1.5,0.2-3,0.8-4.5,1.6
						c-1.4,0.8-2.8,1.8-4,2.9c1-1.3,2.2-2.5,3.6-3.6c1.4-1,2.9-1.9,4.6-2.4c1.7-0.5,3.8-0.3,5.5,0.6c1.7,0.9,3,2.3,4,3.8
						c1,1.5,1.7,3,2.4,4.5c0.7,1.5,1.4,3.1,2,4.6l3.8,9.2c2.5,6.1,5.2,12.2,8.6,17.8c1.7,2.8,3.7,5.4,6,7.6
						C106.5,64.3,109.4,66.1,112.6,66.8z"/>
				</g>
				<path class="st10" d="M63.6,20.8c0,0,3.1-3.8,1.4-5.5c-3.6-3.6-16.2-6.1-17.9,8c-2.5,20.5,8,53.5-9.5,71c0,0,5.5,6.5,11.5-2.5
					c0,0-2,6-5.5,6.5c0,0,8.5,1.5,10.5-10.5S50.1,21.8,63.6,20.8z"/>
			</g>
		</g>
	</g>
</g>
</svg>
