<?xml version="1.0" encoding="utf-8"?>
<!-- Generator: Adobe Illustrator 23.0.1, SVG Export Plug-In . SVG Version: 6.00 Build 0)  -->
<svg version="1.1" xmlns="http://www.w3.org/2000/svg" xmlns:xlink="http://www.w3.org/1999/xlink" x="0px" y="0px"
	 viewBox="0 0 169.5 168.5" style="enable-background:new 0 0 169.5 168.5;" xml:space="preserve">
<style type="text/css">
	.st0{fill:#FFAC9D;}
	.st1{fill:#CC887F;}
	.st2{fill:#FFA65B;}
	.st3{clip-path:url(#SVGID_2_);}
	.st4{fill:#352C38;}
	.st5{fill:#FFFFFF;}
	.st6{fill:#765E69;}
	.st7{opacity:0.4;fill:#352C38;}
	.st8{fill:#965450;}
	.st9{fill:#824846;}
	.st10{fill:#FDDEC0;}
	.st11{fill:#E2C6AF;}
	.st12{fill:#6F96BD;}
	.st13{fill:#76413B;}
	.st14{fill:#5D8584;}
	.st15{clip-path:url(#SVGID_4_);}
	.st16{fill:none;stroke:#FFFFFF;stroke-width:0.8855;stroke-miterlimit:10;}
	.st17{fill:#EDCFB7;}
	.st18{fill:#F19C7C;}
	.st19{fill:#D88971;}
	.st20{clip-path:url(#SVGID_6_);}
	.st21{fill:#B26E59;}
	.st22{fill:#7BADAA;}
	.st23{opacity:0.1;fill:#352C38;}
	.st24{clip-path:url(#SVGID_8_);}
	.st25{fill:none;stroke:#765E69;stroke-width:1.4129;stroke-miterlimit:10;}
	.st26{fill:none;stroke:#765E69;stroke-miterlimit:10;}
	.st27{fill:#FC6A5A;}
	.st28{clip-path:url(#SVGID_10_);fill:none;stroke:#F99787;stroke-width:3;stroke-miterlimit:10;}
	.st29{clip-path:url(#SVGID_10_);fill:none;stroke:#F99787;stroke-miterlimit:10;}
	.st30{fill:#BC7068;}
	.st31{fill:#F99787;}
	.st32{fill:#85B7E0;}
</style>
<g id="BACKGROUND">
</g>
<g id="OBJECTS">
	<g>
		<g>
			<g>
				<path class="st0" d="M151.7,138.4c-5.9-16-42.3-23.6-48.7-28.2c-8.2-5.9-5.6-25.6-5.6-25.6l-13.4,0.4l-13.4-0.4
					c0,0,2.6,19.7-5.6,25.6c-6.4,4.6-42.7,12.3-48.7,28.2c-5.9,16-8.2,30.1-8.2,30.1h75.1h1.5h75.1
					C159.9,168.5,157.6,154.4,151.7,138.4z"/>
				<path class="st1" d="M68.2,106.5c6.3-0.6,12.6-1.9,18-5c4-2.2,7.6-4.8,10.9-7.8c-0.2-5.1,0.3-9.2,0.3-9.2l-13.4,0.4l-13.4-0.4
					C70.7,84.5,72.5,98.5,68.2,106.5z"/>
			</g>
			<g>
				<path class="st2" d="M153,138.2c-2.2-5.9-8.4-10.6-15.8-14.5c-13.1,9-31.7,14.6-52.4,14.6c-20.6,0-39.2-5.6-52.4-14.6
					c-7.4,3.9-13.6,8.6-15.8,14.5c-6,16.1-8.2,30.3-8.2,30.3h75.6h1.5h75.6C161.2,168.5,159,154.3,153,138.2z"/>
				<g>
					<defs>
						<path id="SVGID_1_" d="M153,138.2c-2.2-5.9-8.4-10.6-15.8-14.5c-13.1,9-31.7,14.6-52.4,14.6c-20.6,0-39.2-5.6-52.4-14.6
							c-7.4,3.9-13.6,8.6-15.8,14.5c-6,16.1-8.2,30.3-8.2,30.3h75.6h1.5h75.6C161.2,168.5,159,154.3,153,138.2z"/>
					</defs>
					<clipPath id="SVGID_2_">
						<use xlink:href="#SVGID_1_"  style="overflow:visible;"/>
					</clipPath>
					<g class="st3">
						<circle class="st4" cx="116.4" cy="138.9" r="9.6"/>
						<circle class="st4" cx="82.7" cy="138.9" r="9.6"/>
						<circle class="st4" cx="49.1" cy="138.9" r="9.6"/>
						<circle class="st4" cx="15.5" cy="138.9" r="9.6"/>
						<circle class="st4" cx="150" cy="138.9" r="9.6"/>
					</g>
					<g class="st3">
						<circle class="st4" cx="132.2" cy="164.8" r="9.6"/>
						<circle class="st4" cx="98.5" cy="164.8" r="9.6"/>
						<circle class="st4" cx="64.9" cy="164.8" r="9.6"/>
						<circle class="st4" cx="31.2" cy="164.8" r="9.6"/>
						<circle class="st4" cx="165.8" cy="164.8" r="9.6"/>
					</g>
				</g>
			</g>
		</g>
		<g>
			<g>
				<path class="st1" d="M105.8,53.8c2.2-6.7,7.3-5.2,7.8-5c0.5,0.1,5.8,0.8,4.9,7.8c-0.9,7-5,10.8-8.8,9.7
					C105.7,65.7,103.7,60.5,105.8,53.8z"/>
				<path class="st0" d="M110.3,43.2c-2.7-29.4-25-27.7-27.1-27.5c-2.1-0.2-24.4-1.9-27.1,27.5C53.4,72.8,66.5,92.1,83.2,91
					C99.8,92.1,113,72.8,110.3,43.2z"/>
			</g>
			<g>
				<g>
					<path class="st1" d="M86.4,53.3c0.6,1.9,1,3.8,1.3,5.7c0.3,1.9,0.6,3.9,0.8,5.8l0,0.3l-0.2,0.1c-0.6,0.5-1.2,1-1.8,1.5
						c-0.6,0.5-1.2,1-1.9,1.4c0.5-0.6,1-1.2,1.5-1.8c0.5-0.6,1-1.2,1.6-1.7L87.6,65c-0.4-1.9-0.7-3.9-0.9-5.8
						C86.5,57.2,86.3,55.3,86.4,53.3z"/>
				</g>
				<path class="st5" d="M70.2,72.4l26.5-0.3C96.8,72.2,86.2,82.6,70.2,72.4z"/>
				<g>
					<path class="st1" d="M77,77.8c2.9,0.9,5.9,1.4,8.8,1.1c2.9-0.3,5.7-1.4,8.3-3.1c-1,1.2-2.3,2.2-3.7,2.9c-1.4,0.7-3,1.2-4.5,1.3
						C82.8,80.3,79.6,79.5,77,77.8z"/>
				</g>
				<g>
					<path class="st4" d="M69.3,53.7c0,2.2,0.8,4,1.8,4c1,0,1.8-1.8,1.8-4c0-2.2-0.8-4-1.8-4C70.1,49.7,69.3,51.5,69.3,53.7z"/>
					<path class="st4" d="M94.5,53.7c0,2.2,0.8,4,1.8,4c1,0,1.8-1.8,1.8-4c0-2.2-0.8-4-1.8-4C95.3,49.7,94.5,51.5,94.5,53.7z"/>
				</g>
				<g>
					<path class="st4" d="M64.8,47.2c0.5-1.2,1.4-2.3,2.4-3.1c1.1-0.8,2.4-1.4,3.8-1.6c1.4-0.1,2.9,0.2,4.1,1.1
						c0.6,0.3,1,0.9,1.5,1.4c0.4,0.5,0.7,1.1,1,1.7c-0.6-0.3-1.1-0.6-1.7-0.9c-0.6-0.2-1.1-0.5-1.6-0.7c-1-0.4-2.1-0.5-3.1-0.4
						c-1,0.1-2.1,0.4-3.1,0.9C67,45.9,65.9,46.5,64.8,47.2z"/>
				</g>
				<g>
					<path class="st4" d="M90.2,47.2c0.5-1.2,1.4-2.3,2.4-3.1c1.1-0.8,2.4-1.4,3.8-1.6c1.4-0.1,2.9,0.2,4.1,1.1
						c0.6,0.3,1,0.9,1.5,1.4c0.4,0.5,0.7,1.1,1,1.7c-0.6-0.3-1.1-0.6-1.7-0.9c-0.6-0.2-1.1-0.5-1.6-0.7c-1-0.4-2.1-0.5-3.1-0.4
						c-1,0.1-2.1,0.4-3.1,0.9C92.4,45.9,91.3,46.5,90.2,47.2z"/>
				</g>
			</g>
			<g>
				<path class="st6" d="M65.2,20.6c0,0,0.7,18.6,22.9,21.9l-7.6-9c0,0,10.6,9.3,22.6,8c0,0-1.7-6-8-11.6c0,0,23.6,10.3,8.6,54.7
					c0,0,17.2-21.6,12.9-47.8C111.4,5.7,84.7,2.5,73.1,8.3C63.2,13.3,65.2,20.6,65.2,20.6z"/>
				<path class="st6" d="M68.8,13.6c0,0-17.8-5.3-23.6,20.6c-5,22.2,5,42.8,22.2,56.4c0,0-10-9.6-10.6-34.2
					c-0.7-24.5,14.6-36.5,20.2-38.8C82.7,15.3,68.8,13.6,68.8,13.6z"/>
				<path class="st7" d="M116.6,36.8c-0.5-3-1.2-5.7-2-8.1c-1.4,6-4,11.7-7.6,17.2c2.4,8.4,2.7,20.8-3.3,38.7
					C103.6,84.6,120.9,63,116.6,36.8z"/>
				<path class="st7" d="M56.9,56.4c-0.1-5.5,0.5-10.4,1.7-14.7c-0.6-0.4-1.1-0.7-1.7-1.1c-4-2.6-7.7-5.5-10.5-9.5
					c-0.1-0.1-0.2-0.2-0.2-0.4c-0.3,1.1-0.6,2.2-0.9,3.4c-5,22.2,5,42.8,22.2,56.4C67.5,90.6,57.5,80.9,56.9,56.4z"/>
				<path class="st1" d="M50.6,50.3c-1.2,1.1-2.1,3-1.7,6.3c0.7,5.2,3.1,8.7,5.9,9.6C53,60.7,51.7,54.9,50.6,50.3z"/>
			</g>
		</g>
	</g>
</g>
</svg>
