<?xml version="1.0" encoding="utf-8"?>
<!-- Generator: Adobe Illustrator 23.0.1, SVG Export Plug-In . SVG Version: 6.00 Build 0)  -->
<svg version="1.1" xmlns="http://www.w3.org/2000/svg" xmlns:xlink="http://www.w3.org/1999/xlink" x="0px" y="0px"
	 viewBox="0 0 163.3 200.3" style="enable-background:new 0 0 163.3 200.3;" xml:space="preserve">
<style type="text/css">
	.st0{fill:#FFAC9D;}
	.st1{fill:#CC887F;}
	.st2{fill:#FFA65B;}
	.st3{clip-path:url(#SVGID_2_);}
	.st4{fill:#352C38;}
	.st5{fill:#FFFFFF;}
	.st6{fill:#765E69;}
	.st7{opacity:0.4;fill:#352C38;}
	.st8{fill:#965450;}
	.st9{fill:#824846;}
	.st10{fill:#FDDEC0;}
	.st11{fill:#E2C6AF;}
	.st12{fill:#6F96BD;}
	.st13{fill:#76413B;}
	.st14{fill:#5D8584;}
	.st15{clip-path:url(#SVGID_4_);}
	.st16{fill:none;stroke:#FFFFFF;stroke-width:0.8855;stroke-miterlimit:10;}
	.st17{fill:#EDCFB7;}
	.st18{fill:#F19C7C;}
	.st19{fill:#D88971;}
	.st20{clip-path:url(#SVGID_6_);}
	.st21{fill:#B26E59;}
	.st22{fill:#7BADAA;}
	.st23{opacity:0.1;fill:#352C38;}
	.st24{clip-path:url(#SVGID_8_);}
	.st25{fill:none;stroke:#765E69;stroke-width:1.4129;stroke-miterlimit:10;}
	.st26{fill:none;stroke:#765E69;stroke-miterlimit:10;}
	.st27{fill:#FC6A5A;}
	.st28{clip-path:url(#SVGID_10_);fill:none;stroke:#F99787;stroke-width:3;stroke-miterlimit:10;}
	.st29{clip-path:url(#SVGID_10_);fill:none;stroke:#F99787;stroke-miterlimit:10;}
	.st30{fill:#BC7068;}
	.st31{fill:#F99787;}
	.st32{fill:#85B7E0;}
</style>
<g id="BACKGROUND">
</g>
<g id="OBJECTS">
	<g>
		<g>
			<g>
				<path class="st8" d="M148.7,170.2c-5.9-16-42.3-23.6-48.7-28.2c-8.2-5.9-5.6-25.6-5.6-25.6l-13.4,0.4l-13.4-0.4
					c0,0,2.6,19.7-5.6,25.6c-6.4,4.6-42.7,12.3-48.7,28.2c-5.9,16-8.2,30.1-8.2,30.1h75.1h1.5h75.1
					C156.9,200.3,154.7,186.2,148.7,170.2z"/>
				<path class="st13" d="M65.3,138.3c6.3-0.6,12.6-1.9,18-5c4-2.2,7.6-4.8,10.9-7.8c-0.2-5.1,0.3-9.2,0.3-9.2l-13.4,0.4l-13.4-0.4
					C67.7,116.3,69.6,130.3,65.3,138.3z"/>
			</g>
			<g>
				<path class="st14" d="M149.8,170c-2.2-5.9-8.4-10.6-15.8-14.5c-13.1,9-31.7,14.6-52.4,14.6c-20.6,0-39.2-5.6-52.4-14.6
					c-7.4,3.9-13.6,8.6-15.8,14.5c-6,16.1-8.2,30.3-8.2,30.3h75.6h1.5H158C158,200.3,155.8,186.1,149.8,170z"/>
				<g>
					<defs>
						<path id="SVGID_3_" d="M149.8,170c-2.2-5.9-8.4-10.6-15.8-14.5c-13.1,9-31.7,14.6-52.4,14.6c-20.6,0-39.2-5.6-52.4-14.6
							c-7.4,3.9-13.6,8.6-15.8,14.5c-6,16.1-8.2,30.3-8.2,30.3h75.6h1.5H158C158,200.3,155.8,186.1,149.8,170z"/>
					</defs>
					<clipPath id="SVGID_2_">
						<use xlink:href="#SVGID_3_"  style="overflow:visible;"/>
					</clipPath>
					<g class="st3">
						<line class="st16" x1="7.3" y1="164.4" x2="154.6" y2="164.4"/>
						<line class="st16" x1="7.3" y1="195.1" x2="158.6" y2="195.1"/>
						<line class="st16" x1="0.6" y1="180.2" x2="164" y2="180.2"/>
					</g>
				</g>
			</g>
		</g>
		<g>
			<g>
				<path class="st13" d="M58.6,85.6c-2.2-6.7-7.3-5.2-7.8-5c-0.5,0.1-5.8,0.8-4.9,7.8c0.9,7,5,10.8,8.8,9.7
					C58.8,97.5,60.8,92.3,58.6,85.6z"/>
				<path class="st13" d="M102.9,85.6c2.2-6.7,7.3-5.2,7.8-5c0.5,0.1,5.8,0.8,4.9,7.8c-0.9,7-5,10.8-8.8,9.7
					C102.8,97.5,100.7,92.3,102.9,85.6z"/>
				<path class="st8" d="M107.4,75.1c-2.7-29.4-25-27.7-27.1-27.5c-2.1-0.2-24.4-1.9-27.1,27.5c-2.7,29.6,10.5,48.9,27.1,47.8
					C96.9,123.9,110.1,104.6,107.4,75.1z"/>
			</g>
			<g>
				<g>
					<path class="st13" d="M83.4,85.1c0.6,1.9,1,3.8,1.3,5.7c0.3,1.9,0.6,3.9,0.8,5.8l0,0.3l-0.2,0.1c-0.6,0.5-1.2,1-1.8,1.5
						c-0.6,0.5-1.2,1-1.9,1.4c0.5-0.6,1-1.2,1.5-1.8c0.5-0.6,1-1.2,1.6-1.7l-0.1,0.4c-0.4-1.9-0.7-3.9-0.9-5.8
						C83.5,89,83.4,87.1,83.4,85.1z"/>
				</g>
				<path class="st5" d="M67.3,104.2l26.5-0.3C93.8,104,83.2,114.4,67.3,104.2z"/>
				<g>
					<path class="st13" d="M74.1,109.6c2.9,0.9,5.9,1.4,8.8,1.1c2.9-0.3,5.7-1.4,8.3-3.1c-1,1.2-2.3,2.2-3.7,2.9
						c-1.4,0.7-3,1.2-4.5,1.3C79.9,112.1,76.7,111.3,74.1,109.6z"/>
				</g>
				<g>
					<path class="st4" d="M66.3,85.5c0,2.2,0.8,4,1.8,4c1,0,1.8-1.8,1.8-4c0-2.2-0.8-4-1.8-4C67.2,81.5,66.3,83.3,66.3,85.5z"/>
					<path class="st4" d="M91.6,85.5c0,2.2,0.8,4,1.8,4c1,0,1.8-1.8,1.8-4c0-2.2-0.8-4-1.8-4C92.4,81.5,91.6,83.3,91.6,85.5z"/>
				</g>
				<g>
					<path class="st4" d="M61.8,79c0.5-1.2,1.4-2.3,2.4-3.1c1.1-0.8,2.4-1.4,3.8-1.6c1.4-0.1,2.9,0.2,4.1,1.1c0.6,0.3,1,0.9,1.5,1.4
						c0.4,0.5,0.7,1.1,1,1.7c-0.6-0.3-1.1-0.6-1.7-0.9c-0.6-0.2-1.1-0.5-1.6-0.7c-1-0.4-2.1-0.5-3.1-0.4c-1,0.1-2.1,0.4-3.1,0.9
						C64,77.8,63,78.3,61.8,79z"/>
				</g>
				<g>
					<path class="st4" d="M87.2,79c0.5-1.2,1.4-2.3,2.4-3.1c1.1-0.8,2.4-1.4,3.8-1.6c1.4-0.1,2.9,0.2,4.1,1.1c0.6,0.3,1,0.9,1.5,1.4
						c0.4,0.5,0.7,1.1,1,1.7c-0.6-0.3-1.1-0.6-1.7-0.9c-0.6-0.2-1.1-0.5-1.6-0.7c-1-0.4-2.1-0.5-3.1-0.4c-1,0.1-2.1,0.4-3.1,0.9
						C89.4,77.8,88.4,78.3,87.2,79z"/>
				</g>
			</g>
			<g>
				<g>
					<path class="st4" d="M67.3,42.2c0,0-16.3-5.6-13.5-13.1c2.8-7.5,15.4,2.8,15.4,2.8s-21-18.2-10.7-23.3
						c10.3-5.1,21.9,20.1,21.9,20.1S59.8,3.5,78.5,0.2c18.7-3.3,5.1,33.6,5.1,33.6s6.5-26.1,17.3-22.4c14.2,4.9-11.7,25.7-11.7,25.7
						s15.9-13.5,19.1-10.7c3.3,2.8-4.5,9.9-13.1,15.9C82.7,51,82.7,50.6,67.3,42.2z"/>
					<ellipse class="st2" cx="80.3" cy="44.7" rx="13" ry="8.5"/>
				</g>
				<g>
					<path class="st4" d="M79.7,56.6c0,0,0.1,12.1-24.4,19.1c0,0,1.5,18.5-2,17.5S34,39.9,80.1,41.5L79.7,56.6z"/>
					<path class="st4" d="M79.7,56.6c0,0,0.4,12.1,24.9,19.1c0,0-1.5,18.5,2,17.5s18.8-52.4-26.5-51.7L79.7,56.6z"/>
					<path class="st4" d="M87.2,67.6c-7.6-9-8.7-15.2-5.5-25.2c-0.3-0.1-0.6-0.1-0.9-0.2c-3.4,8.4-6.1,22.4,8.2,31
						C89,73.2,96.4,78.6,87.2,67.6z"/>
					<path class="st4" d="M80.8,66.7c-3.6-8.9-2.9-14,2-21c-0.2-0.1-0.5-0.3-0.7-0.4c-4.7,5.7-10.4,15.9-1.4,26.2
						C80.8,71.5,85.2,77.6,80.8,66.7z"/>
				</g>
			</g>
		</g>
	</g>
</g>
</svg>
